<?xml version="1.0" encoding="UTF-8" standalone="no"?>
<!DOCTYPE svg PUBLIC "-//W3C//DTD SVG 1.1//EN"
 "http://www.w3.org/Graphics/SVG/1.1/DTD/svg11.dtd">
<!-- Generated by graphviz version 2.40.1 (20161225.0304)
 -->
<!-- Title: models_diagram Pages: 1 -->
<svg width="2988pt" height="2268pt"
 viewBox="0.00 0.00 2988.47 2268.14" xmlns="http://www.w3.org/2000/svg" xmlns:xlink="http://www.w3.org/1999/xlink">
<g id="graph0" class="graph" transform="scale(1 1) rotate(0) translate(36 2232.1387)">
<title>models_diagram</title>
<polygon fill="#ffffff" stroke="transparent" points="-36,36 -36,-2232.1387 2952.4666,-2232.1387 2952.4666,36 -36,36"/>
<!-- gl_country -->
<g id="node1" class="node">
<title>gl_country</title>
<polygon fill="#add8e6" stroke="transparent" points="0,-1198.9137 0,-1220.9137 88,-1220.9137 88,-1198.9137 0,-1198.9137"/>
<polygon fill="none" stroke="#000000" points="0,-1198.9137 0,-1220.9137 88,-1220.9137 88,-1198.9137 0,-1198.9137"/>
<text text-anchor="start" x="22.337" y="-1206.9137" font-family="Times,serif" font-size="10.00" fill="#000000">gl_country</text>
<polygon fill="none" stroke="#000000" points="0,-1176.9137 0,-1198.9137 88,-1198.9137 88,-1176.9137 0,-1176.9137"/>
<text text-anchor="start" x="5" y="-1184.9137" font-family="Times,serif" font-size="10.00" fill="#000000">id: NUMBER</text>
<polygon fill="none" stroke="#000000" points="0,-1154.9137 0,-1176.9137 88,-1176.9137 88,-1154.9137 0,-1154.9137"/>
<text text-anchor="start" x="5" y="-1162.9137" font-family="Times,serif" font-size="10.00" fill="#000000">createdAt: DATE</text>
<polygon fill="none" stroke="#000000" points="0,-1132.9137 0,-1154.9137 88,-1154.9137 88,-1132.9137 0,-1132.9137"/>
<text text-anchor="start" x="5" y="-1140.9137" font-family="Times,serif" font-size="10.00" fill="#000000">updatedAt: DATE</text>
<polygon fill="none" stroke="#000000" points="0,-1110.9137 0,-1132.9137 88,-1132.9137 88,-1110.9137 0,-1110.9137"/>
<text text-anchor="start" x="5" y="-1118.9137" font-family="Times,serif" font-size="10.00" fill="#000000">name: STRING</text>
<polygon fill="none" stroke="#000000" points="0,-1088.9137 0,-1110.9137 88,-1110.9137 88,-1088.9137 0,-1088.9137"/>
<text text-anchor="start" x="5" y="-1096.9137" font-family="Times,serif" font-size="10.00" fill="#000000">code: STRING</text>
<polygon fill="none" stroke="#000000" points="0,-1066.9137 0,-1088.9137 88,-1088.9137 88,-1066.9137 0,-1066.9137"/>
<text text-anchor="start" x="4.976" y="-1074.9137" font-family="Times,serif" font-size="10.00" fill="#000000">priority: NUMBER</text>
</g>
<!-- gl_state -->
<g id="node2" class="node">
<title>gl_state</title>
<polygon fill="#add8e6" stroke="transparent" points="306.2454,-1220.9137 306.2454,-1242.9137 402.2454,-1242.9137 402.2454,-1220.9137 306.2454,-1220.9137"/>
<polygon fill="none" stroke="#000000" points="306.2454,-1220.9137 306.2454,-1242.9137 402.2454,-1242.9137 402.2454,-1220.9137 306.2454,-1220.9137"/>
<text text-anchor="start" x="338.6934" y="-1228.9137" font-family="Times,serif" font-size="10.00" fill="#000000">gl_state</text>
<polygon fill="none" stroke="#000000" points="306.2454,-1198.9137 306.2454,-1220.9137 402.2454,-1220.9137 402.2454,-1198.9137 306.2454,-1198.9137"/>
<text text-anchor="start" x="311.2454" y="-1206.9137" font-family="Times,serif" font-size="10.00" fill="#000000">id: NUMBER</text>
<polygon fill="none" stroke="#000000" points="306.2454,-1176.9137 306.2454,-1198.9137 402.2454,-1198.9137 402.2454,-1176.9137 306.2454,-1176.9137"/>
<text text-anchor="start" x="311.2454" y="-1184.9137" font-family="Times,serif" font-size="10.00" fill="#000000">createdAt: DATE</text>
<polygon fill="none" stroke="#000000" points="306.2454,-1154.9137 306.2454,-1176.9137 402.2454,-1176.9137 402.2454,-1154.9137 306.2454,-1154.9137"/>
<text text-anchor="start" x="311.2454" y="-1162.9137" font-family="Times,serif" font-size="10.00" fill="#000000">updatedAt: DATE</text>
<polygon fill="none" stroke="#000000" points="306.2454,-1132.9137 306.2454,-1154.9137 402.2454,-1154.9137 402.2454,-1132.9137 306.2454,-1132.9137"/>
<text text-anchor="start" x="311.2454" y="-1140.9137" font-family="Times,serif" font-size="10.00" fill="#000000">name: STRING</text>
<polygon fill="none" stroke="#000000" points="306.2454,-1110.9137 306.2454,-1132.9137 402.2454,-1132.9137 402.2454,-1110.9137 306.2454,-1110.9137"/>
<text text-anchor="start" x="311.2454" y="-1118.9137" font-family="Times,serif" font-size="10.00" fill="#000000">code: STRING</text>
<polygon fill="none" stroke="#000000" points="306.2454,-1088.9137 306.2454,-1110.9137 402.2454,-1110.9137 402.2454,-1088.9137 306.2454,-1088.9137"/>
<text text-anchor="start" x="311.2454" y="-1096.9137" font-family="Times,serif" font-size="10.00" fill="#000000">initials: STRING</text>
<polygon fill="none" stroke="#000000" points="306.2454,-1066.9137 306.2454,-1088.9137 402.2454,-1088.9137 402.2454,-1066.9137 306.2454,-1066.9137"/>
<text text-anchor="start" x="311.2454" y="-1074.9137" font-family="Times,serif" font-size="10.00" fill="#000000">priority: NUMBER</text>
<polygon fill="none" stroke="#000000" points="306.2454,-1044.9137 306.2454,-1066.9137 402.2454,-1066.9137 402.2454,-1044.9137 306.2454,-1044.9137"/>
<text text-anchor="start" x="310.7809" y="-1052.9137" font-family="Times,serif" font-size="10.00" fill="#000000">countryId: NUMBER</text>
</g>
<!-- gl_state&#45;&gt;gl_country -->
<g id="edge1" class="edge">
<title>gl_state&#45;&gt;gl_country</title>
<path fill="none" stroke="#000000" stroke-width=".75" d="M300.0436,-1143.9137C239.9062,-1143.9137 144.0134,-1143.9137 88.2253,-1143.9137"/>
<polygon fill="#000000" stroke="#000000" stroke-width=".75" points="300.11,-1143.9138 306.11,-1146.6137 303.11,-1143.9138 306.11,-1143.9137 306.11,-1143.9137 306.11,-1143.9137 303.11,-1143.9138 306.1099,-1141.2137 300.11,-1143.9138 300.11,-1143.9138"/>
</g>
<!-- gl_state_region -->
<g id="node3" class="node">
<title>gl_state_region</title>
<polygon fill="#add8e6" stroke="transparent" points="156.8734,-1412.691 156.8734,-1434.691 252.8734,-1434.691 252.8734,-1412.691 156.8734,-1412.691"/>
<polygon fill="none" stroke="#000000" points="156.8734,-1412.691 156.8734,-1434.691 252.8734,-1434.691 252.8734,-1412.691 156.8734,-1412.691"/>
<text text-anchor="start" x="174.0479" y="-1420.691" font-family="Times,serif" font-size="10.00" fill="#000000">gl_state_region</text>
<polygon fill="none" stroke="#000000" points="156.8734,-1390.691 156.8734,-1412.691 252.8734,-1412.691 252.8734,-1390.691 156.8734,-1390.691"/>
<text text-anchor="start" x="161.8734" y="-1398.691" font-family="Times,serif" font-size="10.00" fill="#000000">id: NUMBER</text>
<polygon fill="none" stroke="#000000" points="156.8734,-1368.691 156.8734,-1390.691 252.8734,-1390.691 252.8734,-1368.691 156.8734,-1368.691"/>
<text text-anchor="start" x="161.8734" y="-1376.691" font-family="Times,serif" font-size="10.00" fill="#000000">createdAt: DATE</text>
<polygon fill="none" stroke="#000000" points="156.8734,-1346.691 156.8734,-1368.691 252.8734,-1368.691 252.8734,-1346.691 156.8734,-1346.691"/>
<text text-anchor="start" x="161.8734" y="-1354.691" font-family="Times,serif" font-size="10.00" fill="#000000">updatedAt: DATE</text>
<polygon fill="none" stroke="#000000" points="156.8734,-1324.691 156.8734,-1346.691 252.8734,-1346.691 252.8734,-1324.691 156.8734,-1324.691"/>
<text text-anchor="start" x="161.8734" y="-1332.691" font-family="Times,serif" font-size="10.00" fill="#000000">name: STRING</text>
<polygon fill="none" stroke="#000000" points="156.8734,-1302.691 156.8734,-1324.691 252.8734,-1324.691 252.8734,-1302.691 156.8734,-1302.691"/>
<text text-anchor="start" x="161.8734" y="-1310.691" font-family="Times,serif" font-size="10.00" fill="#000000">code: STRING</text>
<polygon fill="none" stroke="#000000" points="156.8734,-1280.691 156.8734,-1302.691 252.8734,-1302.691 252.8734,-1280.691 156.8734,-1280.691"/>
<text text-anchor="start" x="161.8734" y="-1288.691" font-family="Times,serif" font-size="10.00" fill="#000000">type: STRING</text>
<polygon fill="none" stroke="#000000" points="156.8734,-1258.691 156.8734,-1280.691 252.8734,-1280.691 252.8734,-1258.691 156.8734,-1258.691"/>
<text text-anchor="start" x="161.6954" y="-1266.691" font-family="Times,serif" font-size="10.00" fill="#000000">typeDesc: VIRTUAL</text>
<polygon fill="none" stroke="#000000" points="156.8734,-1236.691 156.8734,-1258.691 252.8734,-1258.691 252.8734,-1236.691 156.8734,-1236.691"/>
<text text-anchor="start" x="161.8734" y="-1244.691" font-family="Times,serif" font-size="10.00" fill="#000000">stateId: NUMBER</text>
</g>
<!-- gl_state_region&#45;&gt;gl_state -->
<g id="edge2" class="edge">
<title>gl_state_region&#45;&gt;gl_state</title>
<path fill="none" stroke="#000000" stroke-width=".75" d="M256.7698,-1269.0616C272.7503,-1248.5445 290.2703,-1226.0508 305.9951,-1205.8618"/>
<polygon fill="#000000" stroke="#000000" stroke-width=".75" points="256.6448,-1269.2222 250.8277,-1272.2967 254.8013,-1271.589 252.9578,-1273.9558 252.9578,-1273.9558 252.9578,-1273.9558 254.8013,-1271.589 255.0879,-1275.6149 256.6448,-1269.2222 256.6448,-1269.2222"/>
</g>
<!-- gl_city -->
<g id="node4" class="node">
<title>gl_city</title>
<polygon fill="#add8e6" stroke="transparent" points="502.0226,-1370.2858 502.0226,-1392.2858 590.0226,-1392.2858 590.0226,-1370.2858 502.0226,-1370.2858"/>
<polygon fill="none" stroke="#000000" points="502.0226,-1370.2858 502.0226,-1392.2858 590.0226,-1392.2858 590.0226,-1370.2858 502.0226,-1370.2858"/>
<text text-anchor="start" x="532.1346" y="-1378.2858" font-family="Times,serif" font-size="10.00" fill="#000000">gl_city</text>
<polygon fill="none" stroke="#000000" points="502.0226,-1348.2858 502.0226,-1370.2858 590.0226,-1370.2858 590.0226,-1348.2858 502.0226,-1348.2858"/>
<text text-anchor="start" x="507.0226" y="-1356.2858" font-family="Times,serif" font-size="10.00" fill="#000000">id: NUMBER</text>
<polygon fill="none" stroke="#000000" points="502.0226,-1326.2858 502.0226,-1348.2858 590.0226,-1348.2858 590.0226,-1326.2858 502.0226,-1326.2858"/>
<text text-anchor="start" x="507.0226" y="-1334.2858" font-family="Times,serif" font-size="10.00" fill="#000000">createdAt: DATE</text>
<polygon fill="none" stroke="#000000" points="502.0226,-1304.2858 502.0226,-1326.2858 590.0226,-1326.2858 590.0226,-1304.2858 502.0226,-1304.2858"/>
<text text-anchor="start" x="507.0226" y="-1312.2858" font-family="Times,serif" font-size="10.00" fill="#000000">updatedAt: DATE</text>
<polygon fill="none" stroke="#000000" points="502.0226,-1282.2858 502.0226,-1304.2858 590.0226,-1304.2858 590.0226,-1282.2858 502.0226,-1282.2858"/>
<text text-anchor="start" x="507.0226" y="-1290.2858" font-family="Times,serif" font-size="10.00" fill="#000000">name: STRING</text>
<polygon fill="none" stroke="#000000" points="502.0226,-1260.2858 502.0226,-1282.2858 590.0226,-1282.2858 590.0226,-1260.2858 502.0226,-1260.2858"/>
<text text-anchor="start" x="507.0226" y="-1268.2858" font-family="Times,serif" font-size="10.00" fill="#000000">code: STRING</text>
<polygon fill="none" stroke="#000000" points="502.0226,-1238.2858 502.0226,-1260.2858 590.0226,-1260.2858 590.0226,-1238.2858 502.0226,-1238.2858"/>
<text text-anchor="start" x="507.0226" y="-1246.2858" font-family="Times,serif" font-size="10.00" fill="#000000">initials: STRING</text>
<polygon fill="none" stroke="#000000" points="502.0226,-1216.2858 502.0226,-1238.2858 590.0226,-1238.2858 590.0226,-1216.2858 502.0226,-1216.2858"/>
<text text-anchor="start" x="506.9986" y="-1224.2858" font-family="Times,serif" font-size="10.00" fill="#000000">priority: NUMBER</text>
<polygon fill="none" stroke="#000000" points="502.0226,-1194.2858 502.0226,-1216.2858 590.0226,-1216.2858 590.0226,-1194.2858 502.0226,-1194.2858"/>
<text text-anchor="start" x="507.0226" y="-1202.2858" font-family="Times,serif" font-size="10.00" fill="#000000">stateId: NUMBER</text>
</g>
<!-- gl_city&#45;&gt;gl_state -->
<g id="edge3" class="edge">
<title>gl_city&#45;&gt;gl_state</title>
<path fill="none" stroke="#000000" stroke-width=".75" d="M496.5973,-1254.7892C467.6523,-1232.2444 431.2584,-1203.8978 402.5151,-1181.5102"/>
<polygon fill="#000000" stroke="#000000" stroke-width=".75" points="496.8095,-1254.9544 499.8839,-1260.7715 499.1763,-1256.7979 501.5431,-1258.6414 501.5431,-1258.6414 501.5431,-1258.6414 499.1763,-1256.7979 503.2022,-1256.5113 496.8095,-1254.9544 496.8095,-1254.9544"/>
</g>
<!-- gl_city_state_region -->
<g id="node5" class="node">
<title>gl_city_state_region</title>
<polygon fill="#add8e6" stroke="transparent" points="340.6506,-1540.063 340.6506,-1562.063 453.6506,-1562.063 453.6506,-1540.063 340.6506,-1540.063"/>
<polygon fill="none" stroke="#000000" points="340.6506,-1540.063 340.6506,-1562.063 453.6506,-1562.063 453.6506,-1540.063 340.6506,-1540.063"/>
<text text-anchor="start" x="356.3266" y="-1548.063" font-family="Times,serif" font-size="10.00" fill="#000000">gl_city_state_region</text>
<polygon fill="none" stroke="#000000" points="340.6506,-1518.063 340.6506,-1540.063 453.6506,-1540.063 453.6506,-1518.063 340.6506,-1518.063"/>
<text text-anchor="start" x="345.6506" y="-1526.063" font-family="Times,serif" font-size="10.00" fill="#000000">id: NUMBER</text>
<polygon fill="none" stroke="#000000" points="340.6506,-1496.063 340.6506,-1518.063 453.6506,-1518.063 453.6506,-1496.063 340.6506,-1496.063"/>
<text text-anchor="start" x="345.6506" y="-1504.063" font-family="Times,serif" font-size="10.00" fill="#000000">createdAt: DATE</text>
<polygon fill="none" stroke="#000000" points="340.6506,-1474.063 340.6506,-1496.063 453.6506,-1496.063 453.6506,-1474.063 340.6506,-1474.063"/>
<text text-anchor="start" x="345.6506" y="-1482.063" font-family="Times,serif" font-size="10.00" fill="#000000">updatedAt: DATE</text>
<polygon fill="none" stroke="#000000" points="340.6506,-1452.063 340.6506,-1474.063 453.6506,-1474.063 453.6506,-1452.063 340.6506,-1452.063"/>
<text text-anchor="start" x="345.6506" y="-1460.063" font-family="Times,serif" font-size="10.00" fill="#000000">type: STRING</text>
<polygon fill="none" stroke="#000000" points="340.6506,-1430.063 340.6506,-1452.063 453.6506,-1452.063 453.6506,-1430.063 340.6506,-1430.063"/>
<text text-anchor="start" x="345.3536" y="-1438.063" font-family="Times,serif" font-size="10.00" fill="#000000">stateRegionId: NUMBER</text>
<polygon fill="none" stroke="#000000" points="340.6506,-1408.063 340.6506,-1430.063 453.6506,-1430.063 453.6506,-1408.063 340.6506,-1408.063"/>
<text text-anchor="start" x="345.6506" y="-1416.063" font-family="Times,serif" font-size="10.00" fill="#000000">cityId: NUMBER</text>
</g>
<!-- gl_city_state_region&#45;&gt;gl_state_region -->
<g id="edge4" class="edge">
<title>gl_city_state_region&#45;&gt;gl_state_region</title>
<path fill="none" stroke="#000000" stroke-width=".75" d="M335.241,-1437.2321C308.6933,-1416.5546 278.078,-1392.7088 253.1895,-1373.3236"/>
<polygon fill="#000000" stroke="#000000" stroke-width=".75" points="335.4148,-1437.3674 338.4892,-1443.1845 337.7816,-1439.2109 340.1484,-1441.0544 340.1484,-1441.0544 340.1484,-1441.0544 337.7816,-1439.2109 341.8075,-1438.9243 335.4148,-1437.3674 335.4148,-1437.3674"/>
</g>
<!-- gl_city_state_region&#45;&gt;gl_city -->
<g id="edge5" class="edge">
<title>gl_city_state_region&#45;&gt;gl_city</title>
<path fill="none" stroke="#000000" stroke-width=".75" d="M457.1269,-1407.4181C472.1158,-1388.174 487.8977,-1367.9119 501.9357,-1349.8886"/>
<polygon fill="#000000" stroke="#000000" stroke-width=".75" points="457.0217,-1407.5532 451.2046,-1410.6277 455.1782,-1409.92 453.3348,-1412.2868 453.3348,-1412.2868 453.3348,-1412.2868 455.1782,-1409.92 455.4649,-1413.9459 457.0217,-1407.5532 457.0217,-1407.5532"/>
</g>
<!-- gl_user -->
<g id="node6" class="node">
<title>gl_user</title>
<polygon fill="#add8e6" stroke="transparent" points="2335.141,-425.8902 2335.141,-447.8902 2454.141,-447.8902 2454.141,-425.8902 2335.141,-425.8902"/>
<polygon fill="none" stroke="#000000" points="2335.141,-425.8902 2335.141,-447.8902 2454.141,-447.8902 2454.141,-425.8902 2335.141,-425.8902"/>
<text text-anchor="start" x="2379.923" y="-433.8902" font-family="Times,serif" font-size="10.00" fill="#000000">gl_user</text>
<polygon fill="none" stroke="#000000" points="2335.141,-403.8902 2335.141,-425.8902 2454.141,-425.8902 2454.141,-403.8902 2335.141,-403.8902"/>
<text text-anchor="start" x="2340.141" y="-411.8902" font-family="Times,serif" font-size="10.00" fill="#000000">id: NUMBER</text>
<polygon fill="none" stroke="#000000" points="2335.141,-381.8902 2335.141,-403.8902 2454.141,-403.8902 2454.141,-381.8902 2335.141,-381.8902"/>
<text text-anchor="start" x="2340.141" y="-389.8902" font-family="Times,serif" font-size="10.00" fill="#000000">createdAt: DATE</text>
<polygon fill="none" stroke="#000000" points="2335.141,-359.8902 2335.141,-381.8902 2454.141,-381.8902 2454.141,-359.8902 2335.141,-359.8902"/>
<text text-anchor="start" x="2340.141" y="-367.8902" font-family="Times,serif" font-size="10.00" fill="#000000">updatedAt: DATE</text>
<polygon fill="none" stroke="#000000" points="2335.141,-337.8902 2335.141,-359.8902 2454.141,-359.8902 2454.141,-337.8902 2335.141,-337.8902"/>
<text text-anchor="start" x="2340.141" y="-345.8902" font-family="Times,serif" font-size="10.00" fill="#000000">name: STRING</text>
<polygon fill="none" stroke="#000000" points="2335.141,-315.8902 2335.141,-337.8902 2454.141,-337.8902 2454.141,-315.8902 2335.141,-315.8902"/>
<text text-anchor="start" x="2340.141" y="-323.8902" font-family="Times,serif" font-size="10.00" fill="#000000">nickname: STRING</text>
<polygon fill="none" stroke="#000000" points="2335.141,-293.8902 2335.141,-315.8902 2454.141,-315.8902 2454.141,-293.8902 2335.141,-293.8902"/>
<text text-anchor="start" x="2340.141" y="-301.8902" font-family="Times,serif" font-size="10.00" fill="#000000">email: STRING</text>
<polygon fill="none" stroke="#000000" points="2335.141,-271.8902 2335.141,-293.8902 2454.141,-293.8902 2454.141,-271.8902 2335.141,-271.8902"/>
<text text-anchor="start" x="2340.141" y="-279.8902" font-family="Times,serif" font-size="10.00" fill="#000000">password: STRING</text>
<polygon fill="none" stroke="#000000" points="2335.141,-249.8902 2335.141,-271.8902 2454.141,-271.8902 2454.141,-249.8902 2335.141,-249.8902"/>
<text text-anchor="start" x="2340.141" y="-257.8902" font-family="Times,serif" font-size="10.00" fill="#000000">blocked: BOOLEAN</text>
<polygon fill="none" stroke="#000000" points="2335.141,-227.8902 2335.141,-249.8902 2454.141,-249.8902 2454.141,-227.8902 2335.141,-227.8902"/>
<text text-anchor="start" x="2340.141" y="-235.8902" font-family="Times,serif" font-size="10.00" fill="#000000">level: NUMBER</text>
<polygon fill="none" stroke="#000000" points="2335.141,-205.8902 2335.141,-227.8902 2454.141,-227.8902 2454.141,-205.8902 2335.141,-205.8902"/>
<text text-anchor="start" x="2340.141" y="-213.8902" font-family="Times,serif" font-size="10.00" fill="#000000">levelDesc: VIRTUAL</text>
<polygon fill="none" stroke="#000000" points="2335.141,-183.8902 2335.141,-205.8902 2454.141,-205.8902 2454.141,-183.8902 2335.141,-183.8902"/>
<text text-anchor="start" x="2340.141" y="-191.8902" font-family="Times,serif" font-size="10.00" fill="#000000">levelIsAdmin: VIRTUAL</text>
<polygon fill="none" stroke="#000000" points="2335.141,-161.8902 2335.141,-183.8902 2454.141,-183.8902 2454.141,-161.8902 2335.141,-161.8902"/>
<text text-anchor="start" x="2340.141" y="-169.8902" font-family="Times,serif" font-size="10.00" fill="#000000">levelIsStaff: VIRTUAL</text>
<polygon fill="none" stroke="#000000" points="2335.141,-139.8902 2335.141,-161.8902 2454.141,-161.8902 2454.141,-139.8902 2335.141,-139.8902"/>
<text text-anchor="start" x="2339.8" y="-147.8902" font-family="Times,serif" font-size="10.00" fill="#000000">levelIsAccount: VIRTUAL</text>
<polygon fill="none" stroke="#000000" points="2335.141,-117.8902 2335.141,-139.8902 2454.141,-139.8902 2454.141,-117.8902 2335.141,-117.8902"/>
<text text-anchor="start" x="2340.141" y="-125.8902" font-family="Times,serif" font-size="10.00" fill="#000000">loginTryCount: NUMBER</text>
<polygon fill="none" stroke="#000000" points="2335.141,-95.8902 2335.141,-117.8902 2454.141,-117.8902 2454.141,-95.8902 2335.141,-95.8902"/>
<text text-anchor="start" x="2340.141" y="-103.8902" font-family="Times,serif" font-size="10.00" fill="#000000">loginTryWait: DATE</text>
</g>
<!-- gl_user_recover -->
<g id="node7" class="node">
<title>gl_user_recover</title>
<polygon fill="#add8e6" stroke="transparent" points="2415.8832,-194.6952 2415.8832,-216.6952 2509.8832,-216.6952 2509.8832,-194.6952 2415.8832,-194.6952"/>
<polygon fill="none" stroke="#000000" points="2415.8832,-194.6952 2415.8832,-216.6952 2509.8832,-216.6952 2509.8832,-194.6952 2415.8832,-194.6952"/>
<text text-anchor="start" x="2430.6777" y="-202.6952" font-family="Times,serif" font-size="10.00" fill="#000000">gl_user_recover</text>
<polygon fill="none" stroke="#000000" points="2415.8832,-172.6952 2415.8832,-194.6952 2509.8832,-194.6952 2509.8832,-172.6952 2415.8832,-172.6952"/>
<text text-anchor="start" x="2420.8832" y="-180.6952" font-family="Times,serif" font-size="10.00" fill="#000000">id: NUMBER</text>
<polygon fill="none" stroke="#000000" points="2415.8832,-150.6952 2415.8832,-172.6952 2509.8832,-172.6952 2509.8832,-150.6952 2415.8832,-150.6952"/>
<text text-anchor="start" x="2420.8832" y="-158.6952" font-family="Times,serif" font-size="10.00" fill="#000000">createdAt: DATE</text>
<polygon fill="none" stroke="#000000" points="2415.8832,-128.6952 2415.8832,-150.6952 2509.8832,-150.6952 2509.8832,-128.6952 2415.8832,-128.6952"/>
<text text-anchor="start" x="2420.8832" y="-136.6952" font-family="Times,serif" font-size="10.00" fill="#000000">updatedAt: DATE</text>
<polygon fill="none" stroke="#000000" points="2415.8832,-106.6952 2415.8832,-128.6952 2509.8832,-128.6952 2509.8832,-106.6952 2415.8832,-106.6952"/>
<text text-anchor="start" x="2420.8832" y="-114.6952" font-family="Times,serif" font-size="10.00" fill="#000000">token: STRING</text>
<polygon fill="none" stroke="#000000" points="2415.8832,-84.6952 2415.8832,-106.6952 2509.8832,-106.6952 2509.8832,-84.6952 2415.8832,-84.6952"/>
<text text-anchor="start" x="2420.5392" y="-92.6952" font-family="Times,serif" font-size="10.00" fill="#000000">expiresWhen: DATE</text>
<polygon fill="none" stroke="#000000" points="2415.8832,-62.6952 2415.8832,-84.6952 2509.8832,-84.6952 2509.8832,-62.6952 2415.8832,-62.6952"/>
<text text-anchor="start" x="2420.8832" y="-70.6952" font-family="Times,serif" font-size="10.00" fill="#000000">userId: NUMBER</text>
</g>
<!-- gl_user_recover&#45;&gt;gl_user -->
<g id="edge6" class="edge">
<title>gl_user_recover&#45;&gt;gl_user</title>
<path fill="none" stroke="#000000" stroke-width=".75" d="M2422.6086,-217.1455C2422.5792,-217.202 2422.5498,-217.2585 2422.5205,-217.3149"/>
<polygon fill="#000000" stroke="#000000" stroke-width=".75" points="2419.9269,-222.2997 2425.0923,-218.2225 2421.3118,-219.6379 2422.6967,-216.976 2422.6967,-216.976 2422.6967,-216.976 2421.3118,-219.6379 2420.3011,-215.7296 2419.9269,-222.2997 2419.9269,-222.2997"/>
</g>
<!-- gl_person_type -->
<g id="node8" class="node">
<title>gl_person_type</title>
<polygon fill="#add8e6" stroke="transparent" points="749.5907,-1409.1712 749.5907,-1431.1712 837.5907,-1431.1712 837.5907,-1409.1712 749.5907,-1409.1712"/>
<polygon fill="none" stroke="#000000" points="749.5907,-1409.1712 749.5907,-1431.1712 837.5907,-1431.1712 837.5907,-1409.1712 749.5907,-1409.1712"/>
<text text-anchor="start" x="762.7637" y="-1417.1712" font-family="Times,serif" font-size="10.00" fill="#000000">gl_person_type</text>
<polygon fill="none" stroke="#000000" points="749.5907,-1387.1712 749.5907,-1409.1712 837.5907,-1409.1712 837.5907,-1387.1712 749.5907,-1387.1712"/>
<text text-anchor="start" x="754.5907" y="-1395.1712" font-family="Times,serif" font-size="10.00" fill="#000000">id: NUMBER</text>
<polygon fill="none" stroke="#000000" points="749.5907,-1365.1712 749.5907,-1387.1712 837.5907,-1387.1712 837.5907,-1365.1712 749.5907,-1365.1712"/>
<text text-anchor="start" x="754.5907" y="-1373.1712" font-family="Times,serif" font-size="10.00" fill="#000000">createdAt: DATE</text>
<polygon fill="none" stroke="#000000" points="749.5907,-1343.1712 749.5907,-1365.1712 837.5907,-1365.1712 837.5907,-1343.1712 749.5907,-1343.1712"/>
<text text-anchor="start" x="754.5907" y="-1351.1712" font-family="Times,serif" font-size="10.00" fill="#000000">updatedAt: DATE</text>
<polygon fill="none" stroke="#000000" points="749.5907,-1321.1712 749.5907,-1343.1712 837.5907,-1343.1712 837.5907,-1321.1712 749.5907,-1321.1712"/>
<text text-anchor="start" x="754.5907" y="-1329.1712" font-family="Times,serif" font-size="10.00" fill="#000000">name: STRING</text>
<polygon fill="none" stroke="#000000" points="749.5907,-1299.1712 749.5907,-1321.1712 837.5907,-1321.1712 837.5907,-1299.1712 749.5907,-1299.1712"/>
<text text-anchor="start" x="754.5667" y="-1307.1712" font-family="Times,serif" font-size="10.00" fill="#000000">priority: NUMBER</text>
</g>
<!-- gl_person -->
<g id="node9" class="node">
<title>gl_person</title>
<polygon fill="#add8e6" stroke="transparent" points="931.9698,-1435.303 931.9698,-1457.303 1070.9698,-1457.303 1070.9698,-1435.303 931.9698,-1435.303"/>
<polygon fill="none" stroke="#000000" points="931.9698,-1435.303 931.9698,-1457.303 1070.9698,-1457.303 1070.9698,-1435.303 931.9698,-1435.303"/>
<text text-anchor="start" x="981.7518" y="-1443.303" font-family="Times,serif" font-size="10.00" fill="#000000">gl_person</text>
<polygon fill="none" stroke="#000000" points="931.9698,-1413.303 931.9698,-1435.303 1070.9698,-1435.303 1070.9698,-1413.303 931.9698,-1413.303"/>
<text text-anchor="start" x="936.9698" y="-1421.303" font-family="Times,serif" font-size="10.00" fill="#000000">id: NUMBER</text>
<polygon fill="none" stroke="#000000" points="931.9698,-1391.303 931.9698,-1413.303 1070.9698,-1413.303 1070.9698,-1391.303 931.9698,-1391.303"/>
<text text-anchor="start" x="936.9698" y="-1399.303" font-family="Times,serif" font-size="10.00" fill="#000000">createdAt: DATE</text>
<polygon fill="none" stroke="#000000" points="931.9698,-1369.303 931.9698,-1391.303 1070.9698,-1391.303 1070.9698,-1369.303 931.9698,-1369.303"/>
<text text-anchor="start" x="936.9698" y="-1377.303" font-family="Times,serif" font-size="10.00" fill="#000000">updatedAt: DATE</text>
<polygon fill="none" stroke="#000000" points="931.9698,-1347.303 931.9698,-1369.303 1070.9698,-1369.303 1070.9698,-1347.303 931.9698,-1347.303"/>
<text text-anchor="start" x="936.9698" y="-1355.303" font-family="Times,serif" font-size="10.00" fill="#000000">legalType: NUMBER</text>
<polygon fill="none" stroke="#000000" points="931.9698,-1325.303 931.9698,-1347.303 1070.9698,-1347.303 1070.9698,-1325.303 931.9698,-1325.303"/>
<text text-anchor="start" x="936.9698" y="-1333.303" font-family="Times,serif" font-size="10.00" fill="#000000">legalTypeDesc: VIRTUAL</text>
<polygon fill="none" stroke="#000000" points="931.9698,-1303.303 931.9698,-1325.303 1070.9698,-1325.303 1070.9698,-1303.303 931.9698,-1303.303"/>
<text text-anchor="start" x="936.9698" y="-1311.303" font-family="Times,serif" font-size="10.00" fill="#000000">legalIdentifierType: STRING</text>
<polygon fill="none" stroke="#000000" points="931.9698,-1281.303 931.9698,-1303.303 1070.9698,-1303.303 1070.9698,-1281.303 931.9698,-1281.303"/>
<text text-anchor="start" x="936.9698" y="-1289.303" font-family="Times,serif" font-size="10.00" fill="#000000">legalIdentifierCode: STRING</text>
<polygon fill="none" stroke="#000000" points="931.9698,-1259.303 931.9698,-1281.303 1070.9698,-1281.303 1070.9698,-1259.303 931.9698,-1259.303"/>
<text text-anchor="start" x="936.9698" y="-1267.303" font-family="Times,serif" font-size="10.00" fill="#000000">name: STRING</text>
<polygon fill="none" stroke="#000000" points="931.9698,-1237.303 931.9698,-1259.303 1070.9698,-1259.303 1070.9698,-1237.303 931.9698,-1237.303"/>
<text text-anchor="start" x="936.9698" y="-1245.303" font-family="Times,serif" font-size="10.00" fill="#000000">shortname: STRING</text>
<polygon fill="none" stroke="#000000" points="931.9698,-1215.303 931.9698,-1237.303 1070.9698,-1237.303 1070.9698,-1215.303 931.9698,-1215.303"/>
<text text-anchor="start" x="936.9698" y="-1223.303" font-family="Times,serif" font-size="10.00" fill="#000000">phone: STRING</text>
<polygon fill="none" stroke="#000000" points="931.9698,-1193.303 931.9698,-1215.303 1070.9698,-1215.303 1070.9698,-1193.303 931.9698,-1193.303"/>
<text text-anchor="start" x="936.9698" y="-1201.303" font-family="Times,serif" font-size="10.00" fill="#000000">cellphone: STRING</text>
<polygon fill="none" stroke="#000000" points="931.9698,-1171.303 931.9698,-1193.303 1070.9698,-1193.303 1070.9698,-1171.303 931.9698,-1171.303"/>
<text text-anchor="start" x="936.9698" y="-1179.303" font-family="Times,serif" font-size="10.00" fill="#000000">email: STRING</text>
<polygon fill="none" stroke="#000000" points="931.9698,-1149.303 931.9698,-1171.303 1070.9698,-1171.303 1070.9698,-1149.303 931.9698,-1149.303"/>
<text text-anchor="start" x="936.9698" y="-1157.303" font-family="Times,serif" font-size="10.00" fill="#000000">address: STRING</text>
<polygon fill="none" stroke="#000000" points="931.9698,-1127.303 931.9698,-1149.303 1070.9698,-1149.303 1070.9698,-1127.303 931.9698,-1127.303"/>
<text text-anchor="start" x="936.9698" y="-1135.303" font-family="Times,serif" font-size="10.00" fill="#000000">addressZipcode: STRING</text>
<polygon fill="none" stroke="#000000" points="931.9698,-1105.303 931.9698,-1127.303 1070.9698,-1127.303 1070.9698,-1105.303 931.9698,-1105.303"/>
<text text-anchor="start" x="936.9698" y="-1113.303" font-family="Times,serif" font-size="10.00" fill="#000000">addressNumber: STRING</text>
<polygon fill="none" stroke="#000000" points="931.9698,-1083.303 931.9698,-1105.303 1070.9698,-1105.303 1070.9698,-1083.303 931.9698,-1083.303"/>
<text text-anchor="start" x="936.9698" y="-1091.303" font-family="Times,serif" font-size="10.00" fill="#000000">addressExtra: STRING</text>
<polygon fill="none" stroke="#000000" points="931.9698,-1061.303 931.9698,-1083.303 1070.9698,-1083.303 1070.9698,-1061.303 931.9698,-1061.303"/>
<text text-anchor="start" x="936.9028" y="-1069.303" font-family="Times,serif" font-size="10.00" fill="#000000">addressNeighborhood: STRING</text>
<polygon fill="none" stroke="#000000" points="931.9698,-1039.303 931.9698,-1061.303 1070.9698,-1061.303 1070.9698,-1039.303 931.9698,-1039.303"/>
<text text-anchor="start" x="936.9698" y="-1047.303" font-family="Times,serif" font-size="10.00" fill="#000000">birthdate: DATE</text>
<polygon fill="none" stroke="#000000" points="931.9698,-1017.303 931.9698,-1039.303 1070.9698,-1039.303 1070.9698,-1017.303 931.9698,-1017.303"/>
<text text-anchor="start" x="936.9698" y="-1025.303" font-family="Times,serif" font-size="10.00" fill="#000000">trusted: BOOLEAN</text>
<polygon fill="none" stroke="#000000" points="931.9698,-995.303 931.9698,-1017.303 1070.9698,-1017.303 1070.9698,-995.303 931.9698,-995.303"/>
<text text-anchor="start" x="936.9698" y="-1003.303" font-family="Times,serif" font-size="10.00" fill="#000000">latitude: NUMBER</text>
<polygon fill="none" stroke="#000000" points="931.9698,-973.303 931.9698,-995.303 1070.9698,-995.303 1070.9698,-973.303 931.9698,-973.303"/>
<text text-anchor="start" x="936.9698" y="-981.303" font-family="Times,serif" font-size="10.00" fill="#000000">longitude: NUMBER</text>
<polygon fill="none" stroke="#000000" points="931.9698,-951.303 931.9698,-973.303 1070.9698,-973.303 1070.9698,-951.303 931.9698,-951.303"/>
<text text-anchor="start" x="936.9698" y="-959.303" font-family="Times,serif" font-size="10.00" fill="#000000">obs: TEXT</text>
<polygon fill="none" stroke="#000000" points="931.9698,-929.303 931.9698,-951.303 1070.9698,-951.303 1070.9698,-929.303 931.9698,-929.303"/>
<text text-anchor="start" x="936.9698" y="-937.303" font-family="Times,serif" font-size="10.00" fill="#000000">priority: NUMBER</text>
<polygon fill="none" stroke="#000000" points="931.9698,-907.303 931.9698,-929.303 1070.9698,-929.303 1070.9698,-907.303 931.9698,-907.303"/>
<text text-anchor="start" x="936.9698" y="-915.303" font-family="Times,serif" font-size="10.00" fill="#000000">cityId: NUMBER</text>
<polygon fill="none" stroke="#000000" points="931.9698,-885.303 931.9698,-907.303 1070.9698,-907.303 1070.9698,-885.303 931.9698,-885.303"/>
<text text-anchor="start" x="936.9698" y="-893.303" font-family="Times,serif" font-size="10.00" fill="#000000">personParentId: NUMBER</text>
<polygon fill="none" stroke="#000000" points="931.9698,-863.303 931.9698,-885.303 1070.9698,-885.303 1070.9698,-863.303 931.9698,-863.303"/>
<text text-anchor="start" x="936.9698" y="-871.303" font-family="Times,serif" font-size="10.00" fill="#000000">personTypeId: NUMBER</text>
</g>
<!-- gl_person&#45;&gt;gl_city -->
<g id="edge7" class="edge">
<title>gl_person&#45;&gt;gl_city</title>
<path fill="none" stroke="#000000" stroke-width=".75" d="M925.4535,-1182.3767C829.7254,-1210.3584 667.8336,-1257.68 590.1691,-1280.3816"/>
<polygon fill="#000000" stroke="#000000" stroke-width=".75" points="925.6189,-1182.3285 932.1355,-1183.2366 928.4984,-1181.4867 931.3779,-1180.645 931.3779,-1180.645 931.3779,-1180.645 928.4984,-1181.4867 930.6204,-1178.0534 925.6189,-1182.3285 925.6189,-1182.3285"/>
</g>
<!-- gl_person&#45;&gt;gl_person_type -->
<g id="edge8" class="edge">
<title>gl_person&#45;&gt;gl_person_type</title>
<path fill="none" stroke="#000000" stroke-width=".75" d="M926.9581,-1233.4186C897.0822,-1262.9328 863.6168,-1295.993 837.6825,-1321.6133"/>
<polygon fill="#000000" stroke="#000000" stroke-width=".75" points="927.0702,-1233.3078 933.2362,-1231.0119 929.2045,-1231.1995 931.3387,-1229.0911 931.3387,-1229.0911 931.3387,-1229.0911 929.2045,-1231.1995 929.4411,-1227.1703 927.0702,-1233.3078 927.0702,-1233.3078"/>
</g>
<!-- gl_person_contact -->
<g id="node10" class="node">
<title>gl_person_contact</title>
<polygon fill="#add8e6" stroke="transparent" points="1130.9228,-713.8616 1130.9228,-735.8616 1263.9228,-735.8616 1263.9228,-713.8616 1130.9228,-713.8616"/>
<polygon fill="none" stroke="#000000" points="1130.9228,-713.8616 1130.9228,-735.8616 1263.9228,-735.8616 1263.9228,-713.8616 1130.9228,-713.8616"/>
<text text-anchor="start" x="1160.7673" y="-721.8616" font-family="Times,serif" font-size="10.00" fill="#000000">gl_person_contact</text>
<polygon fill="none" stroke="#000000" points="1130.9228,-691.8616 1130.9228,-713.8616 1263.9228,-713.8616 1263.9228,-691.8616 1130.9228,-691.8616"/>
<text text-anchor="start" x="1135.9228" y="-699.8616" font-family="Times,serif" font-size="10.00" fill="#000000">id: NUMBER</text>
<polygon fill="none" stroke="#000000" points="1130.9228,-669.8616 1130.9228,-691.8616 1263.9228,-691.8616 1263.9228,-669.8616 1130.9228,-669.8616"/>
<text text-anchor="start" x="1135.9228" y="-677.8616" font-family="Times,serif" font-size="10.00" fill="#000000">createdAt: DATE</text>
<polygon fill="none" stroke="#000000" points="1130.9228,-647.8616 1130.9228,-669.8616 1263.9228,-669.8616 1263.9228,-647.8616 1130.9228,-647.8616"/>
<text text-anchor="start" x="1135.9228" y="-655.8616" font-family="Times,serif" font-size="10.00" fill="#000000">updatedAt: DATE</text>
<polygon fill="none" stroke="#000000" points="1130.9228,-625.8616 1130.9228,-647.8616 1263.9228,-647.8616 1263.9228,-625.8616 1130.9228,-625.8616"/>
<text text-anchor="start" x="1135.9228" y="-633.8616" font-family="Times,serif" font-size="10.00" fill="#000000">name: STRING</text>
<polygon fill="none" stroke="#000000" points="1130.9228,-603.8616 1130.9228,-625.8616 1263.9228,-625.8616 1263.9228,-603.8616 1130.9228,-603.8616"/>
<text text-anchor="start" x="1135.9228" y="-611.8616" font-family="Times,serif" font-size="10.00" fill="#000000">phone: STRING</text>
<polygon fill="none" stroke="#000000" points="1130.9228,-581.8616 1130.9228,-603.8616 1263.9228,-603.8616 1263.9228,-581.8616 1130.9228,-581.8616"/>
<text text-anchor="start" x="1135.9228" y="-589.8616" font-family="Times,serif" font-size="10.00" fill="#000000">cellphone: STRING</text>
<polygon fill="none" stroke="#000000" points="1130.9228,-559.8616 1130.9228,-581.8616 1263.9228,-581.8616 1263.9228,-559.8616 1130.9228,-559.8616"/>
<text text-anchor="start" x="1135.9228" y="-567.8616" font-family="Times,serif" font-size="10.00" fill="#000000">email: STRING</text>
<polygon fill="none" stroke="#000000" points="1130.9228,-537.8616 1130.9228,-559.8616 1263.9228,-559.8616 1263.9228,-537.8616 1130.9228,-537.8616"/>
<text text-anchor="start" x="1135.9228" y="-545.8616" font-family="Times,serif" font-size="10.00" fill="#000000">trusted: BOOLEAN</text>
<polygon fill="none" stroke="#000000" points="1130.9228,-515.8616 1130.9228,-537.8616 1263.9228,-537.8616 1263.9228,-515.8616 1130.9228,-515.8616"/>
<text text-anchor="start" x="1135.9228" y="-523.8616" font-family="Times,serif" font-size="10.00" fill="#000000">obs: TEXT</text>
<polygon fill="none" stroke="#000000" points="1130.9228,-493.8616 1130.9228,-515.8616 1263.9228,-515.8616 1263.9228,-493.8616 1130.9228,-493.8616"/>
<text text-anchor="start" x="1135.9228" y="-501.8616" font-family="Times,serif" font-size="10.00" fill="#000000">level: NUMBER</text>
<polygon fill="none" stroke="#000000" points="1130.9228,-471.8616 1130.9228,-493.8616 1263.9228,-493.8616 1263.9228,-471.8616 1130.9228,-471.8616"/>
<text text-anchor="start" x="1135.9228" y="-479.8616" font-family="Times,serif" font-size="10.00" fill="#000000">levelDesc: VIRTUAL</text>
<polygon fill="none" stroke="#000000" points="1130.9228,-449.8616 1130.9228,-471.8616 1263.9228,-471.8616 1263.9228,-449.8616 1130.9228,-449.8616"/>
<text text-anchor="start" x="1135.9228" y="-457.8616" font-family="Times,serif" font-size="10.00" fill="#000000">canEditOrder: BOOLEAN</text>
<polygon fill="none" stroke="#000000" points="1130.9228,-427.8616 1130.9228,-449.8616 1263.9228,-449.8616 1263.9228,-427.8616 1130.9228,-427.8616"/>
<text text-anchor="start" x="1135.9228" y="-435.8616" font-family="Times,serif" font-size="10.00" fill="#000000">extensionNumber: STRING</text>
<polygon fill="none" stroke="#000000" points="1130.9228,-405.8616 1130.9228,-427.8616 1263.9228,-427.8616 1263.9228,-405.8616 1130.9228,-405.8616"/>
<text text-anchor="start" x="1135.9228" y="-413.8616" font-family="Times,serif" font-size="10.00" fill="#000000">positionHeld: STRING</text>
<polygon fill="none" stroke="#000000" points="1130.9228,-383.8616 1130.9228,-405.8616 1263.9228,-405.8616 1263.9228,-383.8616 1130.9228,-383.8616"/>
<text text-anchor="start" x="1135.9228" y="-391.8616" font-family="Times,serif" font-size="10.00" fill="#000000">personId: NUMBER</text>
<polygon fill="none" stroke="#000000" points="1130.9228,-361.8616 1130.9228,-383.8616 1263.9228,-383.8616 1263.9228,-361.8616 1130.9228,-361.8616"/>
<text text-anchor="start" x="1135.6423" y="-369.8616" font-family="Times,serif" font-size="10.00" fill="#000000">personReferenceId: NUMBER</text>
<polygon fill="none" stroke="#000000" points="1130.9228,-339.8616 1130.9228,-361.8616 1263.9228,-361.8616 1263.9228,-339.8616 1130.9228,-339.8616"/>
<text text-anchor="start" x="1135.9228" y="-347.8616" font-family="Times,serif" font-size="10.00" fill="#000000">userId: NUMBER</text>
</g>
<!-- gl_person_contact&#45;&gt;gl_user -->
<g id="edge10" class="edge">
<title>gl_person_contact&#45;&gt;gl_user</title>
<path fill="none" stroke="#000000" stroke-width=".75" d="M1269.4365,-521.7521C1487.4611,-473.3163 2134.3131,-329.613 2334.4475,-285.1515"/>
<polygon fill="#000000" stroke="#000000" stroke-width=".75" points="1269.2824,-521.7863 1262.8396,-520.4519 1266.3538,-522.437 1263.4252,-523.0876 1263.4252,-523.0876 1263.4252,-523.0876 1266.3538,-522.437 1264.0108,-525.7234 1269.2824,-521.7863 1269.2824,-521.7863"/>
</g>
<!-- gl_person_contact&#45;&gt;gl_person -->
<g id="edge9" class="edge">
<title>gl_person_contact&#45;&gt;gl_person</title>
<path fill="none" stroke="#000000" stroke-width=".75" d="M1132.5996,-742.1831C1112.7063,-805.374 1090.706,-875.2577 1070.4784,-939.5102"/>
<polygon fill="#000000" stroke="#000000" stroke-width=".75" points="1132.7163,-741.8123 1137.0935,-736.9 1133.6172,-738.9507 1134.5181,-736.0892 1134.5181,-736.0892 1134.5181,-736.0892 1133.6172,-738.9507 1131.9427,-735.2784 1132.7163,-741.8123 1132.7163,-741.8123"/>
</g>
<!-- gl_field -->
<g id="node11" class="node">
<title>gl_field</title>
<polygon fill="#add8e6" stroke="transparent" points="643.3324,-1025.4025 643.3324,-1047.4025 746.3324,-1047.4025 746.3324,-1025.4025 643.3324,-1025.4025"/>
<polygon fill="none" stroke="#000000" points="643.3324,-1025.4025 643.3324,-1047.4025 746.3324,-1047.4025 746.3324,-1025.4025 643.3324,-1025.4025"/>
<text text-anchor="start" x="679.2799" y="-1033.4025" font-family="Times,serif" font-size="10.00" fill="#000000">gl_field</text>
<polygon fill="none" stroke="#000000" points="643.3324,-1003.4025 643.3324,-1025.4025 746.3324,-1025.4025 746.3324,-1003.4025 643.3324,-1003.4025"/>
<text text-anchor="start" x="648.3324" y="-1011.4025" font-family="Times,serif" font-size="10.00" fill="#000000">id: NUMBER</text>
<polygon fill="none" stroke="#000000" points="643.3324,-981.4025 643.3324,-1003.4025 746.3324,-1003.4025 746.3324,-981.4025 643.3324,-981.4025"/>
<text text-anchor="start" x="648.3324" y="-989.4025" font-family="Times,serif" font-size="10.00" fill="#000000">createdAt: DATE</text>
<polygon fill="none" stroke="#000000" points="643.3324,-959.4025 643.3324,-981.4025 746.3324,-981.4025 746.3324,-959.4025 643.3324,-959.4025"/>
<text text-anchor="start" x="648.3324" y="-967.4025" font-family="Times,serif" font-size="10.00" fill="#000000">updatedAt: DATE</text>
<polygon fill="none" stroke="#000000" points="643.3324,-937.4025 643.3324,-959.4025 746.3324,-959.4025 746.3324,-937.4025 643.3324,-937.4025"/>
<text text-anchor="start" x="648.3324" y="-945.4025" font-family="Times,serif" font-size="10.00" fill="#000000">name: STRING</text>
<polygon fill="none" stroke="#000000" points="643.3324,-915.4025 643.3324,-937.4025 746.3324,-937.4025 746.3324,-915.4025 643.3324,-915.4025"/>
<text text-anchor="start" x="648.3324" y="-923.4025" font-family="Times,serif" font-size="10.00" fill="#000000">destination: STRING</text>
<polygon fill="none" stroke="#000000" points="643.3324,-893.4025 643.3324,-915.4025 746.3324,-915.4025 746.3324,-893.4025 643.3324,-893.4025"/>
<text text-anchor="start" x="648.3324" y="-901.4025" font-family="Times,serif" font-size="10.00" fill="#000000">code: STRING</text>
<polygon fill="none" stroke="#000000" points="643.3324,-871.4025 643.3324,-893.4025 746.3324,-893.4025 746.3324,-871.4025 643.3324,-871.4025"/>
<text text-anchor="start" x="648.3324" y="-879.4025" font-family="Times,serif" font-size="10.00" fill="#000000">type: NUMBER</text>
<polygon fill="none" stroke="#000000" points="643.3324,-849.4025 643.3324,-871.4025 746.3324,-871.4025 746.3324,-849.4025 643.3324,-849.4025"/>
<text text-anchor="start" x="648.3324" y="-857.4025" font-family="Times,serif" font-size="10.00" fill="#000000">typeDesc: VIRTUAL</text>
<polygon fill="none" stroke="#000000" points="643.3324,-827.4025 643.3324,-849.4025 746.3324,-849.4025 746.3324,-827.4025 643.3324,-827.4025"/>
<text text-anchor="start" x="648.3324" y="-835.4025" font-family="Times,serif" font-size="10.00" fill="#000000">order: NUMBER</text>
<polygon fill="none" stroke="#000000" points="643.3324,-805.4025 643.3324,-827.4025 746.3324,-827.4025 746.3324,-805.4025 643.3324,-805.4025"/>
<text text-anchor="start" x="648.3204" y="-813.4025" font-family="Times,serif" font-size="10.00" fill="#000000">defaultValue: STRING</text>
</g>
<!-- gl_field_item -->
<g id="node12" class="node">
<title>gl_field_item</title>
<polygon fill="#add8e6" stroke="transparent" points="634.6932,-1270.0284 634.6932,-1292.0284 731.6932,-1292.0284 731.6932,-1270.0284 634.6932,-1270.0284"/>
<polygon fill="none" stroke="#000000" points="634.6932,-1270.0284 634.6932,-1292.0284 731.6932,-1292.0284 731.6932,-1270.0284 634.6932,-1270.0284"/>
<text text-anchor="start" x="656.2527" y="-1278.0284" font-family="Times,serif" font-size="10.00" fill="#000000">gl_field_item</text>
<polygon fill="none" stroke="#000000" points="634.6932,-1248.0284 634.6932,-1270.0284 731.6932,-1270.0284 731.6932,-1248.0284 634.6932,-1248.0284"/>
<text text-anchor="start" x="639.6932" y="-1256.0284" font-family="Times,serif" font-size="10.00" fill="#000000">id: NUMBER</text>
<polygon fill="none" stroke="#000000" points="634.6932,-1226.0284 634.6932,-1248.0284 731.6932,-1248.0284 731.6932,-1226.0284 634.6932,-1226.0284"/>
<text text-anchor="start" x="639.6932" y="-1234.0284" font-family="Times,serif" font-size="10.00" fill="#000000">createdAt: DATE</text>
<polygon fill="none" stroke="#000000" points="634.6932,-1204.0284 634.6932,-1226.0284 731.6932,-1226.0284 731.6932,-1204.0284 634.6932,-1204.0284"/>
<text text-anchor="start" x="639.6932" y="-1212.0284" font-family="Times,serif" font-size="10.00" fill="#000000">updatedAt: DATE</text>
<polygon fill="none" stroke="#000000" points="634.6932,-1182.0284 634.6932,-1204.0284 731.6932,-1204.0284 731.6932,-1182.0284 634.6932,-1182.0284"/>
<text text-anchor="start" x="639.6932" y="-1190.0284" font-family="Times,serif" font-size="10.00" fill="#000000">name: STRING</text>
<polygon fill="none" stroke="#000000" points="634.6932,-1160.0284 634.6932,-1182.0284 731.6932,-1182.0284 731.6932,-1160.0284 634.6932,-1160.0284"/>
<text text-anchor="start" x="639.6932" y="-1168.0284" font-family="Times,serif" font-size="10.00" fill="#000000">order: NUMBER</text>
<polygon fill="none" stroke="#000000" points="634.6932,-1138.0284 634.6932,-1160.0284 731.6932,-1160.0284 731.6932,-1138.0284 634.6932,-1138.0284"/>
<text text-anchor="start" x="639.4502" y="-1146.0284" font-family="Times,serif" font-size="10.00" fill="#000000">valueString: STRING</text>
<polygon fill="none" stroke="#000000" points="634.6932,-1116.0284 634.6932,-1138.0284 731.6932,-1138.0284 731.6932,-1116.0284 634.6932,-1116.0284"/>
<text text-anchor="start" x="639.6932" y="-1124.0284" font-family="Times,serif" font-size="10.00" fill="#000000">fieldId: NUMBER</text>
</g>
<!-- gl_field_item&#45;&gt;gl_field -->
<g id="edge11" class="edge">
<title>gl_field_item&#45;&gt;gl_field</title>
<path fill="none" stroke="#000000" stroke-width=".75" d="M686.6495,-1109.6607C687.4856,-1089.7163 688.3791,-1068.4033 689.2503,-1047.6247"/>
<polygon fill="#000000" stroke="#000000" stroke-width=".75" points="686.6433,-1109.8096 683.6943,-1115.6912 686.5176,-1112.807 686.3919,-1115.8044 686.3919,-1115.8044 686.3919,-1115.8044 686.5176,-1112.807 689.0895,-1115.9175 686.6433,-1109.8096 686.6433,-1109.8096"/>
</g>
<!-- gl_person_field -->
<g id="node13" class="node">
<title>gl_person_field</title>
<polygon fill="#add8e6" stroke="transparent" points="869.9439,-1185.2953 869.9439,-1207.2953 987.9439,-1207.2953 987.9439,-1185.2953 869.9439,-1185.2953"/>
<polygon fill="none" stroke="#000000" points="869.9439,-1185.2953 869.9439,-1207.2953 987.9439,-1207.2953 987.9439,-1185.2953 869.9439,-1185.2953"/>
<text text-anchor="start" x="897.5629" y="-1193.2953" font-family="Times,serif" font-size="10.00" fill="#000000">gl_person_field</text>
<polygon fill="none" stroke="#000000" points="869.9439,-1163.2953 869.9439,-1185.2953 987.9439,-1185.2953 987.9439,-1163.2953 869.9439,-1163.2953"/>
<text text-anchor="start" x="874.9439" y="-1171.2953" font-family="Times,serif" font-size="10.00" fill="#000000">id: NUMBER</text>
<polygon fill="none" stroke="#000000" points="869.9439,-1141.2953 869.9439,-1163.2953 987.9439,-1163.2953 987.9439,-1141.2953 869.9439,-1141.2953"/>
<text text-anchor="start" x="874.9439" y="-1149.2953" font-family="Times,serif" font-size="10.00" fill="#000000">createdAt: DATE</text>
<polygon fill="none" stroke="#000000" points="869.9439,-1119.2953 869.9439,-1141.2953 987.9439,-1141.2953 987.9439,-1119.2953 869.9439,-1119.2953"/>
<text text-anchor="start" x="874.9439" y="-1127.2953" font-family="Times,serif" font-size="10.00" fill="#000000">updatedAt: DATE</text>
<polygon fill="none" stroke="#000000" points="869.9439,-1097.2953 869.9439,-1119.2953 987.9439,-1119.2953 987.9439,-1097.2953 869.9439,-1097.2953"/>
<text text-anchor="start" x="874.9439" y="-1105.2953" font-family="Times,serif" font-size="10.00" fill="#000000">valueString: STRING</text>
<polygon fill="none" stroke="#000000" points="869.9439,-1075.2953 869.9439,-1097.2953 987.9439,-1097.2953 987.9439,-1075.2953 869.9439,-1075.2953"/>
<text text-anchor="start" x="874.9439" y="-1083.2953" font-family="Times,serif" font-size="10.00" fill="#000000">valueInt: NUMBER</text>
<polygon fill="none" stroke="#000000" points="869.9439,-1053.2953 869.9439,-1075.2953 987.9439,-1075.2953 987.9439,-1053.2953 869.9439,-1053.2953"/>
<text text-anchor="start" x="874.9439" y="-1061.2953" font-family="Times,serif" font-size="10.00" fill="#000000">valueDouble: NUMBER</text>
<polygon fill="none" stroke="#000000" points="869.9439,-1031.2953 869.9439,-1053.2953 987.9439,-1053.2953 987.9439,-1031.2953 869.9439,-1031.2953"/>
<text text-anchor="start" x="874.9314" y="-1039.2953" font-family="Times,serif" font-size="10.00" fill="#000000">valueBoolean: BOOLEAN</text>
<polygon fill="none" stroke="#000000" points="869.9439,-1009.2953 869.9439,-1031.2953 987.9439,-1031.2953 987.9439,-1009.2953 869.9439,-1009.2953"/>
<text text-anchor="start" x="874.9439" y="-1017.2953" font-family="Times,serif" font-size="10.00" fill="#000000">valueSearch: STRING</text>
<polygon fill="none" stroke="#000000" points="869.9439,-987.2953 869.9439,-1009.2953 987.9439,-1009.2953 987.9439,-987.2953 869.9439,-987.2953"/>
<text text-anchor="start" x="874.9439" y="-995.2953" font-family="Times,serif" font-size="10.00" fill="#000000">fieldId: NUMBER</text>
<polygon fill="none" stroke="#000000" points="869.9439,-965.2953 869.9439,-987.2953 987.9439,-987.2953 987.9439,-965.2953 869.9439,-965.2953"/>
<text text-anchor="start" x="874.9439" y="-973.2953" font-family="Times,serif" font-size="10.00" fill="#000000">fieldItemId: NUMBER</text>
<polygon fill="none" stroke="#000000" points="869.9439,-943.2953 869.9439,-965.2953 987.9439,-965.2953 987.9439,-943.2953 869.9439,-943.2953"/>
<text text-anchor="start" x="874.9439" y="-951.2953" font-family="Times,serif" font-size="10.00" fill="#000000">personId: NUMBER</text>
</g>
<!-- gl_person_field&#45;&gt;gl_person -->
<g id="edge14" class="edge">
<title>gl_person_field&#45;&gt;gl_person</title>
<path fill="none" stroke="#000000" stroke-width=".75" d="M988.2718,-1145.3163C988.3312,-1145.3864 988.3905,-1145.4564 988.4496,-1145.5262"/>
<polygon fill="#000000" stroke="#000000" stroke-width=".75" points="991.9725,-1149.6836 990.1533,-1143.3596 990.0328,-1147.3945 988.093,-1145.1053 988.093,-1145.1053 988.093,-1145.1053 990.0328,-1147.3945 986.0328,-1146.8511 991.9725,-1149.6836 991.9725,-1149.6836"/>
</g>
<!-- gl_person_field&#45;&gt;gl_field -->
<g id="edge12" class="edge">
<title>gl_person_field&#45;&gt;gl_field</title>
<path fill="none" stroke="#000000" stroke-width=".75" d="M864.3075,-1034.2748C827.0205,-1010.6111 780.7734,-981.261 745.9368,-959.1525"/>
<polygon fill="#000000" stroke="#000000" stroke-width=".75" points="864.6755,-1034.5083 868.2947,-1040.003 867.2085,-1036.1158 869.7415,-1037.7233 869.7415,-1037.7233 869.7415,-1037.7233 867.2085,-1036.1158 871.1883,-1035.4437 864.6755,-1034.5083 864.6755,-1034.5083"/>
</g>
<!-- gl_person_field&#45;&gt;gl_field_item -->
<g id="edge13" class="edge">
<title>gl_person_field&#45;&gt;gl_field_item</title>
<path fill="none" stroke="#000000" stroke-width=".75" d="M864.1243,-1109.1812C822.5857,-1130.8964 769.5352,-1158.6298 731.5462,-1178.4894"/>
<polygon fill="#000000" stroke="#000000" stroke-width=".75" points="864.3301,-1109.0737 870.8982,-1108.6867 866.9887,-1107.6838 869.6473,-1106.2939 869.6473,-1106.2939 869.6473,-1106.2939 866.9887,-1107.6838 868.3964,-1103.9011 864.3301,-1109.0737 864.3301,-1109.0737"/>
</g>
<!-- gl_unit -->
<g id="node14" class="node">
<title>gl_unit</title>
<polygon fill="#add8e6" stroke="transparent" points="2413.9435,-1988.6182 2413.9435,-2010.6182 2519.9435,-2010.6182 2519.9435,-1988.6182 2413.9435,-1988.6182"/>
<polygon fill="none" stroke="#000000" points="2413.9435,-1988.6182 2413.9435,-2010.6182 2519.9435,-2010.6182 2519.9435,-1988.6182 2413.9435,-1988.6182"/>
<text text-anchor="start" x="2452.775" y="-1996.6182" font-family="Times,serif" font-size="10.00" fill="#000000">gl_unit</text>
<polygon fill="none" stroke="#000000" points="2413.9435,-1966.6182 2413.9435,-1988.6182 2519.9435,-1988.6182 2519.9435,-1966.6182 2413.9435,-1966.6182"/>
<text text-anchor="start" x="2418.9435" y="-1974.6182" font-family="Times,serif" font-size="10.00" fill="#000000">id: NUMBER</text>
<polygon fill="none" stroke="#000000" points="2413.9435,-1944.6182 2413.9435,-1966.6182 2519.9435,-1966.6182 2519.9435,-1944.6182 2413.9435,-1944.6182"/>
<text text-anchor="start" x="2418.9435" y="-1952.6182" font-family="Times,serif" font-size="10.00" fill="#000000">createdAt: DATE</text>
<polygon fill="none" stroke="#000000" points="2413.9435,-1922.6182 2413.9435,-1944.6182 2519.9435,-1944.6182 2519.9435,-1922.6182 2413.9435,-1922.6182"/>
<text text-anchor="start" x="2418.9435" y="-1930.6182" font-family="Times,serif" font-size="10.00" fill="#000000">updatedAt: DATE</text>
<polygon fill="none" stroke="#000000" points="2413.9435,-1900.6182 2413.9435,-1922.6182 2519.9435,-1922.6182 2519.9435,-1900.6182 2413.9435,-1900.6182"/>
<text text-anchor="start" x="2418.9435" y="-1908.6182" font-family="Times,serif" font-size="10.00" fill="#000000">name: STRING</text>
<polygon fill="none" stroke="#000000" points="2413.9435,-1878.6182 2413.9435,-1900.6182 2519.9435,-1900.6182 2519.9435,-1878.6182 2413.9435,-1878.6182"/>
<text text-anchor="start" x="2418.481" y="-1886.6182" font-family="Times,serif" font-size="10.00" fill="#000000">nameSingular: STRING</text>
<polygon fill="none" stroke="#000000" points="2413.9435,-1856.6182 2413.9435,-1878.6182 2519.9435,-1878.6182 2519.9435,-1856.6182 2413.9435,-1856.6182"/>
<text text-anchor="start" x="2418.9435" y="-1864.6182" font-family="Times,serif" font-size="10.00" fill="#000000">namePlural: STRING</text>
<polygon fill="none" stroke="#000000" points="2413.9435,-1834.6182 2413.9435,-1856.6182 2519.9435,-1856.6182 2519.9435,-1834.6182 2413.9435,-1834.6182"/>
<text text-anchor="start" x="2418.9435" y="-1842.6182" font-family="Times,serif" font-size="10.00" fill="#000000">unit: STRING</text>
</g>
<!-- gl_product -->
<g id="node15" class="node">
<title>gl_product</title>
<polygon fill="#add8e6" stroke="transparent" points="1759.917,-2174.1387 1759.917,-2196.1387 1899.917,-2196.1387 1899.917,-2174.1387 1759.917,-2174.1387"/>
<polygon fill="none" stroke="#000000" points="1759.917,-2174.1387 1759.917,-2196.1387 1899.917,-2196.1387 1899.917,-2174.1387 1759.917,-2174.1387"/>
<text text-anchor="start" x="1808.254" y="-2182.1387" font-family="Times,serif" font-size="10.00" fill="#000000">gl_product</text>
<polygon fill="none" stroke="#000000" points="1759.917,-2152.1387 1759.917,-2174.1387 1899.917,-2174.1387 1899.917,-2152.1387 1759.917,-2152.1387"/>
<text text-anchor="start" x="1764.917" y="-2160.1387" font-family="Times,serif" font-size="10.00" fill="#000000">id: NUMBER</text>
<polygon fill="none" stroke="#000000" points="1759.917,-2130.1387 1759.917,-2152.1387 1899.917,-2152.1387 1899.917,-2130.1387 1759.917,-2130.1387"/>
<text text-anchor="start" x="1764.917" y="-2138.1387" font-family="Times,serif" font-size="10.00" fill="#000000">createdAt: DATE</text>
<polygon fill="none" stroke="#000000" points="1759.917,-2108.1387 1759.917,-2130.1387 1899.917,-2130.1387 1899.917,-2108.1387 1759.917,-2108.1387"/>
<text text-anchor="start" x="1764.917" y="-2116.1387" font-family="Times,serif" font-size="10.00" fill="#000000">updatedAt: DATE</text>
<polygon fill="none" stroke="#000000" points="1759.917,-2086.1387 1759.917,-2108.1387 1899.917,-2108.1387 1899.917,-2086.1387 1759.917,-2086.1387"/>
<text text-anchor="start" x="1764.917" y="-2094.1387" font-family="Times,serif" font-size="10.00" fill="#000000">name: STRING</text>
<polygon fill="none" stroke="#000000" points="1759.917,-2064.1387 1759.917,-2086.1387 1899.917,-2086.1387 1899.917,-2064.1387 1759.917,-2064.1387"/>
<text text-anchor="start" x="1764.917" y="-2072.1387" font-family="Times,serif" font-size="10.00" fill="#000000">description: STRING</text>
<polygon fill="none" stroke="#000000" points="1759.917,-2042.1387 1759.917,-2064.1387 1899.917,-2064.1387 1899.917,-2042.1387 1759.917,-2042.1387"/>
<text text-anchor="start" x="1764.917" y="-2050.1387" font-family="Times,serif" font-size="10.00" fill="#000000">eanCode: STRING</text>
<polygon fill="none" stroke="#000000" points="1759.917,-2020.1387 1759.917,-2042.1387 1899.917,-2042.1387 1899.917,-2020.1387 1759.917,-2020.1387"/>
<text text-anchor="start" x="1764.917" y="-2028.1387" font-family="Times,serif" font-size="10.00" fill="#000000">healthCode: STRING</text>
<polygon fill="none" stroke="#000000" points="1759.917,-1998.1387 1759.917,-2020.1387 1899.917,-2020.1387 1899.917,-1998.1387 1759.917,-1998.1387"/>
<text text-anchor="start" x="1764.7975" y="-2006.1387" font-family="Times,serif" font-size="10.00" fill="#000000">requestFormActive: BOOLEAN</text>
<polygon fill="none" stroke="#000000" points="1759.917,-1976.1387 1759.917,-1998.1387 1899.917,-1998.1387 1899.917,-1976.1387 1759.917,-1976.1387"/>
<text text-anchor="start" x="1764.917" y="-1984.1387" font-family="Times,serif" font-size="10.00" fill="#000000">priority: NUMBER</text>
<polygon fill="none" stroke="#000000" points="1759.917,-1954.1387 1759.917,-1976.1387 1899.917,-1976.1387 1899.917,-1954.1387 1759.917,-1954.1387"/>
<text text-anchor="start" x="1764.917" y="-1962.1387" font-family="Times,serif" font-size="10.00" fill="#000000">consumable: BOOLEAN</text>
<polygon fill="none" stroke="#000000" points="1759.917,-1932.1387 1759.917,-1954.1387 1899.917,-1954.1387 1899.917,-1932.1387 1759.917,-1932.1387"/>
<text text-anchor="start" x="1764.917" y="-1940.1387" font-family="Times,serif" font-size="10.00" fill="#000000">unitId: NUMBER</text>
</g>
<!-- gl_product&#45;&gt;gl_unit -->
<g id="edge15" class="edge">
<title>gl_product&#45;&gt;gl_unit</title>
<path fill="none" stroke="#000000" stroke-width=".75" d="M1906.3497,-2047.1586C2037.2539,-2018.0772 2301.1271,-1959.4556 2413.8893,-1934.4046"/>
<polygon fill="#000000" stroke="#000000" stroke-width=".75" points="1906.075,-2047.2195 1899.6323,-2045.8851 1903.1464,-2047.8702 1900.2178,-2048.5208 1900.2178,-2048.5208 1900.2178,-2048.5208 1903.1464,-2047.8702 1900.8034,-2051.1566 1906.075,-2047.2195 1906.075,-2047.2195"/>
</g>
<!-- sy_session -->
<g id="node16" class="node">
<title>sy_session</title>
<polygon fill="#add8e6" stroke="transparent" points="1551.7184,-1251.9137 1551.7184,-1273.9137 1627.7184,-1273.9137 1627.7184,-1251.9137 1551.7184,-1251.9137"/>
<polygon fill="none" stroke="#000000" points="1551.7184,-1251.9137 1551.7184,-1273.9137 1627.7184,-1273.9137 1627.7184,-1251.9137 1551.7184,-1251.9137"/>
<text text-anchor="start" x="1568.3314" y="-1259.9137" font-family="Times,serif" font-size="10.00" fill="#000000">sy_session</text>
<polygon fill="none" stroke="#000000" points="1551.7184,-1229.9137 1551.7184,-1251.9137 1627.7184,-1251.9137 1627.7184,-1229.9137 1551.7184,-1229.9137"/>
<text text-anchor="start" x="1556.7184" y="-1237.9137" font-family="Times,serif" font-size="10.00" fill="#000000">sid: STRING</text>
<polygon fill="none" stroke="#000000" points="1551.7184,-1207.9137 1551.7184,-1229.9137 1627.7184,-1229.9137 1627.7184,-1207.9137 1551.7184,-1207.9137"/>
<text text-anchor="start" x="1556.5339" y="-1215.9137" font-family="Times,serif" font-size="10.00" fill="#000000">userId: STRING</text>
<polygon fill="none" stroke="#000000" points="1551.7184,-1185.9137 1551.7184,-1207.9137 1627.7184,-1207.9137 1627.7184,-1185.9137 1551.7184,-1185.9137"/>
<text text-anchor="start" x="1556.7184" y="-1193.9137" font-family="Times,serif" font-size="10.00" fill="#000000">expires: DATE</text>
<polygon fill="none" stroke="#000000" points="1551.7184,-1163.9137 1551.7184,-1185.9137 1627.7184,-1185.9137 1627.7184,-1163.9137 1551.7184,-1163.9137"/>
<text text-anchor="start" x="1556.7184" y="-1171.9137" font-family="Times,serif" font-size="10.00" fill="#000000">data: STRING</text>
</g>
<!-- or_order -->
<g id="node17" class="node">
<title>or_order</title>
<polygon fill="#add8e6" stroke="transparent" points="1658.129,-352 1658.129,-374 1836.129,-374 1836.129,-352 1658.129,-352"/>
<polygon fill="none" stroke="#000000" points="1658.129,-352 1658.129,-374 1836.129,-374 1836.129,-352 1658.129,-352"/>
<text text-anchor="start" x="1729.916" y="-360" font-family="Times,serif" font-size="10.00" fill="#000000">or_order</text>
<polygon fill="none" stroke="#000000" points="1658.129,-330 1658.129,-352 1836.129,-352 1836.129,-330 1658.129,-330"/>
<text text-anchor="start" x="1663.129" y="-338" font-family="Times,serif" font-size="10.00" fill="#000000">id: NUMBER</text>
<polygon fill="none" stroke="#000000" points="1658.129,-308 1658.129,-330 1836.129,-330 1836.129,-308 1658.129,-308"/>
<text text-anchor="start" x="1663.129" y="-316" font-family="Times,serif" font-size="10.00" fill="#000000">createdAt: DATE</text>
<polygon fill="none" stroke="#000000" points="1658.129,-286 1658.129,-308 1836.129,-308 1836.129,-286 1658.129,-286"/>
<text text-anchor="start" x="1663.129" y="-294" font-family="Times,serif" font-size="10.00" fill="#000000">updatedAt: DATE</text>
<polygon fill="none" stroke="#000000" points="1658.129,-264 1658.129,-286 1836.129,-286 1836.129,-264 1658.129,-264"/>
<text text-anchor="start" x="1663.129" y="-272" font-family="Times,serif" font-size="10.00" fill="#000000">type: NUMBER</text>
<polygon fill="none" stroke="#000000" points="1658.129,-242 1658.129,-264 1836.129,-264 1836.129,-242 1658.129,-242"/>
<text text-anchor="start" x="1663.129" y="-250" font-family="Times,serif" font-size="10.00" fill="#000000">typeDesc: VIRTUAL</text>
<polygon fill="none" stroke="#000000" points="1658.129,-220 1658.129,-242 1836.129,-242 1836.129,-220 1658.129,-220"/>
<text text-anchor="start" x="1663.129" y="-228" font-family="Times,serif" font-size="10.00" fill="#000000">notes: TEXT</text>
<polygon fill="none" stroke="#000000" points="1658.129,-198 1658.129,-220 1836.129,-220 1836.129,-198 1658.129,-198"/>
<text text-anchor="start" x="1663.129" y="-206" font-family="Times,serif" font-size="10.00" fill="#000000">internalNotes: TEXT</text>
<polygon fill="none" stroke="#000000" points="1658.129,-176 1658.129,-198 1836.129,-198 1836.129,-176 1658.129,-176"/>
<text text-anchor="start" x="1663.129" y="-184" font-family="Times,serif" font-size="10.00" fill="#000000">needsReview: BOOLEAN</text>
<polygon fill="none" stroke="#000000" points="1658.129,-154 1658.129,-176 1836.129,-176 1836.129,-154 1658.129,-154"/>
<text text-anchor="start" x="1663.129" y="-162" font-family="Times,serif" font-size="10.00" fill="#000000">status: NUMBER</text>
<polygon fill="none" stroke="#000000" points="1658.129,-132 1658.129,-154 1836.129,-154 1836.129,-132 1658.129,-132"/>
<text text-anchor="start" x="1663.129" y="-140" font-family="Times,serif" font-size="10.00" fill="#000000">statusDesc: VIRTUAL</text>
<polygon fill="none" stroke="#000000" points="1658.129,-110 1658.129,-132 1836.129,-132 1836.129,-110 1658.129,-110"/>
<text text-anchor="start" x="1663.129" y="-118" font-family="Times,serif" font-size="10.00" fill="#000000">expiresIn: DATE</text>
<polygon fill="none" stroke="#000000" points="1658.129,-88 1658.129,-110 1836.129,-110 1836.129,-88 1658.129,-88"/>
<text text-anchor="start" x="1663.129" y="-96" font-family="Times,serif" font-size="10.00" fill="#000000">glUserId: NUMBER</text>
<polygon fill="none" stroke="#000000" points="1658.129,-66 1658.129,-88 1836.129,-88 1836.129,-66 1658.129,-66"/>
<text text-anchor="start" x="1663.129" y="-74" font-family="Times,serif" font-size="10.00" fill="#000000">glPersonOriginId: NUMBER</text>
<polygon fill="none" stroke="#000000" points="1658.129,-44 1658.129,-66 1836.129,-66 1836.129,-44 1658.129,-44"/>
<text text-anchor="start" x="1663.129" y="-52" font-family="Times,serif" font-size="10.00" fill="#000000">glPersonContactOriginId: NUMBER</text>
<polygon fill="none" stroke="#000000" points="1658.129,-22 1658.129,-44 1836.129,-44 1836.129,-22 1658.129,-22"/>
<text text-anchor="start" x="1663.129" y="-30" font-family="Times,serif" font-size="10.00" fill="#000000">glPersonDestinationId: NUMBER</text>
<polygon fill="none" stroke="#000000" points="1658.129,0 1658.129,-22 1836.129,-22 1836.129,0 1658.129,0"/>
<text text-anchor="start" x="1662.837" y="-8" font-family="Times,serif" font-size="10.00" fill="#000000">glPersonContactDestinationId: NUMBER</text>
</g>
<!-- or_order&#45;&gt;gl_user -->
<g id="edge16" class="edge">
<title>or_order&#45;&gt;gl_user</title>
<path fill="none" stroke="#000000" stroke-width=".75" d="M1842.3834,-199.4977C1977.868,-217.2737 2222.2349,-249.3355 2334.6332,-264.0825"/>
<polygon fill="#000000" stroke="#000000" stroke-width=".75" points="1842.363,-199.4951 1836.7653,-196.0374 1839.3885,-199.1048 1836.414,-198.7145 1836.414,-198.7145 1836.414,-198.7145 1839.3885,-199.1048 1836.0627,-201.3915 1842.363,-199.4951 1842.363,-199.4951"/>
</g>
<!-- or_order&#45;&gt;gl_person -->
<g id="edge17" class="edge">
<title>or_order&#45;&gt;gl_person</title>
<path fill="none" stroke="#000000" stroke-width=".75" d="M1654.0903,-308.3614C1502.5064,-506.09 1205.6355,-893.3335 1070.6976,-1069.349"/>
<polygon fill="#000000" stroke="#000000" stroke-width=".75" points="1654.2155,-308.1981 1660.0087,-305.0791 1656.0407,-305.8172 1657.866,-303.4363 1657.866,-303.4363 1657.866,-303.4363 1656.0407,-305.8172 1655.7232,-301.7936 1654.2155,-308.1981 1654.2155,-308.1981"/>
</g>
<!-- or_order&#45;&gt;gl_person_contact -->
<g id="edge18" class="edge">
<title>or_order&#45;&gt;gl_person_contact</title>
<path fill="none" stroke="#000000" stroke-width=".75" d="M1652.895,-247.0922C1542.0961,-317.7477 1361.0029,-433.2292 1263.7235,-495.2634"/>
<polygon fill="#000000" stroke="#000000" stroke-width=".75" points="1653.0585,-246.988 1659.5691,-246.0385 1655.5879,-245.375 1658.1174,-243.7619 1658.1174,-243.7619 1658.1174,-243.7619 1655.5879,-245.375 1656.6657,-241.4854 1653.0585,-246.988 1653.0585,-246.988"/>
</g>
<!-- or_order_consolidated -->
<g id="node18" class="node">
<title>or_order_consolidated</title>
<polygon fill="#add8e6" stroke="transparent" points="1171.9588,-1851.0769 1171.9588,-1873.0769 1329.9588,-1873.0769 1329.9588,-1851.0769 1171.9588,-1851.0769"/>
<polygon fill="none" stroke="#000000" points="1171.9588,-1851.0769 1171.9588,-1873.0769 1329.9588,-1873.0769 1329.9588,-1851.0769 1171.9588,-1851.0769"/>
<text text-anchor="start" x="1205.9743" y="-1859.0769" font-family="Times,serif" font-size="10.00" fill="#000000">or_order_consolidated</text>
<polygon fill="none" stroke="#000000" points="1171.9588,-1829.0769 1171.9588,-1851.0769 1329.9588,-1851.0769 1329.9588,-1829.0769 1171.9588,-1829.0769"/>
<text text-anchor="start" x="1176.9588" y="-1837.0769" font-family="Times,serif" font-size="10.00" fill="#000000">id: NUMBER</text>
<polygon fill="none" stroke="#000000" points="1171.9588,-1807.0769 1171.9588,-1829.0769 1329.9588,-1829.0769 1329.9588,-1807.0769 1171.9588,-1807.0769"/>
<text text-anchor="start" x="1176.9588" y="-1815.0769" font-family="Times,serif" font-size="10.00" fill="#000000">createdAt: DATE</text>
<polygon fill="none" stroke="#000000" points="1171.9588,-1785.0769 1171.9588,-1807.0769 1329.9588,-1807.0769 1329.9588,-1785.0769 1171.9588,-1785.0769"/>
<text text-anchor="start" x="1176.9588" y="-1793.0769" font-family="Times,serif" font-size="10.00" fill="#000000">updatedAt: DATE</text>
<polygon fill="none" stroke="#000000" points="1171.9588,-1763.0769 1171.9588,-1785.0769 1329.9588,-1785.0769 1329.9588,-1763.0769 1171.9588,-1763.0769"/>
<text text-anchor="start" x="1176.9588" y="-1771.0769" font-family="Times,serif" font-size="10.00" fill="#000000">requestQuantity: NUMBER</text>
<polygon fill="none" stroke="#000000" points="1171.9588,-1741.0769 1171.9588,-1763.0769 1329.9588,-1763.0769 1329.9588,-1741.0769 1171.9588,-1741.0769"/>
<text text-anchor="start" x="1176.9588" y="-1749.0769" font-family="Times,serif" font-size="10.00" fill="#000000">supplyReserveQuantity: NUMBER</text>
<polygon fill="none" stroke="#000000" points="1171.9588,-1719.0769 1171.9588,-1741.0769 1329.9588,-1741.0769 1329.9588,-1719.0769 1171.9588,-1719.0769"/>
<text text-anchor="start" x="1176.6638" y="-1727.0769" font-family="Times,serif" font-size="10.00" fill="#000000">supplyTransportQuantity: NUMBER</text>
<polygon fill="none" stroke="#000000" points="1171.9588,-1697.0769 1171.9588,-1719.0769 1329.9588,-1719.0769 1329.9588,-1697.0769 1171.9588,-1697.0769"/>
<text text-anchor="start" x="1176.9588" y="-1705.0769" font-family="Times,serif" font-size="10.00" fill="#000000">glProductId: NUMBER</text>
<polygon fill="none" stroke="#000000" points="1171.9588,-1675.0769 1171.9588,-1697.0769 1329.9588,-1697.0769 1329.9588,-1675.0769 1171.9588,-1675.0769"/>
<text text-anchor="start" x="1176.9588" y="-1683.0769" font-family="Times,serif" font-size="10.00" fill="#000000">glUnitId: NUMBER</text>
<polygon fill="none" stroke="#000000" points="1171.9588,-1653.0769 1171.9588,-1675.0769 1329.9588,-1675.0769 1329.9588,-1653.0769 1171.9588,-1653.0769"/>
<text text-anchor="start" x="1176.9588" y="-1661.0769" font-family="Times,serif" font-size="10.00" fill="#000000">glPersonDestinationId: NUMBER</text>
</g>
<!-- or_order_consolidated&#45;&gt;gl_person -->
<g id="edge21" class="edge">
<title>or_order_consolidated&#45;&gt;gl_person</title>
<path fill="none" stroke="#000000" stroke-width=".75" d="M1202.9154,-1647.2346C1165.3881,-1556.7488 1112.713,-1429.7382 1070.5696,-1328.1221"/>
<polygon fill="#000000" stroke="#000000" stroke-width=".75" points="1202.9538,-1647.3273 1202.7584,-1653.9039 1204.1031,-1650.0984 1205.2524,-1652.8695 1205.2524,-1652.8695 1205.2524,-1652.8695 1204.1031,-1650.0984 1207.7464,-1651.8352 1202.9538,-1647.3273 1202.9538,-1647.3273"/>
</g>
<!-- or_order_consolidated&#45;&gt;gl_unit -->
<g id="edge20" class="edge">
<title>or_order_consolidated&#45;&gt;gl_unit</title>
<path fill="none" stroke="#000000" stroke-width=".75" d="M1336.4286,-1774.2908C1571.5134,-1805.1348 2222.9683,-1890.6078 2413.7801,-1915.643"/>
<polygon fill="#000000" stroke="#000000" stroke-width=".75" points="1336.2229,-1774.2639 1330.6252,-1770.8063 1333.2484,-1773.8736 1330.2739,-1773.4833 1330.2739,-1773.4833 1330.2739,-1773.4833 1333.2484,-1773.8736 1329.9226,-1776.1604 1336.2229,-1774.2639 1336.2229,-1774.2639"/>
</g>
<!-- or_order_consolidated&#45;&gt;gl_product -->
<g id="edge19" class="edge">
<title>or_order_consolidated&#45;&gt;gl_product</title>
<path fill="none" stroke="#000000" stroke-width=".75" d="M1335.6421,-1807.1128C1450.3619,-1866.7677 1653.0456,-1972.1645 1759.7366,-2027.6444"/>
<polygon fill="#000000" stroke="#000000" stroke-width=".75" points="1335.5698,-1807.0752 1331.4922,-1801.9115 1332.9082,-1805.6911 1330.2465,-1804.307 1330.2465,-1804.307 1330.2465,-1804.307 1332.9082,-1805.6911 1329.0008,-1806.7025 1335.5698,-1807.0752 1335.5698,-1807.0752"/>
</g>
<!-- or_order_product -->
<g id="node19" class="node">
<title>or_order_product</title>
<polygon fill="#add8e6" stroke="transparent" points="2811.9666,-1481.7345 2811.9666,-1503.7345 2916.9666,-1503.7345 2916.9666,-1481.7345 2811.9666,-1481.7345"/>
<polygon fill="none" stroke="#000000" points="2811.9666,-1481.7345 2811.9666,-1503.7345 2916.9666,-1503.7345 2916.9666,-1481.7345 2811.9666,-1481.7345"/>
<text text-anchor="start" x="2829.4801" y="-1489.7345" font-family="Times,serif" font-size="10.00" fill="#000000">or_order_product</text>
<polygon fill="none" stroke="#000000" points="2811.9666,-1459.7345 2811.9666,-1481.7345 2916.9666,-1481.7345 2916.9666,-1459.7345 2811.9666,-1459.7345"/>
<text text-anchor="start" x="2816.9666" y="-1467.7345" font-family="Times,serif" font-size="10.00" fill="#000000">id: NUMBER</text>
<polygon fill="none" stroke="#000000" points="2811.9666,-1437.7345 2811.9666,-1459.7345 2916.9666,-1459.7345 2916.9666,-1437.7345 2811.9666,-1437.7345"/>
<text text-anchor="start" x="2816.9666" y="-1445.7345" font-family="Times,serif" font-size="10.00" fill="#000000">createdAt: DATE</text>
<polygon fill="none" stroke="#000000" points="2811.9666,-1415.7345 2811.9666,-1437.7345 2916.9666,-1437.7345 2916.9666,-1415.7345 2811.9666,-1415.7345"/>
<text text-anchor="start" x="2816.9666" y="-1423.7345" font-family="Times,serif" font-size="10.00" fill="#000000">updatedAt: DATE</text>
<polygon fill="none" stroke="#000000" points="2811.9666,-1393.7345 2811.9666,-1415.7345 2916.9666,-1415.7345 2916.9666,-1393.7345 2811.9666,-1393.7345"/>
<text text-anchor="start" x="2816.9666" y="-1401.7345" font-family="Times,serif" font-size="10.00" fill="#000000">quantity: NUMBER</text>
<polygon fill="none" stroke="#000000" points="2811.9666,-1371.7345 2811.9666,-1393.7345 2916.9666,-1393.7345 2916.9666,-1371.7345 2811.9666,-1371.7345"/>
<text text-anchor="start" x="2816.9666" y="-1379.7345" font-family="Times,serif" font-size="10.00" fill="#000000">notes: STRING</text>
<polygon fill="none" stroke="#000000" points="2811.9666,-1349.7345 2811.9666,-1371.7345 2916.9666,-1371.7345 2916.9666,-1349.7345 2811.9666,-1349.7345"/>
<text text-anchor="start" x="2816.8331" y="-1357.7345" font-family="Times,serif" font-size="10.00" fill="#000000">glProductId: NUMBER</text>
<polygon fill="none" stroke="#000000" points="2811.9666,-1327.7345 2811.9666,-1349.7345 2916.9666,-1349.7345 2916.9666,-1327.7345 2811.9666,-1327.7345"/>
<text text-anchor="start" x="2816.9666" y="-1335.7345" font-family="Times,serif" font-size="10.00" fill="#000000">glUnitId: NUMBER</text>
<polygon fill="none" stroke="#000000" points="2811.9666,-1305.7345 2811.9666,-1327.7345 2916.9666,-1327.7345 2916.9666,-1305.7345 2811.9666,-1305.7345"/>
<text text-anchor="start" x="2816.9666" y="-1313.7345" font-family="Times,serif" font-size="10.00" fill="#000000">orderId: NUMBER</text>
</g>
<!-- or_order_product&#45;&gt;gl_unit -->
<g id="edge23" class="edge">
<title>or_order_product&#45;&gt;gl_unit</title>
<path fill="none" stroke="#000000" stroke-width=".75" d="M2807.6192,-1478.235C2730.9658,-1578.223 2594.8195,-1755.8146 2519.9442,-1853.4833"/>
<polygon fill="#000000" stroke="#000000" stroke-width=".75" points="2807.7994,-1477.9999 2813.5927,-1474.8809 2809.6246,-1475.619 2811.4499,-1473.2382 2811.4499,-1473.2382 2811.4499,-1473.2382 2809.6246,-1475.619 2809.3071,-1471.5954 2807.7994,-1477.9999 2807.7994,-1477.9999"/>
</g>
<!-- or_order_product&#45;&gt;gl_product -->
<g id="edge22" class="edge">
<title>or_order_product&#45;&gt;gl_product</title>
<path fill="none" stroke="#000000" stroke-width=".75" d="M2806.1233,-1441.6206C2628.7319,-1554.7415 2092.7607,-1896.5256 1899.9585,-2019.4739"/>
<polygon fill="#000000" stroke="#000000" stroke-width=".75" points="2806.2073,-1441.5671 2812.718,-1440.6175 2808.7368,-1439.954 2811.2663,-1438.341 2811.2663,-1438.341 2811.2663,-1438.341 2808.7368,-1439.954 2809.8145,-1436.0645 2806.2073,-1441.5671 2806.2073,-1441.5671"/>
</g>
<!-- or_order_product&#45;&gt;or_order -->
<g id="edge24" class="edge">
<title>or_order_product&#45;&gt;or_order</title>
<path fill="none" stroke="#000000" stroke-width=".75" d="M2806.9996,-1342.621C2625.0926,-1144.2802 2057.202,-525.0855 1836.298,-284.2247"/>
<polygon fill="#000000" stroke="#000000" stroke-width=".75" points="2807.1689,-1342.8056 2809.2346,-1349.0525 2809.1967,-1345.0166 2811.2244,-1347.2275 2811.2244,-1347.2275 2811.2244,-1347.2275 2809.1967,-1345.0166 2813.2143,-1345.4026 2807.1689,-1342.8056 2807.1689,-1342.8056"/>
</g>
<!-- or_order_history -->
<g id="node20" class="node">
<title>or_order_history</title>
<polygon fill="#add8e6" stroke="transparent" points="2788.2146,-829.8111 2788.2146,-851.8111 2883.2146,-851.8111 2883.2146,-829.8111 2788.2146,-829.8111"/>
<polygon fill="none" stroke="#000000" points="2788.2146,-829.8111 2788.2146,-851.8111 2883.2146,-851.8111 2883.2146,-829.8111 2788.2146,-829.8111"/>
<text text-anchor="start" x="2802.1136" y="-837.8111" font-family="Times,serif" font-size="10.00" fill="#000000">or_order_history</text>
<polygon fill="none" stroke="#000000" points="2788.2146,-807.8111 2788.2146,-829.8111 2883.2146,-829.8111 2883.2146,-807.8111 2788.2146,-807.8111"/>
<text text-anchor="start" x="2793.2146" y="-815.8111" font-family="Times,serif" font-size="10.00" fill="#000000">id: NUMBER</text>
<polygon fill="none" stroke="#000000" points="2788.2146,-785.8111 2788.2146,-807.8111 2883.2146,-807.8111 2883.2146,-785.8111 2788.2146,-785.8111"/>
<text text-anchor="start" x="2793.2146" y="-793.8111" font-family="Times,serif" font-size="10.00" fill="#000000">createdAt: DATE</text>
<polygon fill="none" stroke="#000000" points="2788.2146,-763.8111 2788.2146,-785.8111 2883.2146,-785.8111 2883.2146,-763.8111 2788.2146,-763.8111"/>
<text text-anchor="start" x="2793.2146" y="-771.8111" font-family="Times,serif" font-size="10.00" fill="#000000">updatedAt: DATE</text>
<polygon fill="none" stroke="#000000" points="2788.2146,-741.8111 2788.2146,-763.8111 2883.2146,-763.8111 2883.2146,-741.8111 2788.2146,-741.8111"/>
<text text-anchor="start" x="2793.0761" y="-749.8111" font-family="Times,serif" font-size="10.00" fill="#000000">oldStatus: NUMBER</text>
<polygon fill="none" stroke="#000000" points="2788.2146,-719.8111 2788.2146,-741.8111 2883.2146,-741.8111 2883.2146,-719.8111 2788.2146,-719.8111"/>
<text text-anchor="start" x="2793.2146" y="-727.8111" font-family="Times,serif" font-size="10.00" fill="#000000">oldType: NUMBER</text>
<polygon fill="none" stroke="#000000" points="2788.2146,-697.8111 2788.2146,-719.8111 2883.2146,-719.8111 2883.2146,-697.8111 2788.2146,-697.8111"/>
<text text-anchor="start" x="2793.2146" y="-705.8111" font-family="Times,serif" font-size="10.00" fill="#000000">changes: STRING</text>
<polygon fill="none" stroke="#000000" points="2788.2146,-675.8111 2788.2146,-697.8111 2883.2146,-697.8111 2883.2146,-675.8111 2788.2146,-675.8111"/>
<text text-anchor="start" x="2793.2146" y="-683.8111" font-family="Times,serif" font-size="10.00" fill="#000000">glUserId: NUMBER</text>
<polygon fill="none" stroke="#000000" points="2788.2146,-653.8111 2788.2146,-675.8111 2883.2146,-675.8111 2883.2146,-653.8111 2788.2146,-653.8111"/>
<text text-anchor="start" x="2793.2146" y="-661.8111" font-family="Times,serif" font-size="10.00" fill="#000000">orderId: NUMBER</text>
</g>
<!-- or_order_history&#45;&gt;gl_user -->
<g id="edge25" class="edge">
<title>or_order_history&#45;&gt;gl_user</title>
<path fill="none" stroke="#000000" stroke-width=".75" d="M2783.4919,-696.4157C2701.1856,-606.6737 2540.836,-431.8378 2453.8013,-336.9402"/>
<polygon fill="#000000" stroke="#000000" stroke-width=".75" points="2783.5374,-696.4653 2785.6031,-702.7122 2785.5652,-698.6762 2787.5929,-700.8872 2787.5929,-700.8872 2787.5929,-700.8872 2785.5652,-698.6762 2789.5828,-699.0622 2783.5374,-696.4653 2783.5374,-696.4653"/>
</g>
<!-- or_order_history&#45;&gt;or_order -->
<g id="edge26" class="edge">
<title>or_order_history&#45;&gt;or_order</title>
<path fill="none" stroke="#000000" stroke-width=".75" d="M2781.8709,-725.072C2607.7008,-634.5025 2054.4067,-346.7862 1836.5276,-233.4878"/>
<polygon fill="#000000" stroke="#000000" stroke-width=".75" points="2782.0864,-725.184 2786.164,-730.3477 2784.7481,-726.5681 2787.4097,-727.9522 2787.4097,-727.9522 2787.4097,-727.9522 2784.7481,-726.5681 2788.6554,-725.5567 2782.0864,-725.184 2782.0864,-725.184"/>
</g>
</g>
</svg>
