<?xml version="1.0" encoding="UTF-8" standalone="no"?>
<!DOCTYPE svg PUBLIC "-//W3C//DTD SVG 1.1//EN"
 "http://www.w3.org/Graphics/SVG/1.1/DTD/svg11.dtd">
<!-- Generated by graphviz version 2.40.1 (20161225.0304)
 -->
<!-- Title: models_diagram Pages: 1 -->
<svg width="2289pt" height="2448pt"
 viewBox="0.00 0.00 2289.43 2448.21" xmlns="http://www.w3.org/2000/svg" xmlns:xlink="http://www.w3.org/1999/xlink">
<g id="graph0" class="graph" transform="scale(1 1) rotate(0) translate(36 2412.2141)">
<title>models_diagram</title>
<polygon fill="#ffffff" stroke="transparent" points="-36,36 -36,-2412.2141 2253.4349,-2412.2141 2253.4349,36 -36,36"/>
<!-- gl_country -->
<g id="node1" class="node">
<title>gl_country</title>
<polygon fill="#add8e6" stroke="transparent" points="0,-1093.2141 0,-1115.2141 88,-1115.2141 88,-1093.2141 0,-1093.2141"/>
<polygon fill="none" stroke="#000000" points="0,-1093.2141 0,-1115.2141 88,-1115.2141 88,-1093.2141 0,-1093.2141"/>
<text text-anchor="start" x="22.337" y="-1101.2141" font-family="Times,serif" font-size="10.00" fill="#000000">gl_country</text>
<polygon fill="none" stroke="#000000" points="0,-1071.2141 0,-1093.2141 88,-1093.2141 88,-1071.2141 0,-1071.2141"/>
<text text-anchor="start" x="5" y="-1079.2141" font-family="Times,serif" font-size="10.00" fill="#000000">id: NUMBER</text>
<polygon fill="none" stroke="#000000" points="0,-1049.2141 0,-1071.2141 88,-1071.2141 88,-1049.2141 0,-1049.2141"/>
<text text-anchor="start" x="5" y="-1057.2141" font-family="Times,serif" font-size="10.00" fill="#000000">createdAt: DATE</text>
<polygon fill="none" stroke="#000000" points="0,-1027.2141 0,-1049.2141 88,-1049.2141 88,-1027.2141 0,-1027.2141"/>
<text text-anchor="start" x="5" y="-1035.2141" font-family="Times,serif" font-size="10.00" fill="#000000">updatedAt: DATE</text>
<polygon fill="none" stroke="#000000" points="0,-1005.2141 0,-1027.2141 88,-1027.2141 88,-1005.2141 0,-1005.2141"/>
<text text-anchor="start" x="5" y="-1013.2141" font-family="Times,serif" font-size="10.00" fill="#000000">name: STRING</text>
<polygon fill="none" stroke="#000000" points="0,-983.2141 0,-1005.2141 88,-1005.2141 88,-983.2141 0,-983.2141"/>
<text text-anchor="start" x="5" y="-991.2141" font-family="Times,serif" font-size="10.00" fill="#000000">code: STRING</text>
<polygon fill="none" stroke="#000000" points="0,-961.2141 0,-983.2141 88,-983.2141 88,-961.2141 0,-961.2141"/>
<text text-anchor="start" x="4.976" y="-969.2141" font-family="Times,serif" font-size="10.00" fill="#000000">priority: NUMBER</text>
</g>
<!-- gl_state -->
<g id="node2" class="node">
<title>gl_state</title>
<polygon fill="#add8e6" stroke="transparent" points="233,-1104.2141 233,-1126.2141 329,-1126.2141 329,-1104.2141 233,-1104.2141"/>
<polygon fill="none" stroke="#000000" points="233,-1104.2141 233,-1126.2141 329,-1126.2141 329,-1104.2141 233,-1104.2141"/>
<text text-anchor="start" x="265.448" y="-1112.2141" font-family="Times,serif" font-size="10.00" fill="#000000">gl_state</text>
<polygon fill="none" stroke="#000000" points="233,-1082.2141 233,-1104.2141 329,-1104.2141 329,-1082.2141 233,-1082.2141"/>
<text text-anchor="start" x="238" y="-1090.2141" font-family="Times,serif" font-size="10.00" fill="#000000">id: NUMBER</text>
<polygon fill="none" stroke="#000000" points="233,-1060.2141 233,-1082.2141 329,-1082.2141 329,-1060.2141 233,-1060.2141"/>
<text text-anchor="start" x="238" y="-1068.2141" font-family="Times,serif" font-size="10.00" fill="#000000">createdAt: DATE</text>
<polygon fill="none" stroke="#000000" points="233,-1038.2141 233,-1060.2141 329,-1060.2141 329,-1038.2141 233,-1038.2141"/>
<text text-anchor="start" x="238" y="-1046.2141" font-family="Times,serif" font-size="10.00" fill="#000000">updatedAt: DATE</text>
<polygon fill="none" stroke="#000000" points="233,-1016.2141 233,-1038.2141 329,-1038.2141 329,-1016.2141 233,-1016.2141"/>
<text text-anchor="start" x="238" y="-1024.2141" font-family="Times,serif" font-size="10.00" fill="#000000">name: STRING</text>
<polygon fill="none" stroke="#000000" points="233,-994.2141 233,-1016.2141 329,-1016.2141 329,-994.2141 233,-994.2141"/>
<text text-anchor="start" x="238" y="-1002.2141" font-family="Times,serif" font-size="10.00" fill="#000000">code: STRING</text>
<polygon fill="none" stroke="#000000" points="233,-972.2141 233,-994.2141 329,-994.2141 329,-972.2141 233,-972.2141"/>
<text text-anchor="start" x="238" y="-980.2141" font-family="Times,serif" font-size="10.00" fill="#000000">priority: NUMBER</text>
<polygon fill="none" stroke="#000000" points="233,-950.2141 233,-972.2141 329,-972.2141 329,-950.2141 233,-950.2141"/>
<text text-anchor="start" x="237.5355" y="-958.2141" font-family="Times,serif" font-size="10.00" fill="#000000">countryId: NUMBER</text>
</g>
<!-- gl_state&#45;&gt;gl_country -->
<g id="edge1" class="edge">
<title>gl_state&#45;&gt;gl_country</title>
<path fill="none" stroke="#000000" stroke-width=".75" d="M226.6771,-1038.2141C184.7066,-1038.2141 127.3557,-1038.2141 88.179,-1038.2141"/>
<polygon fill="#000000" stroke="#000000" stroke-width=".75" points="226.7538,-1038.2142 232.7539,-1040.9141 229.7538,-1038.2141 232.7538,-1038.2141 232.7538,-1038.2141 232.7538,-1038.2141 229.7538,-1038.2141 232.7538,-1035.5141 226.7538,-1038.2142 226.7538,-1038.2142"/>
</g>
<!-- gl_city -->
<g id="node3" class="node">
<title>gl_city</title>
<polygon fill="#add8e6" stroke="transparent" points="485,-1104.2141 485,-1126.2141 574,-1126.2141 574,-1104.2141 485,-1104.2141"/>
<polygon fill="none" stroke="#000000" points="485,-1104.2141 485,-1126.2141 574,-1126.2141 574,-1104.2141 485,-1104.2141"/>
<text text-anchor="start" x="515.612" y="-1112.2141" font-family="Times,serif" font-size="10.00" fill="#000000">gl_city</text>
<polygon fill="none" stroke="#000000" points="485,-1082.2141 485,-1104.2141 574,-1104.2141 574,-1082.2141 485,-1082.2141"/>
<text text-anchor="start" x="490" y="-1090.2141" font-family="Times,serif" font-size="10.00" fill="#000000">id: NUMBER</text>
<polygon fill="none" stroke="#000000" points="485,-1060.2141 485,-1082.2141 574,-1082.2141 574,-1060.2141 485,-1060.2141"/>
<text text-anchor="start" x="490" y="-1068.2141" font-family="Times,serif" font-size="10.00" fill="#000000">createdAt: DATE</text>
<polygon fill="none" stroke="#000000" points="485,-1038.2141 485,-1060.2141 574,-1060.2141 574,-1038.2141 485,-1038.2141"/>
<text text-anchor="start" x="490" y="-1046.2141" font-family="Times,serif" font-size="10.00" fill="#000000">updatedAt: DATE</text>
<polygon fill="none" stroke="#000000" points="485,-1016.2141 485,-1038.2141 574,-1038.2141 574,-1016.2141 485,-1016.2141"/>
<text text-anchor="start" x="490" y="-1024.2141" font-family="Times,serif" font-size="10.00" fill="#000000">name: STRING</text>
<polygon fill="none" stroke="#000000" points="485,-994.2141 485,-1016.2141 574,-1016.2141 574,-994.2141 485,-994.2141"/>
<text text-anchor="start" x="489.6455" y="-1002.2141" font-family="Times,serif" font-size="10.00" fill="#000000">ibgeCode: STRING</text>
<polygon fill="none" stroke="#000000" points="485,-972.2141 485,-994.2141 574,-994.2141 574,-972.2141 485,-972.2141"/>
<text text-anchor="start" x="490" y="-980.2141" font-family="Times,serif" font-size="10.00" fill="#000000">priority: NUMBER</text>
<polygon fill="none" stroke="#000000" points="485,-950.2141 485,-972.2141 574,-972.2141 574,-950.2141 485,-950.2141"/>
<text text-anchor="start" x="490" y="-958.2141" font-family="Times,serif" font-size="10.00" fill="#000000">stateId: NUMBER</text>
</g>
<!-- gl_city&#45;&gt;gl_state -->
<g id="edge2" class="edge">
<title>gl_city&#45;&gt;gl_state</title>
<path fill="none" stroke="#000000" stroke-width=".75" d="M478.341,-1038.2141C434.65,-1038.2141 371.9969,-1038.2141 329.0753,-1038.2141"/>
<polygon fill="#000000" stroke="#000000" stroke-width=".75" points="478.3761,-1038.2142 484.3762,-1040.9141 481.3761,-1038.2141 484.3761,-1038.2141 484.3761,-1038.2141 484.3761,-1038.2141 481.3761,-1038.2141 484.3761,-1035.5141 478.3761,-1038.2142 478.3761,-1038.2142"/>
</g>
<!-- gl_field -->
<g id="node4" class="node">
<title>gl_field</title>
<polygon fill="#add8e6" stroke="transparent" points="2114.9349,-220 2114.9349,-242 2217.9349,-242 2217.9349,-220 2114.9349,-220"/>
<polygon fill="none" stroke="#000000" points="2114.9349,-220 2114.9349,-242 2217.9349,-242 2217.9349,-220 2114.9349,-220"/>
<text text-anchor="start" x="2150.8824" y="-228" font-family="Times,serif" font-size="10.00" fill="#000000">gl_field</text>
<polygon fill="none" stroke="#000000" points="2114.9349,-198 2114.9349,-220 2217.9349,-220 2217.9349,-198 2114.9349,-198"/>
<text text-anchor="start" x="2119.9349" y="-206" font-family="Times,serif" font-size="10.00" fill="#000000">id: NUMBER</text>
<polygon fill="none" stroke="#000000" points="2114.9349,-176 2114.9349,-198 2217.9349,-198 2217.9349,-176 2114.9349,-176"/>
<text text-anchor="start" x="2119.9349" y="-184" font-family="Times,serif" font-size="10.00" fill="#000000">createdAt: DATE</text>
<polygon fill="none" stroke="#000000" points="2114.9349,-154 2114.9349,-176 2217.9349,-176 2217.9349,-154 2114.9349,-154"/>
<text text-anchor="start" x="2119.9349" y="-162" font-family="Times,serif" font-size="10.00" fill="#000000">updatedAt: DATE</text>
<polygon fill="none" stroke="#000000" points="2114.9349,-132 2114.9349,-154 2217.9349,-154 2217.9349,-132 2114.9349,-132"/>
<text text-anchor="start" x="2119.9349" y="-140" font-family="Times,serif" font-size="10.00" fill="#000000">name: STRING</text>
<polygon fill="none" stroke="#000000" points="2114.9349,-110 2114.9349,-132 2217.9349,-132 2217.9349,-110 2114.9349,-110"/>
<text text-anchor="start" x="2119.9349" y="-118" font-family="Times,serif" font-size="10.00" fill="#000000">destination: STRING</text>
<polygon fill="none" stroke="#000000" points="2114.9349,-88 2114.9349,-110 2217.9349,-110 2217.9349,-88 2114.9349,-88"/>
<text text-anchor="start" x="2119.9349" y="-96" font-family="Times,serif" font-size="10.00" fill="#000000">code: STRING</text>
<polygon fill="none" stroke="#000000" points="2114.9349,-66 2114.9349,-88 2217.9349,-88 2217.9349,-66 2114.9349,-66"/>
<text text-anchor="start" x="2119.9349" y="-74" font-family="Times,serif" font-size="10.00" fill="#000000">type: NUMBER</text>
<polygon fill="none" stroke="#000000" points="2114.9349,-44 2114.9349,-66 2217.9349,-66 2217.9349,-44 2114.9349,-44"/>
<text text-anchor="start" x="2119.9349" y="-52" font-family="Times,serif" font-size="10.00" fill="#000000">typeDesc: VIRTUAL</text>
<polygon fill="none" stroke="#000000" points="2114.9349,-22 2114.9349,-44 2217.9349,-44 2217.9349,-22 2114.9349,-22"/>
<text text-anchor="start" x="2119.9349" y="-30" font-family="Times,serif" font-size="10.00" fill="#000000">order: NUMBER</text>
<polygon fill="none" stroke="#000000" points="2114.9349,0 2114.9349,-22 2217.9349,-22 2217.9349,0 2114.9349,0"/>
<text text-anchor="start" x="2119.9229" y="-8" font-family="Times,serif" font-size="10.00" fill="#000000">defaultValue: STRING</text>
</g>
<!-- gl_field_item -->
<g id="node5" class="node">
<title>gl_field_item</title>
<polygon fill="#add8e6" stroke="transparent" points="1840.0651,-187 1840.0651,-209 1937.0651,-209 1937.0651,-187 1840.0651,-187"/>
<polygon fill="none" stroke="#000000" points="1840.0651,-187 1840.0651,-209 1937.0651,-209 1937.0651,-187 1840.0651,-187"/>
<text text-anchor="start" x="1861.6246" y="-195" font-family="Times,serif" font-size="10.00" fill="#000000">gl_field_item</text>
<polygon fill="none" stroke="#000000" points="1840.0651,-165 1840.0651,-187 1937.0651,-187 1937.0651,-165 1840.0651,-165"/>
<text text-anchor="start" x="1845.0651" y="-173" font-family="Times,serif" font-size="10.00" fill="#000000">id: NUMBER</text>
<polygon fill="none" stroke="#000000" points="1840.0651,-143 1840.0651,-165 1937.0651,-165 1937.0651,-143 1840.0651,-143"/>
<text text-anchor="start" x="1845.0651" y="-151" font-family="Times,serif" font-size="10.00" fill="#000000">createdAt: DATE</text>
<polygon fill="none" stroke="#000000" points="1840.0651,-121 1840.0651,-143 1937.0651,-143 1937.0651,-121 1840.0651,-121"/>
<text text-anchor="start" x="1845.0651" y="-129" font-family="Times,serif" font-size="10.00" fill="#000000">updatedAt: DATE</text>
<polygon fill="none" stroke="#000000" points="1840.0651,-99 1840.0651,-121 1937.0651,-121 1937.0651,-99 1840.0651,-99"/>
<text text-anchor="start" x="1845.0651" y="-107" font-family="Times,serif" font-size="10.00" fill="#000000">name: STRING</text>
<polygon fill="none" stroke="#000000" points="1840.0651,-77 1840.0651,-99 1937.0651,-99 1937.0651,-77 1840.0651,-77"/>
<text text-anchor="start" x="1845.0651" y="-85" font-family="Times,serif" font-size="10.00" fill="#000000">order: NUMBER</text>
<polygon fill="none" stroke="#000000" points="1840.0651,-55 1840.0651,-77 1937.0651,-77 1937.0651,-55 1840.0651,-55"/>
<text text-anchor="start" x="1844.8221" y="-63" font-family="Times,serif" font-size="10.00" fill="#000000">valueString: STRING</text>
<polygon fill="none" stroke="#000000" points="1840.0651,-33 1840.0651,-55 1937.0651,-55 1937.0651,-33 1840.0651,-33"/>
<text text-anchor="start" x="1845.0651" y="-41" font-family="Times,serif" font-size="10.00" fill="#000000">fieldId: NUMBER</text>
</g>
<!-- gl_field_item&#45;&gt;gl_field -->
<g id="edge3" class="edge">
<title>gl_field_item&#45;&gt;gl_field</title>
<path fill="none" stroke="#000000" stroke-width=".75" d="M1943.0268,-121C1992.6871,-121 2065.2539,-121 2113.9658,-121"/>
<polygon fill="#000000" stroke="#000000" stroke-width=".75" points="1942.7843,-121.0001 1936.7844,-118.3 1939.7843,-121 1936.7843,-121 1936.7843,-121 1936.7843,-121 1939.7843,-121 1936.7843,-123.7 1942.7843,-121.0001 1942.7843,-121.0001"/>
</g>
<!-- gl_person -->
<g id="node6" class="node">
<title>gl_person</title>
<polygon fill="#add8e6" stroke="transparent" points="1958,-1280.2141 1958,-1302.2141 2097,-1302.2141 2097,-1280.2141 1958,-1280.2141"/>
<polygon fill="none" stroke="#000000" points="1958,-1280.2141 1958,-1302.2141 2097,-1302.2141 2097,-1280.2141 1958,-1280.2141"/>
<text text-anchor="start" x="2007.782" y="-1288.2141" font-family="Times,serif" font-size="10.00" fill="#000000">gl_person</text>
<polygon fill="none" stroke="#000000" points="1958,-1258.2141 1958,-1280.2141 2097,-1280.2141 2097,-1258.2141 1958,-1258.2141"/>
<text text-anchor="start" x="1963" y="-1266.2141" font-family="Times,serif" font-size="10.00" fill="#000000">id: NUMBER</text>
<polygon fill="none" stroke="#000000" points="1958,-1236.2141 1958,-1258.2141 2097,-1258.2141 2097,-1236.2141 1958,-1236.2141"/>
<text text-anchor="start" x="1963" y="-1244.2141" font-family="Times,serif" font-size="10.00" fill="#000000">createdAt: DATE</text>
<polygon fill="none" stroke="#000000" points="1958,-1214.2141 1958,-1236.2141 2097,-1236.2141 2097,-1214.2141 1958,-1214.2141"/>
<text text-anchor="start" x="1963" y="-1222.2141" font-family="Times,serif" font-size="10.00" fill="#000000">updatedAt: DATE</text>
<polygon fill="none" stroke="#000000" points="1958,-1192.2141 1958,-1214.2141 2097,-1214.2141 2097,-1192.2141 1958,-1192.2141"/>
<text text-anchor="start" x="1963" y="-1200.2141" font-family="Times,serif" font-size="10.00" fill="#000000">legalType: NUMBER</text>
<polygon fill="none" stroke="#000000" points="1958,-1170.2141 1958,-1192.2141 2097,-1192.2141 2097,-1170.2141 1958,-1170.2141"/>
<text text-anchor="start" x="1963" y="-1178.2141" font-family="Times,serif" font-size="10.00" fill="#000000">legalTypeDesc: VIRTUAL</text>
<polygon fill="none" stroke="#000000" points="1958,-1148.2141 1958,-1170.2141 2097,-1170.2141 2097,-1148.2141 1958,-1148.2141"/>
<text text-anchor="start" x="1963" y="-1156.2141" font-family="Times,serif" font-size="10.00" fill="#000000">legalIdentifierType: STRING</text>
<polygon fill="none" stroke="#000000" points="1958,-1126.2141 1958,-1148.2141 2097,-1148.2141 2097,-1126.2141 1958,-1126.2141"/>
<text text-anchor="start" x="1963" y="-1134.2141" font-family="Times,serif" font-size="10.00" fill="#000000">legalIdentifierCode: STRING</text>
<polygon fill="none" stroke="#000000" points="1958,-1104.2141 1958,-1126.2141 2097,-1126.2141 2097,-1104.2141 1958,-1104.2141"/>
<text text-anchor="start" x="1963" y="-1112.2141" font-family="Times,serif" font-size="10.00" fill="#000000">name: STRING</text>
<polygon fill="none" stroke="#000000" points="1958,-1082.2141 1958,-1104.2141 2097,-1104.2141 2097,-1082.2141 1958,-1082.2141"/>
<text text-anchor="start" x="1963" y="-1090.2141" font-family="Times,serif" font-size="10.00" fill="#000000">shortname: STRING</text>
<polygon fill="none" stroke="#000000" points="1958,-1060.2141 1958,-1082.2141 2097,-1082.2141 2097,-1060.2141 1958,-1060.2141"/>
<text text-anchor="start" x="1963" y="-1068.2141" font-family="Times,serif" font-size="10.00" fill="#000000">phone: STRING</text>
<polygon fill="none" stroke="#000000" points="1958,-1038.2141 1958,-1060.2141 2097,-1060.2141 2097,-1038.2141 1958,-1038.2141"/>
<text text-anchor="start" x="1963" y="-1046.2141" font-family="Times,serif" font-size="10.00" fill="#000000">cellphone: STRING</text>
<polygon fill="none" stroke="#000000" points="1958,-1016.2141 1958,-1038.2141 2097,-1038.2141 2097,-1016.2141 1958,-1016.2141"/>
<text text-anchor="start" x="1963" y="-1024.2141" font-family="Times,serif" font-size="10.00" fill="#000000">email: STRING</text>
<polygon fill="none" stroke="#000000" points="1958,-994.2141 1958,-1016.2141 2097,-1016.2141 2097,-994.2141 1958,-994.2141"/>
<text text-anchor="start" x="1963" y="-1002.2141" font-family="Times,serif" font-size="10.00" fill="#000000">address: STRING</text>
<polygon fill="none" stroke="#000000" points="1958,-972.2141 1958,-994.2141 2097,-994.2141 2097,-972.2141 1958,-972.2141"/>
<text text-anchor="start" x="1963" y="-980.2141" font-family="Times,serif" font-size="10.00" fill="#000000">addressZipcode: STRING</text>
<polygon fill="none" stroke="#000000" points="1958,-950.2141 1958,-972.2141 2097,-972.2141 2097,-950.2141 1958,-950.2141"/>
<text text-anchor="start" x="1963" y="-958.2141" font-family="Times,serif" font-size="10.00" fill="#000000">addressNumber: STRING</text>
<polygon fill="none" stroke="#000000" points="1958,-928.2141 1958,-950.2141 2097,-950.2141 2097,-928.2141 1958,-928.2141"/>
<text text-anchor="start" x="1963" y="-936.2141" font-family="Times,serif" font-size="10.00" fill="#000000">addressExtra: STRING</text>
<polygon fill="none" stroke="#000000" points="1958,-906.2141 1958,-928.2141 2097,-928.2141 2097,-906.2141 1958,-906.2141"/>
<text text-anchor="start" x="1962.933" y="-914.2141" font-family="Times,serif" font-size="10.00" fill="#000000">addressNeighborhood: STRING</text>
<polygon fill="none" stroke="#000000" points="1958,-884.2141 1958,-906.2141 2097,-906.2141 2097,-884.2141 1958,-884.2141"/>
<text text-anchor="start" x="1963" y="-892.2141" font-family="Times,serif" font-size="10.00" fill="#000000">birthdate: DATE</text>
<polygon fill="none" stroke="#000000" points="1958,-862.2141 1958,-884.2141 2097,-884.2141 2097,-862.2141 1958,-862.2141"/>
<text text-anchor="start" x="1963" y="-870.2141" font-family="Times,serif" font-size="10.00" fill="#000000">trusted: BOOLEAN</text>
<polygon fill="none" stroke="#000000" points="1958,-840.2141 1958,-862.2141 2097,-862.2141 2097,-840.2141 1958,-840.2141"/>
<text text-anchor="start" x="1963" y="-848.2141" font-family="Times,serif" font-size="10.00" fill="#000000">latitude: NUMBER</text>
<polygon fill="none" stroke="#000000" points="1958,-818.2141 1958,-840.2141 2097,-840.2141 2097,-818.2141 1958,-818.2141"/>
<text text-anchor="start" x="1963" y="-826.2141" font-family="Times,serif" font-size="10.00" fill="#000000">longitude: NUMBER</text>
<polygon fill="none" stroke="#000000" points="1958,-796.2141 1958,-818.2141 2097,-818.2141 2097,-796.2141 1958,-796.2141"/>
<text text-anchor="start" x="1963" y="-804.2141" font-family="Times,serif" font-size="10.00" fill="#000000">obs: TEXT</text>
<polygon fill="none" stroke="#000000" points="1958,-774.2141 1958,-796.2141 2097,-796.2141 2097,-774.2141 1958,-774.2141"/>
<text text-anchor="start" x="1963" y="-782.2141" font-family="Times,serif" font-size="10.00" fill="#000000">cityId: NUMBER</text>
</g>
<!-- gl_person&#45;&gt;gl_city -->
<g id="edge4" class="edge">
<title>gl_person&#45;&gt;gl_city</title>
<path fill="none" stroke="#000000" stroke-width=".75" d="M1951.0358,-1038.2141C1682.7277,-1038.2141 784.3847,-1038.2141 573.5555,-1038.2141"/>
<polygon fill="#000000" stroke="#000000" stroke-width=".75" points="1951.2559,-1038.2142 1957.256,-1040.9141 1954.2559,-1038.2141 1957.2559,-1038.2141 1957.2559,-1038.2141 1957.2559,-1038.2141 1954.2559,-1038.2141 1957.2559,-1035.5141 1951.2559,-1038.2142 1951.2559,-1038.2142"/>
</g>
<!-- gl_person_field -->
<g id="node7" class="node">
<title>gl_person_field</title>
<polygon fill="#add8e6" stroke="transparent" points="1968,-471.6423 1968,-493.6423 2086,-493.6423 2086,-471.6423 1968,-471.6423"/>
<polygon fill="none" stroke="#000000" points="1968,-471.6423 1968,-493.6423 2086,-493.6423 2086,-471.6423 1968,-471.6423"/>
<text text-anchor="start" x="1995.619" y="-479.6423" font-family="Times,serif" font-size="10.00" fill="#000000">gl_person_field</text>
<polygon fill="none" stroke="#000000" points="1968,-449.6423 1968,-471.6423 2086,-471.6423 2086,-449.6423 1968,-449.6423"/>
<text text-anchor="start" x="1973" y="-457.6423" font-family="Times,serif" font-size="10.00" fill="#000000">id: NUMBER</text>
<polygon fill="none" stroke="#000000" points="1968,-427.6423 1968,-449.6423 2086,-449.6423 2086,-427.6423 1968,-427.6423"/>
<text text-anchor="start" x="1973" y="-435.6423" font-family="Times,serif" font-size="10.00" fill="#000000">createdAt: DATE</text>
<polygon fill="none" stroke="#000000" points="1968,-405.6423 1968,-427.6423 2086,-427.6423 2086,-405.6423 1968,-405.6423"/>
<text text-anchor="start" x="1973" y="-413.6423" font-family="Times,serif" font-size="10.00" fill="#000000">updatedAt: DATE</text>
<polygon fill="none" stroke="#000000" points="1968,-383.6423 1968,-405.6423 2086,-405.6423 2086,-383.6423 1968,-383.6423"/>
<text text-anchor="start" x="1973" y="-391.6423" font-family="Times,serif" font-size="10.00" fill="#000000">valueString: STRING</text>
<polygon fill="none" stroke="#000000" points="1968,-361.6423 1968,-383.6423 2086,-383.6423 2086,-361.6423 1968,-361.6423"/>
<text text-anchor="start" x="1973" y="-369.6423" font-family="Times,serif" font-size="10.00" fill="#000000">valueInt: NUMBER</text>
<polygon fill="none" stroke="#000000" points="1968,-339.6423 1968,-361.6423 2086,-361.6423 2086,-339.6423 1968,-339.6423"/>
<text text-anchor="start" x="1973" y="-347.6423" font-family="Times,serif" font-size="10.00" fill="#000000">valueDouble: NUMBER</text>
<polygon fill="none" stroke="#000000" points="1968,-317.6423 1968,-339.6423 2086,-339.6423 2086,-317.6423 1968,-317.6423"/>
<text text-anchor="start" x="1972.9875" y="-325.6423" font-family="Times,serif" font-size="10.00" fill="#000000">valueBoolean: BOOLEAN</text>
<polygon fill="none" stroke="#000000" points="1968,-295.6423 1968,-317.6423 2086,-317.6423 2086,-295.6423 1968,-295.6423"/>
<text text-anchor="start" x="1973" y="-303.6423" font-family="Times,serif" font-size="10.00" fill="#000000">valueSearch: STRING</text>
<polygon fill="none" stroke="#000000" points="1968,-273.6423 1968,-295.6423 2086,-295.6423 2086,-273.6423 1968,-273.6423"/>
<text text-anchor="start" x="1973" y="-281.6423" font-family="Times,serif" font-size="10.00" fill="#000000">fieldId: NUMBER</text>
<polygon fill="none" stroke="#000000" points="1968,-251.6423 1968,-273.6423 2086,-273.6423 2086,-251.6423 1968,-251.6423"/>
<text text-anchor="start" x="1973" y="-259.6423" font-family="Times,serif" font-size="10.00" fill="#000000">fieldItemId: NUMBER</text>
<polygon fill="none" stroke="#000000" points="1968,-229.6423 1968,-251.6423 2086,-251.6423 2086,-229.6423 1968,-229.6423"/>
<text text-anchor="start" x="1973" y="-237.6423" font-family="Times,serif" font-size="10.00" fill="#000000">personId: NUMBER</text>
</g>
<!-- gl_person_field&#45;&gt;gl_field -->
<g id="edge5" class="edge">
<title>gl_person_field&#45;&gt;gl_field</title>
<path fill="none" stroke="#000000" stroke-width=".75" d="M2089.2084,-253.8941C2097.6049,-239.351 2106.1445,-224.5601 2114.3291,-210.3839"/>
<polygon fill="#000000" stroke="#000000" stroke-width=".75" points="2089.1224,-254.0432 2083.7841,-257.8893 2087.6224,-256.6413 2086.1224,-259.2393 2086.1224,-259.2393 2086.1224,-259.2393 2087.6224,-256.6413 2088.4606,-260.5894 2089.1224,-254.0432 2089.1224,-254.0432"/>
</g>
<!-- gl_person_field&#45;&gt;gl_field_item -->
<g id="edge6" class="edge">
<title>gl_person_field&#45;&gt;gl_field_item</title>
<path fill="none" stroke="#000000" stroke-width=".75" d="M1964.6959,-253.7284C1955.2908,-237.4383 1945.7087,-220.8416 1936.649,-205.1498"/>
<polygon fill="#000000" stroke="#000000" stroke-width=".75" points="1964.8776,-254.0432 1965.5394,-260.5894 1966.3776,-256.6413 1967.8776,-259.2393 1967.8776,-259.2393 1967.8776,-259.2393 1966.3776,-256.6413 1970.2159,-257.8893 1964.8776,-254.0432 1964.8776,-254.0432"/>
</g>
<!-- gl_person_field&#45;&gt;gl_person -->
<g id="edge7" class="edge">
<title>gl_person_field&#45;&gt;gl_person</title>
<path fill="none" stroke="#000000" stroke-width=".75" d="M2027,-499.8238C2027,-578.7983 2027,-680.4879 2027,-774.1834"/>
<polygon fill="#000000" stroke="#000000" stroke-width=".75" points="2027.0001,-499.6983 2029.7,-493.6982 2027,-496.6983 2027,-493.6983 2027,-493.6983 2027,-493.6983 2027,-496.6983 2024.3,-493.6983 2027.0001,-499.6983 2027.0001,-499.6983"/>
</g>
<!-- gl_unity -->
<g id="node8" class="node">
<title>gl_unity</title>
<polygon fill="#add8e6" stroke="transparent" points="1296,-1472.2141 1296,-1494.2141 1402,-1494.2141 1402,-1472.2141 1296,-1472.2141"/>
<polygon fill="none" stroke="#000000" points="1296,-1472.2141 1296,-1494.2141 1402,-1494.2141 1402,-1472.2141 1296,-1472.2141"/>
<text text-anchor="start" x="1332.3315" y="-1480.2141" font-family="Times,serif" font-size="10.00" fill="#000000">gl_unity</text>
<polygon fill="none" stroke="#000000" points="1296,-1450.2141 1296,-1472.2141 1402,-1472.2141 1402,-1450.2141 1296,-1450.2141"/>
<text text-anchor="start" x="1301" y="-1458.2141" font-family="Times,serif" font-size="10.00" fill="#000000">id: NUMBER</text>
<polygon fill="none" stroke="#000000" points="1296,-1428.2141 1296,-1450.2141 1402,-1450.2141 1402,-1428.2141 1296,-1428.2141"/>
<text text-anchor="start" x="1301" y="-1436.2141" font-family="Times,serif" font-size="10.00" fill="#000000">createdAt: DATE</text>
<polygon fill="none" stroke="#000000" points="1296,-1406.2141 1296,-1428.2141 1402,-1428.2141 1402,-1406.2141 1296,-1406.2141"/>
<text text-anchor="start" x="1301" y="-1414.2141" font-family="Times,serif" font-size="10.00" fill="#000000">updatedAt: DATE</text>
<polygon fill="none" stroke="#000000" points="1296,-1384.2141 1296,-1406.2141 1402,-1406.2141 1402,-1384.2141 1296,-1384.2141"/>
<text text-anchor="start" x="1301" y="-1392.2141" font-family="Times,serif" font-size="10.00" fill="#000000">name: STRING</text>
<polygon fill="none" stroke="#000000" points="1296,-1362.2141 1296,-1384.2141 1402,-1384.2141 1402,-1362.2141 1296,-1362.2141"/>
<text text-anchor="start" x="1300.5375" y="-1370.2141" font-family="Times,serif" font-size="10.00" fill="#000000">nameSingular: STRING</text>
<polygon fill="none" stroke="#000000" points="1296,-1340.2141 1296,-1362.2141 1402,-1362.2141 1402,-1340.2141 1296,-1340.2141"/>
<text text-anchor="start" x="1301" y="-1348.2141" font-family="Times,serif" font-size="10.00" fill="#000000">namePlural: STRING</text>
<polygon fill="none" stroke="#000000" points="1296,-1318.2141 1296,-1340.2141 1402,-1340.2141 1402,-1318.2141 1296,-1318.2141"/>
<text text-anchor="start" x="1301" y="-1326.2141" font-family="Times,serif" font-size="10.00" fill="#000000">unity: STRING</text>
</g>
<!-- gl_product -->
<g id="node9" class="node">
<title>gl_product</title>
<polygon fill="#add8e6" stroke="transparent" points="1549,-1494.2141 1549,-1516.2141 1689,-1516.2141 1689,-1494.2141 1549,-1494.2141"/>
<polygon fill="none" stroke="#000000" points="1549,-1494.2141 1549,-1516.2141 1689,-1516.2141 1689,-1494.2141 1549,-1494.2141"/>
<text text-anchor="start" x="1597.337" y="-1502.2141" font-family="Times,serif" font-size="10.00" fill="#000000">gl_product</text>
<polygon fill="none" stroke="#000000" points="1549,-1472.2141 1549,-1494.2141 1689,-1494.2141 1689,-1472.2141 1549,-1472.2141"/>
<text text-anchor="start" x="1554" y="-1480.2141" font-family="Times,serif" font-size="10.00" fill="#000000">id: NUMBER</text>
<polygon fill="none" stroke="#000000" points="1549,-1450.2141 1549,-1472.2141 1689,-1472.2141 1689,-1450.2141 1549,-1450.2141"/>
<text text-anchor="start" x="1554" y="-1458.2141" font-family="Times,serif" font-size="10.00" fill="#000000">createdAt: DATE</text>
<polygon fill="none" stroke="#000000" points="1549,-1428.2141 1549,-1450.2141 1689,-1450.2141 1689,-1428.2141 1549,-1428.2141"/>
<text text-anchor="start" x="1554" y="-1436.2141" font-family="Times,serif" font-size="10.00" fill="#000000">updatedAt: DATE</text>
<polygon fill="none" stroke="#000000" points="1549,-1406.2141 1549,-1428.2141 1689,-1428.2141 1689,-1406.2141 1549,-1406.2141"/>
<text text-anchor="start" x="1554" y="-1414.2141" font-family="Times,serif" font-size="10.00" fill="#000000">name: STRING</text>
<polygon fill="none" stroke="#000000" points="1549,-1384.2141 1549,-1406.2141 1689,-1406.2141 1689,-1384.2141 1549,-1384.2141"/>
<text text-anchor="start" x="1554" y="-1392.2141" font-family="Times,serif" font-size="10.00" fill="#000000">description: STRING</text>
<polygon fill="none" stroke="#000000" points="1549,-1362.2141 1549,-1384.2141 1689,-1384.2141 1689,-1362.2141 1549,-1362.2141"/>
<text text-anchor="start" x="1554" y="-1370.2141" font-family="Times,serif" font-size="10.00" fill="#000000">eanCode: STRING</text>
<polygon fill="none" stroke="#000000" points="1549,-1340.2141 1549,-1362.2141 1689,-1362.2141 1689,-1340.2141 1549,-1340.2141"/>
<text text-anchor="start" x="1554" y="-1348.2141" font-family="Times,serif" font-size="10.00" fill="#000000">healthCode: STRING</text>
<polygon fill="none" stroke="#000000" points="1549,-1318.2141 1549,-1340.2141 1689,-1340.2141 1689,-1318.2141 1549,-1318.2141"/>
<text text-anchor="start" x="1553.8805" y="-1326.2141" font-family="Times,serif" font-size="10.00" fill="#000000">requestFormActive: BOOLEAN</text>
<polygon fill="none" stroke="#000000" points="1549,-1296.2141 1549,-1318.2141 1689,-1318.2141 1689,-1296.2141 1549,-1296.2141"/>
<text text-anchor="start" x="1554" y="-1304.2141" font-family="Times,serif" font-size="10.00" fill="#000000">unityId: NUMBER</text>
</g>
<!-- gl_product&#45;&gt;gl_unity -->
<g id="edge8" class="edge">
<title>gl_product&#45;&gt;gl_unity</title>
<path fill="none" stroke="#000000" stroke-width=".75" d="M1542.5197,-1406.2141C1497.7353,-1406.2141 1442.2969,-1406.2141 1402.2514,-1406.2141"/>
<polygon fill="#000000" stroke="#000000" stroke-width=".75" points="1542.7655,-1406.2142 1548.7656,-1408.9141 1545.7655,-1406.2141 1548.7655,-1406.2141 1548.7655,-1406.2141 1548.7655,-1406.2141 1545.7655,-1406.2141 1548.7655,-1403.5141 1542.7655,-1406.2142 1542.7655,-1406.2142"/>
</g>
<!-- gl_user -->
<g id="node10" class="node">
<title>gl_user</title>
<polygon fill="#add8e6" stroke="transparent" points="1968,-2128.2141 1968,-2150.2141 2087,-2150.2141 2087,-2128.2141 1968,-2128.2141"/>
<polygon fill="none" stroke="#000000" points="1968,-2128.2141 1968,-2150.2141 2087,-2150.2141 2087,-2128.2141 1968,-2128.2141"/>
<text text-anchor="start" x="2012.782" y="-2136.2141" font-family="Times,serif" font-size="10.00" fill="#000000">gl_user</text>
<polygon fill="none" stroke="#000000" points="1968,-2106.2141 1968,-2128.2141 2087,-2128.2141 2087,-2106.2141 1968,-2106.2141"/>
<text text-anchor="start" x="1973" y="-2114.2141" font-family="Times,serif" font-size="10.00" fill="#000000">id: NUMBER</text>
<polygon fill="none" stroke="#000000" points="1968,-2084.2141 1968,-2106.2141 2087,-2106.2141 2087,-2084.2141 1968,-2084.2141"/>
<text text-anchor="start" x="1973" y="-2092.2141" font-family="Times,serif" font-size="10.00" fill="#000000">createdAt: DATE</text>
<polygon fill="none" stroke="#000000" points="1968,-2062.2141 1968,-2084.2141 2087,-2084.2141 2087,-2062.2141 1968,-2062.2141"/>
<text text-anchor="start" x="1973" y="-2070.2141" font-family="Times,serif" font-size="10.00" fill="#000000">updatedAt: DATE</text>
<polygon fill="none" stroke="#000000" points="1968,-2040.2141 1968,-2062.2141 2087,-2062.2141 2087,-2040.2141 1968,-2040.2141"/>
<text text-anchor="start" x="1973" y="-2048.2141" font-family="Times,serif" font-size="10.00" fill="#000000">name: STRING</text>
<polygon fill="none" stroke="#000000" points="1968,-2018.2141 1968,-2040.2141 2087,-2040.2141 2087,-2018.2141 1968,-2018.2141"/>
<text text-anchor="start" x="1973" y="-2026.2141" font-family="Times,serif" font-size="10.00" fill="#000000">nickname: STRING</text>
<polygon fill="none" stroke="#000000" points="1968,-1996.2141 1968,-2018.2141 2087,-2018.2141 2087,-1996.2141 1968,-1996.2141"/>
<text text-anchor="start" x="1973" y="-2004.2141" font-family="Times,serif" font-size="10.00" fill="#000000">email: STRING</text>
<polygon fill="none" stroke="#000000" points="1968,-1974.2141 1968,-1996.2141 2087,-1996.2141 2087,-1974.2141 1968,-1974.2141"/>
<text text-anchor="start" x="1973" y="-1982.2141" font-family="Times,serif" font-size="10.00" fill="#000000">password: STRING</text>
<polygon fill="none" stroke="#000000" points="1968,-1952.2141 1968,-1974.2141 2087,-1974.2141 2087,-1952.2141 1968,-1952.2141"/>
<text text-anchor="start" x="1973" y="-1960.2141" font-family="Times,serif" font-size="10.00" fill="#000000">blocked: BOOLEAN</text>
<polygon fill="none" stroke="#000000" points="1968,-1930.2141 1968,-1952.2141 2087,-1952.2141 2087,-1930.2141 1968,-1930.2141"/>
<text text-anchor="start" x="1973" y="-1938.2141" font-family="Times,serif" font-size="10.00" fill="#000000">level: NUMBER</text>
<polygon fill="none" stroke="#000000" points="1968,-1908.2141 1968,-1930.2141 2087,-1930.2141 2087,-1908.2141 1968,-1908.2141"/>
<text text-anchor="start" x="1973" y="-1916.2141" font-family="Times,serif" font-size="10.00" fill="#000000">levelDesc: VIRTUAL</text>
<polygon fill="none" stroke="#000000" points="1968,-1886.2141 1968,-1908.2141 2087,-1908.2141 2087,-1886.2141 1968,-1886.2141"/>
<text text-anchor="start" x="1973" y="-1894.2141" font-family="Times,serif" font-size="10.00" fill="#000000">levelIsAdmin: VIRTUAL</text>
<polygon fill="none" stroke="#000000" points="1968,-1864.2141 1968,-1886.2141 2087,-1886.2141 2087,-1864.2141 1968,-1864.2141"/>
<text text-anchor="start" x="1973" y="-1872.2141" font-family="Times,serif" font-size="10.00" fill="#000000">levelIsStaff: VIRTUAL</text>
<polygon fill="none" stroke="#000000" points="1968,-1842.2141 1968,-1864.2141 2087,-1864.2141 2087,-1842.2141 1968,-1842.2141"/>
<text text-anchor="start" x="1972.659" y="-1850.2141" font-family="Times,serif" font-size="10.00" fill="#000000">levelIsAccount: VIRTUAL</text>
<polygon fill="none" stroke="#000000" points="1968,-1820.2141 1968,-1842.2141 2087,-1842.2141 2087,-1820.2141 1968,-1820.2141"/>
<text text-anchor="start" x="1973" y="-1828.2141" font-family="Times,serif" font-size="10.00" fill="#000000">loginTryCount: NUMBER</text>
<polygon fill="none" stroke="#000000" points="1968,-1798.2141 1968,-1820.2141 2087,-1820.2141 2087,-1798.2141 1968,-1798.2141"/>
<text text-anchor="start" x="1973" y="-1806.2141" font-family="Times,serif" font-size="10.00" fill="#000000">loginTryWait: DATE</text>
</g>
<!-- gl_person_contact -->
<g id="node11" class="node">
<title>gl_person_contact</title>
<polygon fill="#add8e6" stroke="transparent" points="1948,-1704.2141 1948,-1726.2141 2107,-1726.2141 2107,-1704.2141 1948,-1704.2141"/>
<polygon fill="none" stroke="#000000" points="1948,-1704.2141 1948,-1726.2141 2107,-1726.2141 2107,-1704.2141 1948,-1704.2141"/>
<text text-anchor="start" x="1990.8445" y="-1712.2141" font-family="Times,serif" font-size="10.00" fill="#000000">gl_person_contact</text>
<polygon fill="none" stroke="#000000" points="1948,-1682.2141 1948,-1704.2141 2107,-1704.2141 2107,-1682.2141 1948,-1682.2141"/>
<text text-anchor="start" x="1953" y="-1690.2141" font-family="Times,serif" font-size="10.00" fill="#000000">id: NUMBER</text>
<polygon fill="none" stroke="#000000" points="1948,-1660.2141 1948,-1682.2141 2107,-1682.2141 2107,-1660.2141 1948,-1660.2141"/>
<text text-anchor="start" x="1953" y="-1668.2141" font-family="Times,serif" font-size="10.00" fill="#000000">createdAt: DATE</text>
<polygon fill="none" stroke="#000000" points="1948,-1638.2141 1948,-1660.2141 2107,-1660.2141 2107,-1638.2141 1948,-1638.2141"/>
<text text-anchor="start" x="1953" y="-1646.2141" font-family="Times,serif" font-size="10.00" fill="#000000">updatedAt: DATE</text>
<polygon fill="none" stroke="#000000" points="1948,-1616.2141 1948,-1638.2141 2107,-1638.2141 2107,-1616.2141 1948,-1616.2141"/>
<text text-anchor="start" x="1953" y="-1624.2141" font-family="Times,serif" font-size="10.00" fill="#000000">name: STRING</text>
<polygon fill="none" stroke="#000000" points="1948,-1594.2141 1948,-1616.2141 2107,-1616.2141 2107,-1594.2141 1948,-1594.2141"/>
<text text-anchor="start" x="1953" y="-1602.2141" font-family="Times,serif" font-size="10.00" fill="#000000">phone: STRING</text>
<polygon fill="none" stroke="#000000" points="1948,-1572.2141 1948,-1594.2141 2107,-1594.2141 2107,-1572.2141 1948,-1572.2141"/>
<text text-anchor="start" x="1953" y="-1580.2141" font-family="Times,serif" font-size="10.00" fill="#000000">cellphone: STRING</text>
<polygon fill="none" stroke="#000000" points="1948,-1550.2141 1948,-1572.2141 2107,-1572.2141 2107,-1550.2141 1948,-1550.2141"/>
<text text-anchor="start" x="1953" y="-1558.2141" font-family="Times,serif" font-size="10.00" fill="#000000">email: STRING</text>
<polygon fill="none" stroke="#000000" points="1948,-1528.2141 1948,-1550.2141 2107,-1550.2141 2107,-1528.2141 1948,-1528.2141"/>
<text text-anchor="start" x="1953" y="-1536.2141" font-family="Times,serif" font-size="10.00" fill="#000000">trusted: BOOLEAN</text>
<polygon fill="none" stroke="#000000" points="1948,-1506.2141 1948,-1528.2141 2107,-1528.2141 2107,-1506.2141 1948,-1506.2141"/>
<text text-anchor="start" x="1953" y="-1514.2141" font-family="Times,serif" font-size="10.00" fill="#000000">obs: TEXT</text>
<polygon fill="none" stroke="#000000" points="1948,-1484.2141 1948,-1506.2141 2107,-1506.2141 2107,-1484.2141 1948,-1484.2141"/>
<text text-anchor="start" x="1953" y="-1492.2141" font-family="Times,serif" font-size="10.00" fill="#000000">level: NUMBER</text>
<polygon fill="none" stroke="#000000" points="1948,-1462.2141 1948,-1484.2141 2107,-1484.2141 2107,-1462.2141 1948,-1462.2141"/>
<text text-anchor="start" x="1953" y="-1470.2141" font-family="Times,serif" font-size="10.00" fill="#000000">levelDesc: VIRTUAL</text>
<polygon fill="none" stroke="#000000" points="1948,-1440.2141 1948,-1462.2141 2107,-1462.2141 2107,-1440.2141 1948,-1440.2141"/>
<text text-anchor="start" x="1952.6575" y="-1448.2141" font-family="Times,serif" font-size="10.00" fill="#000000">canRegisterPPERequest: BOOLEAN</text>
<polygon fill="none" stroke="#000000" points="1948,-1418.2141 1948,-1440.2141 2107,-1440.2141 2107,-1418.2141 1948,-1418.2141"/>
<text text-anchor="start" x="1953" y="-1426.2141" font-family="Times,serif" font-size="10.00" fill="#000000">personId: NUMBER</text>
<polygon fill="none" stroke="#000000" points="1948,-1396.2141 1948,-1418.2141 2107,-1418.2141 2107,-1396.2141 1948,-1396.2141"/>
<text text-anchor="start" x="1953" y="-1404.2141" font-family="Times,serif" font-size="10.00" fill="#000000">personReferenceId: NUMBER</text>
<polygon fill="none" stroke="#000000" points="1948,-1374.2141 1948,-1396.2141 2107,-1396.2141 2107,-1374.2141 1948,-1374.2141"/>
<text text-anchor="start" x="1953" y="-1382.2141" font-family="Times,serif" font-size="10.00" fill="#000000">userId: NUMBER</text>
</g>
<!-- gl_person_contact&#45;&gt;gl_person -->
<g id="edge9" class="edge">
<title>gl_person_contact&#45;&gt;gl_person</title>
<path fill="none" stroke="#000000" stroke-width=".75" d="M2027,-1367.7527C2027,-1346.5389 2027,-1324.589 2027,-1302.5565"/>
<polygon fill="#000000" stroke="#000000" stroke-width=".75" points="2027.0001,-1368.0127 2024.3,-1374.0127 2027,-1371.0127 2027,-1374.0127 2027,-1374.0127 2027,-1374.0127 2027,-1371.0127 2029.7,-1374.0128 2027.0001,-1368.0127 2027.0001,-1368.0127"/>
</g>
<!-- gl_person_contact&#45;&gt;gl_user -->
<g id="edge10" class="edge">
<title>gl_person_contact&#45;&gt;gl_user</title>
<path fill="none" stroke="#000000" stroke-width=".75" d="M2027,-1732.4581C2027,-1754.1755 2027,-1776.318 2027,-1797.9493"/>
<polygon fill="#000000" stroke="#000000" stroke-width=".75" points="2027.0001,-1732.3447 2029.7,-1726.3447 2027,-1729.3447 2027,-1726.3447 2027,-1726.3447 2027,-1726.3447 2027,-1729.3447 2024.3,-1726.3448 2027.0001,-1732.3447 2027.0001,-1732.3447"/>
</g>
<!-- gl_user_recover -->
<g id="node12" class="node">
<title>gl_user_recover</title>
<polygon fill="#add8e6" stroke="transparent" points="1980,-2354.2141 1980,-2376.2141 2074,-2376.2141 2074,-2354.2141 1980,-2354.2141"/>
<polygon fill="none" stroke="#000000" points="1980,-2354.2141 1980,-2376.2141 2074,-2376.2141 2074,-2354.2141 1980,-2354.2141"/>
<text text-anchor="start" x="1994.7945" y="-2362.2141" font-family="Times,serif" font-size="10.00" fill="#000000">gl_user_recover</text>
<polygon fill="none" stroke="#000000" points="1980,-2332.2141 1980,-2354.2141 2074,-2354.2141 2074,-2332.2141 1980,-2332.2141"/>
<text text-anchor="start" x="1985" y="-2340.2141" font-family="Times,serif" font-size="10.00" fill="#000000">id: NUMBER</text>
<polygon fill="none" stroke="#000000" points="1980,-2310.2141 1980,-2332.2141 2074,-2332.2141 2074,-2310.2141 1980,-2310.2141"/>
<text text-anchor="start" x="1985" y="-2318.2141" font-family="Times,serif" font-size="10.00" fill="#000000">createdAt: DATE</text>
<polygon fill="none" stroke="#000000" points="1980,-2288.2141 1980,-2310.2141 2074,-2310.2141 2074,-2288.2141 1980,-2288.2141"/>
<text text-anchor="start" x="1985" y="-2296.2141" font-family="Times,serif" font-size="10.00" fill="#000000">updatedAt: DATE</text>
<polygon fill="none" stroke="#000000" points="1980,-2266.2141 1980,-2288.2141 2074,-2288.2141 2074,-2266.2141 1980,-2266.2141"/>
<text text-anchor="start" x="1985" y="-2274.2141" font-family="Times,serif" font-size="10.00" fill="#000000">token: STRING</text>
<polygon fill="none" stroke="#000000" points="1980,-2244.2141 1980,-2266.2141 2074,-2266.2141 2074,-2244.2141 1980,-2244.2141"/>
<text text-anchor="start" x="1984.656" y="-2252.2141" font-family="Times,serif" font-size="10.00" fill="#000000">expiresWhen: DATE</text>
<polygon fill="none" stroke="#000000" points="1980,-2222.2141 1980,-2244.2141 2074,-2244.2141 2074,-2222.2141 1980,-2222.2141"/>
<text text-anchor="start" x="1985" y="-2230.2141" font-family="Times,serif" font-size="10.00" fill="#000000">userId: NUMBER</text>
</g>
<!-- gl_user_recover&#45;&gt;gl_user -->
<g id="edge11" class="edge">
<title>gl_user_recover&#45;&gt;gl_user</title>
<path fill="none" stroke="#000000" stroke-width=".75" d="M2027,-2215.9691C2027,-2195.6801 2027,-2173.2081 2027,-2150.3739"/>
<polygon fill="#000000" stroke="#000000" stroke-width=".75" points="2027.0001,-2216.1936 2024.3,-2222.1936 2027,-2219.1936 2027,-2222.1936 2027,-2222.1936 2027,-2222.1936 2027,-2219.1936 2029.7,-2222.1937 2027.0001,-2216.1936 2027.0001,-2216.1936"/>
</g>
<!-- sy_session -->
<g id="node13" class="node">
<title>sy_session</title>
<polygon fill="#add8e6" stroke="transparent" points="1008,-1384.2141 1008,-1406.2141 1084,-1406.2141 1084,-1384.2141 1008,-1384.2141"/>
<polygon fill="none" stroke="#000000" points="1008,-1384.2141 1008,-1406.2141 1084,-1406.2141 1084,-1384.2141 1008,-1384.2141"/>
<text text-anchor="start" x="1024.613" y="-1392.2141" font-family="Times,serif" font-size="10.00" fill="#000000">sy_session</text>
<polygon fill="none" stroke="#000000" points="1008,-1362.2141 1008,-1384.2141 1084,-1384.2141 1084,-1362.2141 1008,-1362.2141"/>
<text text-anchor="start" x="1013" y="-1370.2141" font-family="Times,serif" font-size="10.00" fill="#000000">sid: STRING</text>
<polygon fill="none" stroke="#000000" points="1008,-1340.2141 1008,-1362.2141 1084,-1362.2141 1084,-1340.2141 1008,-1340.2141"/>
<text text-anchor="start" x="1012.8155" y="-1348.2141" font-family="Times,serif" font-size="10.00" fill="#000000">userId: STRING</text>
<polygon fill="none" stroke="#000000" points="1008,-1318.2141 1008,-1340.2141 1084,-1340.2141 1084,-1318.2141 1008,-1318.2141"/>
<text text-anchor="start" x="1013" y="-1326.2141" font-family="Times,serif" font-size="10.00" fill="#000000">expires: DATE</text>
<polygon fill="none" stroke="#000000" points="1008,-1296.2141 1008,-1318.2141 1084,-1318.2141 1084,-1296.2141 1008,-1296.2141"/>
<text text-anchor="start" x="1013" y="-1304.2141" font-family="Times,serif" font-size="10.00" fill="#000000">data: STRING</text>
</g>
</g>
</svg>
