<?xml version="1.0" encoding="UTF-8" standalone="no"?>
<!DOCTYPE svg PUBLIC "-//W3C//DTD SVG 1.1//EN"
 "http://www.w3.org/Graphics/SVG/1.1/DTD/svg11.dtd">
<!-- Generated by graphviz version 2.40.1 (20161225.0304)
 -->
<!-- Title: models_diagram Pages: 1 -->
<svg width="2843pt" height="2118pt"
 viewBox="0.00 0.00 2842.61 2118.32" xmlns="http://www.w3.org/2000/svg" xmlns:xlink="http://www.w3.org/1999/xlink">
<g id="graph0" class="graph" transform="scale(1 1) rotate(0) translate(36 2082.3245)">
<title>models_diagram</title>
<polygon fill="#ffffff" stroke="transparent" points="-36,36 -36,-2082.3245 2806.6052,-2082.3245 2806.6052,36 -36,36"/>
<!-- gl_country -->
<g id="node1" class="node">
<title>gl_country</title>
<polygon fill="#add8e6" stroke="transparent" points="0,-1145.5525 0,-1167.5525 88,-1167.5525 88,-1145.5525 0,-1145.5525"/>
<polygon fill="none" stroke="#000000" points="0,-1145.5525 0,-1167.5525 88,-1167.5525 88,-1145.5525 0,-1145.5525"/>
<text text-anchor="start" x="22.337" y="-1153.5525" font-family="Times,serif" font-size="10.00" fill="#000000">gl_country</text>
<polygon fill="none" stroke="#000000" points="0,-1123.5525 0,-1145.5525 88,-1145.5525 88,-1123.5525 0,-1123.5525"/>
<text text-anchor="start" x="5" y="-1131.5525" font-family="Times,serif" font-size="10.00" fill="#000000">id: NUMBER</text>
<polygon fill="none" stroke="#000000" points="0,-1101.5525 0,-1123.5525 88,-1123.5525 88,-1101.5525 0,-1101.5525"/>
<text text-anchor="start" x="5" y="-1109.5525" font-family="Times,serif" font-size="10.00" fill="#000000">createdAt: DATE</text>
<polygon fill="none" stroke="#000000" points="0,-1079.5525 0,-1101.5525 88,-1101.5525 88,-1079.5525 0,-1079.5525"/>
<text text-anchor="start" x="5" y="-1087.5525" font-family="Times,serif" font-size="10.00" fill="#000000">updatedAt: DATE</text>
<polygon fill="none" stroke="#000000" points="0,-1057.5525 0,-1079.5525 88,-1079.5525 88,-1057.5525 0,-1057.5525"/>
<text text-anchor="start" x="5" y="-1065.5525" font-family="Times,serif" font-size="10.00" fill="#000000">name: STRING</text>
<polygon fill="none" stroke="#000000" points="0,-1035.5525 0,-1057.5525 88,-1057.5525 88,-1035.5525 0,-1035.5525"/>
<text text-anchor="start" x="5" y="-1043.5525" font-family="Times,serif" font-size="10.00" fill="#000000">code: STRING</text>
<polygon fill="none" stroke="#000000" points="0,-1013.5525 0,-1035.5525 88,-1035.5525 88,-1013.5525 0,-1013.5525"/>
<text text-anchor="start" x="4.976" y="-1021.5525" font-family="Times,serif" font-size="10.00" fill="#000000">priority: NUMBER</text>
</g>
<!-- gl_state -->
<g id="node2" class="node">
<title>gl_state</title>
<polygon fill="#add8e6" stroke="transparent" points="305.4711,-1167.5525 305.4711,-1189.5525 401.4711,-1189.5525 401.4711,-1167.5525 305.4711,-1167.5525"/>
<polygon fill="none" stroke="#000000" points="305.4711,-1167.5525 305.4711,-1189.5525 401.4711,-1189.5525 401.4711,-1167.5525 305.4711,-1167.5525"/>
<text text-anchor="start" x="337.9191" y="-1175.5525" font-family="Times,serif" font-size="10.00" fill="#000000">gl_state</text>
<polygon fill="none" stroke="#000000" points="305.4711,-1145.5525 305.4711,-1167.5525 401.4711,-1167.5525 401.4711,-1145.5525 305.4711,-1145.5525"/>
<text text-anchor="start" x="310.4711" y="-1153.5525" font-family="Times,serif" font-size="10.00" fill="#000000">id: NUMBER</text>
<polygon fill="none" stroke="#000000" points="305.4711,-1123.5525 305.4711,-1145.5525 401.4711,-1145.5525 401.4711,-1123.5525 305.4711,-1123.5525"/>
<text text-anchor="start" x="310.4711" y="-1131.5525" font-family="Times,serif" font-size="10.00" fill="#000000">createdAt: DATE</text>
<polygon fill="none" stroke="#000000" points="305.4711,-1101.5525 305.4711,-1123.5525 401.4711,-1123.5525 401.4711,-1101.5525 305.4711,-1101.5525"/>
<text text-anchor="start" x="310.4711" y="-1109.5525" font-family="Times,serif" font-size="10.00" fill="#000000">updatedAt: DATE</text>
<polygon fill="none" stroke="#000000" points="305.4711,-1079.5525 305.4711,-1101.5525 401.4711,-1101.5525 401.4711,-1079.5525 305.4711,-1079.5525"/>
<text text-anchor="start" x="310.4711" y="-1087.5525" font-family="Times,serif" font-size="10.00" fill="#000000">name: STRING</text>
<polygon fill="none" stroke="#000000" points="305.4711,-1057.5525 305.4711,-1079.5525 401.4711,-1079.5525 401.4711,-1057.5525 305.4711,-1057.5525"/>
<text text-anchor="start" x="310.4711" y="-1065.5525" font-family="Times,serif" font-size="10.00" fill="#000000">code: STRING</text>
<polygon fill="none" stroke="#000000" points="305.4711,-1035.5525 305.4711,-1057.5525 401.4711,-1057.5525 401.4711,-1035.5525 305.4711,-1035.5525"/>
<text text-anchor="start" x="310.4711" y="-1043.5525" font-family="Times,serif" font-size="10.00" fill="#000000">initials: STRING</text>
<polygon fill="none" stroke="#000000" points="305.4711,-1013.5525 305.4711,-1035.5525 401.4711,-1035.5525 401.4711,-1013.5525 305.4711,-1013.5525"/>
<text text-anchor="start" x="310.4711" y="-1021.5525" font-family="Times,serif" font-size="10.00" fill="#000000">priority: NUMBER</text>
<polygon fill="none" stroke="#000000" points="305.4711,-991.5525 305.4711,-1013.5525 401.4711,-1013.5525 401.4711,-991.5525 305.4711,-991.5525"/>
<text text-anchor="start" x="310.0066" y="-999.5525" font-family="Times,serif" font-size="10.00" fill="#000000">countryId: NUMBER</text>
</g>
<!-- gl_state&#45;&gt;gl_country -->
<g id="edge1" class="edge">
<title>gl_state&#45;&gt;gl_country</title>
<path fill="none" stroke="#000000" stroke-width=".75" d="M299.4046,-1090.5525C239.4173,-1090.5525 143.7638,-1090.5525 88.1149,-1090.5525"/>
<polygon fill="#000000" stroke="#000000" stroke-width=".75" points="299.4558,-1090.5526 305.4558,-1093.2525 302.4558,-1090.5526 305.4558,-1090.5525 305.4558,-1090.5525 305.4558,-1090.5525 302.4558,-1090.5526 305.4557,-1087.8525 299.4558,-1090.5526 299.4558,-1090.5526"/>
</g>
<!-- gl_state_region -->
<g id="node3" class="node">
<title>gl_state_region</title>
<polygon fill="#add8e6" stroke="transparent" points="157.8258,-1360.6623 157.8258,-1382.6623 253.8258,-1382.6623 253.8258,-1360.6623 157.8258,-1360.6623"/>
<polygon fill="none" stroke="#000000" points="157.8258,-1360.6623 157.8258,-1382.6623 253.8258,-1382.6623 253.8258,-1360.6623 157.8258,-1360.6623"/>
<text text-anchor="start" x="175.0003" y="-1368.6623" font-family="Times,serif" font-size="10.00" fill="#000000">gl_state_region</text>
<polygon fill="none" stroke="#000000" points="157.8258,-1338.6623 157.8258,-1360.6623 253.8258,-1360.6623 253.8258,-1338.6623 157.8258,-1338.6623"/>
<text text-anchor="start" x="162.8258" y="-1346.6623" font-family="Times,serif" font-size="10.00" fill="#000000">id: NUMBER</text>
<polygon fill="none" stroke="#000000" points="157.8258,-1316.6623 157.8258,-1338.6623 253.8258,-1338.6623 253.8258,-1316.6623 157.8258,-1316.6623"/>
<text text-anchor="start" x="162.8258" y="-1324.6623" font-family="Times,serif" font-size="10.00" fill="#000000">createdAt: DATE</text>
<polygon fill="none" stroke="#000000" points="157.8258,-1294.6623 157.8258,-1316.6623 253.8258,-1316.6623 253.8258,-1294.6623 157.8258,-1294.6623"/>
<text text-anchor="start" x="162.8258" y="-1302.6623" font-family="Times,serif" font-size="10.00" fill="#000000">updatedAt: DATE</text>
<polygon fill="none" stroke="#000000" points="157.8258,-1272.6623 157.8258,-1294.6623 253.8258,-1294.6623 253.8258,-1272.6623 157.8258,-1272.6623"/>
<text text-anchor="start" x="162.8258" y="-1280.6623" font-family="Times,serif" font-size="10.00" fill="#000000">name: STRING</text>
<polygon fill="none" stroke="#000000" points="157.8258,-1250.6623 157.8258,-1272.6623 253.8258,-1272.6623 253.8258,-1250.6623 157.8258,-1250.6623"/>
<text text-anchor="start" x="162.8258" y="-1258.6623" font-family="Times,serif" font-size="10.00" fill="#000000">code: STRING</text>
<polygon fill="none" stroke="#000000" points="157.8258,-1228.6623 157.8258,-1250.6623 253.8258,-1250.6623 253.8258,-1228.6623 157.8258,-1228.6623"/>
<text text-anchor="start" x="162.8258" y="-1236.6623" font-family="Times,serif" font-size="10.00" fill="#000000">type: STRING</text>
<polygon fill="none" stroke="#000000" points="157.8258,-1206.6623 157.8258,-1228.6623 253.8258,-1228.6623 253.8258,-1206.6623 157.8258,-1206.6623"/>
<text text-anchor="start" x="162.6478" y="-1214.6623" font-family="Times,serif" font-size="10.00" fill="#000000">typeDesc: VIRTUAL</text>
<polygon fill="none" stroke="#000000" points="157.8258,-1184.6623 157.8258,-1206.6623 253.8258,-1206.6623 253.8258,-1184.6623 157.8258,-1184.6623"/>
<text text-anchor="start" x="162.8258" y="-1192.6623" font-family="Times,serif" font-size="10.00" fill="#000000">stateId: NUMBER</text>
</g>
<!-- gl_state_region&#45;&gt;gl_state -->
<g id="edge2" class="edge">
<title>gl_state_region&#45;&gt;gl_state</title>
<path fill="none" stroke="#000000" stroke-width=".75" d="M257.6692,-1215.8547C273.1874,-1195.558 290.1313,-1173.3965 305.3962,-1153.4311"/>
<polygon fill="#000000" stroke="#000000" stroke-width=".75" points="257.6104,-1215.9316 251.8212,-1219.0582 255.7882,-1218.3149 253.9661,-1220.6981 253.9661,-1220.6981 253.9661,-1220.6981 255.7882,-1218.3149 256.111,-1222.3381 257.6104,-1215.9316 257.6104,-1215.9316"/>
</g>
<!-- gl_city -->
<g id="node4" class="node">
<title>gl_city</title>
<polygon fill="#add8e6" stroke="transparent" points="502.5808,-1315.1978 502.5808,-1337.1978 590.5808,-1337.1978 590.5808,-1315.1978 502.5808,-1315.1978"/>
<polygon fill="none" stroke="#000000" points="502.5808,-1315.1978 502.5808,-1337.1978 590.5808,-1337.1978 590.5808,-1315.1978 502.5808,-1315.1978"/>
<text text-anchor="start" x="532.6928" y="-1323.1978" font-family="Times,serif" font-size="10.00" fill="#000000">gl_city</text>
<polygon fill="none" stroke="#000000" points="502.5808,-1293.1978 502.5808,-1315.1978 590.5808,-1315.1978 590.5808,-1293.1978 502.5808,-1293.1978"/>
<text text-anchor="start" x="507.5808" y="-1301.1978" font-family="Times,serif" font-size="10.00" fill="#000000">id: NUMBER</text>
<polygon fill="none" stroke="#000000" points="502.5808,-1271.1978 502.5808,-1293.1978 590.5808,-1293.1978 590.5808,-1271.1978 502.5808,-1271.1978"/>
<text text-anchor="start" x="507.5808" y="-1279.1978" font-family="Times,serif" font-size="10.00" fill="#000000">createdAt: DATE</text>
<polygon fill="none" stroke="#000000" points="502.5808,-1249.1978 502.5808,-1271.1978 590.5808,-1271.1978 590.5808,-1249.1978 502.5808,-1249.1978"/>
<text text-anchor="start" x="507.5808" y="-1257.1978" font-family="Times,serif" font-size="10.00" fill="#000000">updatedAt: DATE</text>
<polygon fill="none" stroke="#000000" points="502.5808,-1227.1978 502.5808,-1249.1978 590.5808,-1249.1978 590.5808,-1227.1978 502.5808,-1227.1978"/>
<text text-anchor="start" x="507.5808" y="-1235.1978" font-family="Times,serif" font-size="10.00" fill="#000000">name: STRING</text>
<polygon fill="none" stroke="#000000" points="502.5808,-1205.1978 502.5808,-1227.1978 590.5808,-1227.1978 590.5808,-1205.1978 502.5808,-1205.1978"/>
<text text-anchor="start" x="507.5808" y="-1213.1978" font-family="Times,serif" font-size="10.00" fill="#000000">code: STRING</text>
<polygon fill="none" stroke="#000000" points="502.5808,-1183.1978 502.5808,-1205.1978 590.5808,-1205.1978 590.5808,-1183.1978 502.5808,-1183.1978"/>
<text text-anchor="start" x="507.5808" y="-1191.1978" font-family="Times,serif" font-size="10.00" fill="#000000">initials: STRING</text>
<polygon fill="none" stroke="#000000" points="502.5808,-1161.1978 502.5808,-1183.1978 590.5808,-1183.1978 590.5808,-1161.1978 502.5808,-1161.1978"/>
<text text-anchor="start" x="507.5568" y="-1169.1978" font-family="Times,serif" font-size="10.00" fill="#000000">priority: NUMBER</text>
<polygon fill="none" stroke="#000000" points="502.5808,-1139.1978 502.5808,-1161.1978 590.5808,-1161.1978 590.5808,-1139.1978 502.5808,-1139.1978"/>
<text text-anchor="start" x="507.5808" y="-1147.1978" font-family="Times,serif" font-size="10.00" fill="#000000">stateId: NUMBER</text>
</g>
<!-- gl_city&#45;&gt;gl_state -->
<g id="edge3" class="edge">
<title>gl_city&#45;&gt;gl_state</title>
<path fill="none" stroke="#000000" stroke-width=".75" d="M497.2612,-1200.4897C467.8926,-1178.0354 430.7877,-1149.6663 401.6269,-1127.3709"/>
<polygon fill="#000000" stroke="#000000" stroke-width=".75" points="497.5111,-1200.6807 500.6376,-1206.4699 499.8943,-1202.5029 502.2776,-1204.325 502.2776,-1204.325 502.2776,-1204.325 499.8943,-1202.5029 503.9175,-1202.1801 497.5111,-1200.6807 497.5111,-1200.6807"/>
</g>
<!-- gl_city_state_region -->
<g id="node5" class="node">
<title>gl_city_state_region</title>
<polygon fill="#add8e6" stroke="transparent" points="342.9355,-1486.3076 342.9355,-1508.3076 455.9355,-1508.3076 455.9355,-1486.3076 342.9355,-1486.3076"/>
<polygon fill="none" stroke="#000000" points="342.9355,-1486.3076 342.9355,-1508.3076 455.9355,-1508.3076 455.9355,-1486.3076 342.9355,-1486.3076"/>
<text text-anchor="start" x="358.6115" y="-1494.3076" font-family="Times,serif" font-size="10.00" fill="#000000">gl_city_state_region</text>
<polygon fill="none" stroke="#000000" points="342.9355,-1464.3076 342.9355,-1486.3076 455.9355,-1486.3076 455.9355,-1464.3076 342.9355,-1464.3076"/>
<text text-anchor="start" x="347.9355" y="-1472.3076" font-family="Times,serif" font-size="10.00" fill="#000000">id: NUMBER</text>
<polygon fill="none" stroke="#000000" points="342.9355,-1442.3076 342.9355,-1464.3076 455.9355,-1464.3076 455.9355,-1442.3076 342.9355,-1442.3076"/>
<text text-anchor="start" x="347.9355" y="-1450.3076" font-family="Times,serif" font-size="10.00" fill="#000000">createdAt: DATE</text>
<polygon fill="none" stroke="#000000" points="342.9355,-1420.3076 342.9355,-1442.3076 455.9355,-1442.3076 455.9355,-1420.3076 342.9355,-1420.3076"/>
<text text-anchor="start" x="347.9355" y="-1428.3076" font-family="Times,serif" font-size="10.00" fill="#000000">updatedAt: DATE</text>
<polygon fill="none" stroke="#000000" points="342.9355,-1398.3076 342.9355,-1420.3076 455.9355,-1420.3076 455.9355,-1398.3076 342.9355,-1398.3076"/>
<text text-anchor="start" x="347.9355" y="-1406.3076" font-family="Times,serif" font-size="10.00" fill="#000000">type: STRING</text>
<polygon fill="none" stroke="#000000" points="342.9355,-1376.3076 342.9355,-1398.3076 455.9355,-1398.3076 455.9355,-1376.3076 342.9355,-1376.3076"/>
<text text-anchor="start" x="347.6385" y="-1384.3076" font-family="Times,serif" font-size="10.00" fill="#000000">stateRegionId: NUMBER</text>
<polygon fill="none" stroke="#000000" points="342.9355,-1354.3076 342.9355,-1376.3076 455.9355,-1376.3076 455.9355,-1354.3076 342.9355,-1354.3076"/>
<text text-anchor="start" x="347.9355" y="-1362.3076" font-family="Times,serif" font-size="10.00" fill="#000000">cityId: NUMBER</text>
</g>
<!-- gl_city_state_region&#45;&gt;gl_state_region -->
<g id="edge4" class="edge">
<title>gl_city_state_region&#45;&gt;gl_state_region</title>
<path fill="none" stroke="#000000" stroke-width=".75" d="M337.3174,-1384.1964C310.353,-1363.5803 279.1867,-1339.7516 253.9661,-1320.4687"/>
<polygon fill="#000000" stroke="#000000" stroke-width=".75" points="337.5345,-1384.3624 340.6611,-1390.1516 339.9178,-1386.1846 342.301,-1388.0067 342.301,-1388.0067 342.301,-1388.0067 339.9178,-1386.1846 343.941,-1385.8618 337.5345,-1384.3624 337.5345,-1384.3624"/>
</g>
<!-- gl_city_state_region&#45;&gt;gl_city -->
<g id="edge5" class="edge">
<title>gl_city_state_region&#45;&gt;gl_city</title>
<path fill="none" stroke="#000000" stroke-width=".75" d="M459.2554,-1352.4133C473.7123,-1333.5047 488.8845,-1313.6607 502.4511,-1295.9164"/>
<polygon fill="#000000" stroke="#000000" stroke-width=".75" points="459.2411,-1352.4321 453.4519,-1355.5587 457.419,-1354.8154 455.5968,-1357.1986 455.5968,-1357.1986 455.5968,-1357.1986 457.419,-1354.8154 457.7417,-1358.8385 459.2411,-1352.4321 459.2411,-1352.4321"/>
</g>
<!-- gl_user -->
<g id="node6" class="node">
<title>gl_user</title>
<polygon fill="#add8e6" stroke="transparent" points="1980.289,-376.6937 1980.289,-398.6937 2099.289,-398.6937 2099.289,-376.6937 1980.289,-376.6937"/>
<polygon fill="none" stroke="#000000" points="1980.289,-376.6937 1980.289,-398.6937 2099.289,-398.6937 2099.289,-376.6937 1980.289,-376.6937"/>
<text text-anchor="start" x="2025.071" y="-384.6937" font-family="Times,serif" font-size="10.00" fill="#000000">gl_user</text>
<polygon fill="none" stroke="#000000" points="1980.289,-354.6937 1980.289,-376.6937 2099.289,-376.6937 2099.289,-354.6937 1980.289,-354.6937"/>
<text text-anchor="start" x="1985.289" y="-362.6937" font-family="Times,serif" font-size="10.00" fill="#000000">id: NUMBER</text>
<polygon fill="none" stroke="#000000" points="1980.289,-332.6937 1980.289,-354.6937 2099.289,-354.6937 2099.289,-332.6937 1980.289,-332.6937"/>
<text text-anchor="start" x="1985.289" y="-340.6937" font-family="Times,serif" font-size="10.00" fill="#000000">createdAt: DATE</text>
<polygon fill="none" stroke="#000000" points="1980.289,-310.6937 1980.289,-332.6937 2099.289,-332.6937 2099.289,-310.6937 1980.289,-310.6937"/>
<text text-anchor="start" x="1985.289" y="-318.6937" font-family="Times,serif" font-size="10.00" fill="#000000">updatedAt: DATE</text>
<polygon fill="none" stroke="#000000" points="1980.289,-288.6937 1980.289,-310.6937 2099.289,-310.6937 2099.289,-288.6937 1980.289,-288.6937"/>
<text text-anchor="start" x="1985.289" y="-296.6937" font-family="Times,serif" font-size="10.00" fill="#000000">name: STRING</text>
<polygon fill="none" stroke="#000000" points="1980.289,-266.6937 1980.289,-288.6937 2099.289,-288.6937 2099.289,-266.6937 1980.289,-266.6937"/>
<text text-anchor="start" x="1985.289" y="-274.6937" font-family="Times,serif" font-size="10.00" fill="#000000">nickname: STRING</text>
<polygon fill="none" stroke="#000000" points="1980.289,-244.6937 1980.289,-266.6937 2099.289,-266.6937 2099.289,-244.6937 1980.289,-244.6937"/>
<text text-anchor="start" x="1985.289" y="-252.6937" font-family="Times,serif" font-size="10.00" fill="#000000">email: STRING</text>
<polygon fill="none" stroke="#000000" points="1980.289,-222.6937 1980.289,-244.6937 2099.289,-244.6937 2099.289,-222.6937 1980.289,-222.6937"/>
<text text-anchor="start" x="1985.289" y="-230.6937" font-family="Times,serif" font-size="10.00" fill="#000000">password: STRING</text>
<polygon fill="none" stroke="#000000" points="1980.289,-200.6937 1980.289,-222.6937 2099.289,-222.6937 2099.289,-200.6937 1980.289,-200.6937"/>
<text text-anchor="start" x="1985.289" y="-208.6937" font-family="Times,serif" font-size="10.00" fill="#000000">blocked: BOOLEAN</text>
<polygon fill="none" stroke="#000000" points="1980.289,-178.6937 1980.289,-200.6937 2099.289,-200.6937 2099.289,-178.6937 1980.289,-178.6937"/>
<text text-anchor="start" x="1985.289" y="-186.6937" font-family="Times,serif" font-size="10.00" fill="#000000">level: NUMBER</text>
<polygon fill="none" stroke="#000000" points="1980.289,-156.6937 1980.289,-178.6937 2099.289,-178.6937 2099.289,-156.6937 1980.289,-156.6937"/>
<text text-anchor="start" x="1985.289" y="-164.6937" font-family="Times,serif" font-size="10.00" fill="#000000">levelDesc: VIRTUAL</text>
<polygon fill="none" stroke="#000000" points="1980.289,-134.6937 1980.289,-156.6937 2099.289,-156.6937 2099.289,-134.6937 1980.289,-134.6937"/>
<text text-anchor="start" x="1985.289" y="-142.6937" font-family="Times,serif" font-size="10.00" fill="#000000">levelIsAdmin: VIRTUAL</text>
<polygon fill="none" stroke="#000000" points="1980.289,-112.6937 1980.289,-134.6937 2099.289,-134.6937 2099.289,-112.6937 1980.289,-112.6937"/>
<text text-anchor="start" x="1985.289" y="-120.6937" font-family="Times,serif" font-size="10.00" fill="#000000">levelIsStaff: VIRTUAL</text>
<polygon fill="none" stroke="#000000" points="1980.289,-90.6937 1980.289,-112.6937 2099.289,-112.6937 2099.289,-90.6937 1980.289,-90.6937"/>
<text text-anchor="start" x="1984.948" y="-98.6937" font-family="Times,serif" font-size="10.00" fill="#000000">levelIsAccount: VIRTUAL</text>
<polygon fill="none" stroke="#000000" points="1980.289,-68.6937 1980.289,-90.6937 2099.289,-90.6937 2099.289,-68.6937 1980.289,-68.6937"/>
<text text-anchor="start" x="1985.289" y="-76.6937" font-family="Times,serif" font-size="10.00" fill="#000000">loginTryCount: NUMBER</text>
<polygon fill="none" stroke="#000000" points="1980.289,-46.6937 1980.289,-68.6937 2099.289,-68.6937 2099.289,-46.6937 1980.289,-46.6937"/>
<text text-anchor="start" x="1985.289" y="-54.6937" font-family="Times,serif" font-size="10.00" fill="#000000">loginTryWait: DATE</text>
</g>
<!-- gl_user_recover -->
<g id="node7" class="node">
<title>gl_user_recover</title>
<polygon fill="#add8e6" stroke="transparent" points="2023.5037,-132 2023.5037,-154 2117.5037,-154 2117.5037,-132 2023.5037,-132"/>
<polygon fill="none" stroke="#000000" points="2023.5037,-132 2023.5037,-154 2117.5037,-154 2117.5037,-132 2023.5037,-132"/>
<text text-anchor="start" x="2038.2982" y="-140" font-family="Times,serif" font-size="10.00" fill="#000000">gl_user_recover</text>
<polygon fill="none" stroke="#000000" points="2023.5037,-110 2023.5037,-132 2117.5037,-132 2117.5037,-110 2023.5037,-110"/>
<text text-anchor="start" x="2028.5037" y="-118" font-family="Times,serif" font-size="10.00" fill="#000000">id: NUMBER</text>
<polygon fill="none" stroke="#000000" points="2023.5037,-88 2023.5037,-110 2117.5037,-110 2117.5037,-88 2023.5037,-88"/>
<text text-anchor="start" x="2028.5037" y="-96" font-family="Times,serif" font-size="10.00" fill="#000000">createdAt: DATE</text>
<polygon fill="none" stroke="#000000" points="2023.5037,-66 2023.5037,-88 2117.5037,-88 2117.5037,-66 2023.5037,-66"/>
<text text-anchor="start" x="2028.5037" y="-74" font-family="Times,serif" font-size="10.00" fill="#000000">updatedAt: DATE</text>
<polygon fill="none" stroke="#000000" points="2023.5037,-44 2023.5037,-66 2117.5037,-66 2117.5037,-44 2023.5037,-44"/>
<text text-anchor="start" x="2028.5037" y="-52" font-family="Times,serif" font-size="10.00" fill="#000000">token: STRING</text>
<polygon fill="none" stroke="#000000" points="2023.5037,-22 2023.5037,-44 2117.5037,-44 2117.5037,-22 2023.5037,-22"/>
<text text-anchor="start" x="2028.1597" y="-30" font-family="Times,serif" font-size="10.00" fill="#000000">expiresWhen: DATE</text>
<polygon fill="none" stroke="#000000" points="2023.5037,0 2023.5037,-22 2117.5037,-22 2117.5037,0 2023.5037,0"/>
<text text-anchor="start" x="2028.5037" y="-8" font-family="Times,serif" font-size="10.00" fill="#000000">userId: NUMBER</text>
</g>
<!-- gl_user_recover&#45;&gt;gl_user -->
<g id="edge6" class="edge">
<title>gl_user_recover&#45;&gt;gl_user</title>
<path fill="none" stroke="#000000" stroke-width=".75" d="M2053.9385,-154.3178C2053.9239,-154.386 2053.9093,-154.4543 2053.8946,-154.5225"/>
<polygon fill="#000000" stroke="#000000" stroke-width=".75" points="2052.7231,-159.98 2056.6225,-154.6797 2053.3527,-157.0465 2053.9824,-154.113 2053.9824,-154.113 2053.9824,-154.113 2053.3527,-157.0465 2051.3423,-153.5464 2052.7231,-159.98 2052.7231,-159.98"/>
</g>
<!-- gl_person -->
<g id="node8" class="node">
<title>gl_person</title>
<polygon fill="#add8e6" stroke="transparent" points="972.4401,-1569.3165 972.4401,-1591.3165 1111.4401,-1591.3165 1111.4401,-1569.3165 972.4401,-1569.3165"/>
<polygon fill="none" stroke="#000000" points="972.4401,-1569.3165 972.4401,-1591.3165 1111.4401,-1591.3165 1111.4401,-1569.3165 972.4401,-1569.3165"/>
<text text-anchor="start" x="1022.2221" y="-1577.3165" font-family="Times,serif" font-size="10.00" fill="#000000">gl_person</text>
<polygon fill="none" stroke="#000000" points="972.4401,-1547.3165 972.4401,-1569.3165 1111.4401,-1569.3165 1111.4401,-1547.3165 972.4401,-1547.3165"/>
<text text-anchor="start" x="977.4401" y="-1555.3165" font-family="Times,serif" font-size="10.00" fill="#000000">id: NUMBER</text>
<polygon fill="none" stroke="#000000" points="972.4401,-1525.3165 972.4401,-1547.3165 1111.4401,-1547.3165 1111.4401,-1525.3165 972.4401,-1525.3165"/>
<text text-anchor="start" x="977.4401" y="-1533.3165" font-family="Times,serif" font-size="10.00" fill="#000000">createdAt: DATE</text>
<polygon fill="none" stroke="#000000" points="972.4401,-1503.3165 972.4401,-1525.3165 1111.4401,-1525.3165 1111.4401,-1503.3165 972.4401,-1503.3165"/>
<text text-anchor="start" x="977.4401" y="-1511.3165" font-family="Times,serif" font-size="10.00" fill="#000000">updatedAt: DATE</text>
<polygon fill="none" stroke="#000000" points="972.4401,-1481.3165 972.4401,-1503.3165 1111.4401,-1503.3165 1111.4401,-1481.3165 972.4401,-1481.3165"/>
<text text-anchor="start" x="977.4401" y="-1489.3165" font-family="Times,serif" font-size="10.00" fill="#000000">legalType: NUMBER</text>
<polygon fill="none" stroke="#000000" points="972.4401,-1459.3165 972.4401,-1481.3165 1111.4401,-1481.3165 1111.4401,-1459.3165 972.4401,-1459.3165"/>
<text text-anchor="start" x="977.4401" y="-1467.3165" font-family="Times,serif" font-size="10.00" fill="#000000">legalTypeDesc: VIRTUAL</text>
<polygon fill="none" stroke="#000000" points="972.4401,-1437.3165 972.4401,-1459.3165 1111.4401,-1459.3165 1111.4401,-1437.3165 972.4401,-1437.3165"/>
<text text-anchor="start" x="977.4401" y="-1445.3165" font-family="Times,serif" font-size="10.00" fill="#000000">legalIdentifierType: STRING</text>
<polygon fill="none" stroke="#000000" points="972.4401,-1415.3165 972.4401,-1437.3165 1111.4401,-1437.3165 1111.4401,-1415.3165 972.4401,-1415.3165"/>
<text text-anchor="start" x="977.4401" y="-1423.3165" font-family="Times,serif" font-size="10.00" fill="#000000">legalIdentifierCode: STRING</text>
<polygon fill="none" stroke="#000000" points="972.4401,-1393.3165 972.4401,-1415.3165 1111.4401,-1415.3165 1111.4401,-1393.3165 972.4401,-1393.3165"/>
<text text-anchor="start" x="977.4401" y="-1401.3165" font-family="Times,serif" font-size="10.00" fill="#000000">name: STRING</text>
<polygon fill="none" stroke="#000000" points="972.4401,-1371.3165 972.4401,-1393.3165 1111.4401,-1393.3165 1111.4401,-1371.3165 972.4401,-1371.3165"/>
<text text-anchor="start" x="977.4401" y="-1379.3165" font-family="Times,serif" font-size="10.00" fill="#000000">shortname: STRING</text>
<polygon fill="none" stroke="#000000" points="972.4401,-1349.3165 972.4401,-1371.3165 1111.4401,-1371.3165 1111.4401,-1349.3165 972.4401,-1349.3165"/>
<text text-anchor="start" x="977.4401" y="-1357.3165" font-family="Times,serif" font-size="10.00" fill="#000000">phone: STRING</text>
<polygon fill="none" stroke="#000000" points="972.4401,-1327.3165 972.4401,-1349.3165 1111.4401,-1349.3165 1111.4401,-1327.3165 972.4401,-1327.3165"/>
<text text-anchor="start" x="977.4401" y="-1335.3165" font-family="Times,serif" font-size="10.00" fill="#000000">cellphone: STRING</text>
<polygon fill="none" stroke="#000000" points="972.4401,-1305.3165 972.4401,-1327.3165 1111.4401,-1327.3165 1111.4401,-1305.3165 972.4401,-1305.3165"/>
<text text-anchor="start" x="977.4401" y="-1313.3165" font-family="Times,serif" font-size="10.00" fill="#000000">email: STRING</text>
<polygon fill="none" stroke="#000000" points="972.4401,-1283.3165 972.4401,-1305.3165 1111.4401,-1305.3165 1111.4401,-1283.3165 972.4401,-1283.3165"/>
<text text-anchor="start" x="977.4401" y="-1291.3165" font-family="Times,serif" font-size="10.00" fill="#000000">address: STRING</text>
<polygon fill="none" stroke="#000000" points="972.4401,-1261.3165 972.4401,-1283.3165 1111.4401,-1283.3165 1111.4401,-1261.3165 972.4401,-1261.3165"/>
<text text-anchor="start" x="977.4401" y="-1269.3165" font-family="Times,serif" font-size="10.00" fill="#000000">addressZipcode: STRING</text>
<polygon fill="none" stroke="#000000" points="972.4401,-1239.3165 972.4401,-1261.3165 1111.4401,-1261.3165 1111.4401,-1239.3165 972.4401,-1239.3165"/>
<text text-anchor="start" x="977.4401" y="-1247.3165" font-family="Times,serif" font-size="10.00" fill="#000000">addressNumber: STRING</text>
<polygon fill="none" stroke="#000000" points="972.4401,-1217.3165 972.4401,-1239.3165 1111.4401,-1239.3165 1111.4401,-1217.3165 972.4401,-1217.3165"/>
<text text-anchor="start" x="977.4401" y="-1225.3165" font-family="Times,serif" font-size="10.00" fill="#000000">addressExtra: STRING</text>
<polygon fill="none" stroke="#000000" points="972.4401,-1195.3165 972.4401,-1217.3165 1111.4401,-1217.3165 1111.4401,-1195.3165 972.4401,-1195.3165"/>
<text text-anchor="start" x="977.3731" y="-1203.3165" font-family="Times,serif" font-size="10.00" fill="#000000">addressNeighborhood: STRING</text>
<polygon fill="none" stroke="#000000" points="972.4401,-1173.3165 972.4401,-1195.3165 1111.4401,-1195.3165 1111.4401,-1173.3165 972.4401,-1173.3165"/>
<text text-anchor="start" x="977.4401" y="-1181.3165" font-family="Times,serif" font-size="10.00" fill="#000000">birthdate: DATE</text>
<polygon fill="none" stroke="#000000" points="972.4401,-1151.3165 972.4401,-1173.3165 1111.4401,-1173.3165 1111.4401,-1151.3165 972.4401,-1151.3165"/>
<text text-anchor="start" x="977.4401" y="-1159.3165" font-family="Times,serif" font-size="10.00" fill="#000000">trusted: BOOLEAN</text>
<polygon fill="none" stroke="#000000" points="972.4401,-1129.3165 972.4401,-1151.3165 1111.4401,-1151.3165 1111.4401,-1129.3165 972.4401,-1129.3165"/>
<text text-anchor="start" x="977.4401" y="-1137.3165" font-family="Times,serif" font-size="10.00" fill="#000000">latitude: NUMBER</text>
<polygon fill="none" stroke="#000000" points="972.4401,-1107.3165 972.4401,-1129.3165 1111.4401,-1129.3165 1111.4401,-1107.3165 972.4401,-1107.3165"/>
<text text-anchor="start" x="977.4401" y="-1115.3165" font-family="Times,serif" font-size="10.00" fill="#000000">longitude: NUMBER</text>
<polygon fill="none" stroke="#000000" points="972.4401,-1085.3165 972.4401,-1107.3165 1111.4401,-1107.3165 1111.4401,-1085.3165 972.4401,-1085.3165"/>
<text text-anchor="start" x="977.4401" y="-1093.3165" font-family="Times,serif" font-size="10.00" fill="#000000">obs: TEXT</text>
<polygon fill="none" stroke="#000000" points="972.4401,-1063.3165 972.4401,-1085.3165 1111.4401,-1085.3165 1111.4401,-1063.3165 972.4401,-1063.3165"/>
<text text-anchor="start" x="977.4401" y="-1071.3165" font-family="Times,serif" font-size="10.00" fill="#000000">cityId: NUMBER</text>
</g>
<!-- gl_person&#45;&gt;gl_city -->
<g id="edge7" class="edge">
<title>gl_person&#45;&gt;gl_city</title>
<path fill="none" stroke="#000000" stroke-width=".75" d="M965.6907,-1313.6749C860.993,-1294.82 675.4177,-1261.4 590.8217,-1246.1651"/>
<polygon fill="#000000" stroke="#000000" stroke-width=".75" points="965.9449,-1313.7206 971.3713,-1317.4414 968.8974,-1314.2524 971.8499,-1314.7841 971.8499,-1314.7841 971.8499,-1314.7841 968.8974,-1314.2524 972.3284,-1312.1269 965.9449,-1313.7206 965.9449,-1313.7206"/>
</g>
<!-- gl_person_contact -->
<g id="node9" class="node">
<title>gl_person_contact</title>
<polygon fill="#add8e6" stroke="transparent" points="996.908,-893.8193 996.908,-915.8193 1129.908,-915.8193 1129.908,-893.8193 996.908,-893.8193"/>
<polygon fill="none" stroke="#000000" points="996.908,-893.8193 996.908,-915.8193 1129.908,-915.8193 1129.908,-893.8193 996.908,-893.8193"/>
<text text-anchor="start" x="1026.7525" y="-901.8193" font-family="Times,serif" font-size="10.00" fill="#000000">gl_person_contact</text>
<polygon fill="none" stroke="#000000" points="996.908,-871.8193 996.908,-893.8193 1129.908,-893.8193 1129.908,-871.8193 996.908,-871.8193"/>
<text text-anchor="start" x="1001.908" y="-879.8193" font-family="Times,serif" font-size="10.00" fill="#000000">id: NUMBER</text>
<polygon fill="none" stroke="#000000" points="996.908,-849.8193 996.908,-871.8193 1129.908,-871.8193 1129.908,-849.8193 996.908,-849.8193"/>
<text text-anchor="start" x="1001.908" y="-857.8193" font-family="Times,serif" font-size="10.00" fill="#000000">createdAt: DATE</text>
<polygon fill="none" stroke="#000000" points="996.908,-827.8193 996.908,-849.8193 1129.908,-849.8193 1129.908,-827.8193 996.908,-827.8193"/>
<text text-anchor="start" x="1001.908" y="-835.8193" font-family="Times,serif" font-size="10.00" fill="#000000">updatedAt: DATE</text>
<polygon fill="none" stroke="#000000" points="996.908,-805.8193 996.908,-827.8193 1129.908,-827.8193 1129.908,-805.8193 996.908,-805.8193"/>
<text text-anchor="start" x="1001.908" y="-813.8193" font-family="Times,serif" font-size="10.00" fill="#000000">name: STRING</text>
<polygon fill="none" stroke="#000000" points="996.908,-783.8193 996.908,-805.8193 1129.908,-805.8193 1129.908,-783.8193 996.908,-783.8193"/>
<text text-anchor="start" x="1001.908" y="-791.8193" font-family="Times,serif" font-size="10.00" fill="#000000">phone: STRING</text>
<polygon fill="none" stroke="#000000" points="996.908,-761.8193 996.908,-783.8193 1129.908,-783.8193 1129.908,-761.8193 996.908,-761.8193"/>
<text text-anchor="start" x="1001.908" y="-769.8193" font-family="Times,serif" font-size="10.00" fill="#000000">cellphone: STRING</text>
<polygon fill="none" stroke="#000000" points="996.908,-739.8193 996.908,-761.8193 1129.908,-761.8193 1129.908,-739.8193 996.908,-739.8193"/>
<text text-anchor="start" x="1001.908" y="-747.8193" font-family="Times,serif" font-size="10.00" fill="#000000">email: STRING</text>
<polygon fill="none" stroke="#000000" points="996.908,-717.8193 996.908,-739.8193 1129.908,-739.8193 1129.908,-717.8193 996.908,-717.8193"/>
<text text-anchor="start" x="1001.908" y="-725.8193" font-family="Times,serif" font-size="10.00" fill="#000000">trusted: BOOLEAN</text>
<polygon fill="none" stroke="#000000" points="996.908,-695.8193 996.908,-717.8193 1129.908,-717.8193 1129.908,-695.8193 996.908,-695.8193"/>
<text text-anchor="start" x="1001.908" y="-703.8193" font-family="Times,serif" font-size="10.00" fill="#000000">obs: TEXT</text>
<polygon fill="none" stroke="#000000" points="996.908,-673.8193 996.908,-695.8193 1129.908,-695.8193 1129.908,-673.8193 996.908,-673.8193"/>
<text text-anchor="start" x="1001.908" y="-681.8193" font-family="Times,serif" font-size="10.00" fill="#000000">level: NUMBER</text>
<polygon fill="none" stroke="#000000" points="996.908,-651.8193 996.908,-673.8193 1129.908,-673.8193 1129.908,-651.8193 996.908,-651.8193"/>
<text text-anchor="start" x="1001.908" y="-659.8193" font-family="Times,serif" font-size="10.00" fill="#000000">levelDesc: VIRTUAL</text>
<polygon fill="none" stroke="#000000" points="996.908,-629.8193 996.908,-651.8193 1129.908,-651.8193 1129.908,-629.8193 996.908,-629.8193"/>
<text text-anchor="start" x="1001.908" y="-637.8193" font-family="Times,serif" font-size="10.00" fill="#000000">canEditOrder: BOOLEAN</text>
<polygon fill="none" stroke="#000000" points="996.908,-607.8193 996.908,-629.8193 1129.908,-629.8193 1129.908,-607.8193 996.908,-607.8193"/>
<text text-anchor="start" x="1001.908" y="-615.8193" font-family="Times,serif" font-size="10.00" fill="#000000">personId: NUMBER</text>
<polygon fill="none" stroke="#000000" points="996.908,-585.8193 996.908,-607.8193 1129.908,-607.8193 1129.908,-585.8193 996.908,-585.8193"/>
<text text-anchor="start" x="1001.6275" y="-593.8193" font-family="Times,serif" font-size="10.00" fill="#000000">personReferenceId: NUMBER</text>
<polygon fill="none" stroke="#000000" points="996.908,-563.8193 996.908,-585.8193 1129.908,-585.8193 1129.908,-563.8193 996.908,-563.8193"/>
<text text-anchor="start" x="1001.908" y="-571.8193" font-family="Times,serif" font-size="10.00" fill="#000000">userId: NUMBER</text>
</g>
<!-- gl_person_contact&#45;&gt;gl_user -->
<g id="edge9" class="edge">
<title>gl_person_contact&#45;&gt;gl_user</title>
<path fill="none" stroke="#000000" stroke-width=".75" d="M1135.0188,-701.6269C1320.0286,-603.6392 1808.9337,-344.6979 1979.5349,-254.3416"/>
<polygon fill="#000000" stroke="#000000" stroke-width=".75" points="1134.9366,-701.6704 1128.3706,-702.0927 1132.2855,-703.0746 1129.6344,-704.4787 1129.6344,-704.4787 1129.6344,-704.4787 1132.2855,-703.0746 1130.8981,-706.8647 1134.9366,-701.6704 1134.9366,-701.6704"/>
</g>
<!-- gl_person_contact&#45;&gt;gl_person -->
<g id="edge8" class="edge">
<title>gl_person_contact&#45;&gt;gl_person</title>
<path fill="none" stroke="#000000" stroke-width=".75" d="M1056.2379,-922.3558C1054.6077,-966.9693 1052.8307,-1015.5981 1051.092,-1063.1799"/>
<polygon fill="#000000" stroke="#000000" stroke-width=".75" points="1056.2477,-922.0839 1059.1651,-916.1865 1056.3573,-919.0859 1056.4669,-916.0879 1056.4669,-916.0879 1056.4669,-916.0879 1056.3573,-919.0859 1053.7687,-915.9892 1056.2477,-922.0839 1056.2477,-922.0839"/>
</g>
<!-- gl_field -->
<g id="node10" class="node">
<title>gl_field</title>
<polygon fill="#add8e6" stroke="transparent" points="650.2243,-1390.2427 650.2243,-1412.2427 753.2243,-1412.2427 753.2243,-1390.2427 650.2243,-1390.2427"/>
<polygon fill="none" stroke="#000000" points="650.2243,-1390.2427 650.2243,-1412.2427 753.2243,-1412.2427 753.2243,-1390.2427 650.2243,-1390.2427"/>
<text text-anchor="start" x="686.1718" y="-1398.2427" font-family="Times,serif" font-size="10.00" fill="#000000">gl_field</text>
<polygon fill="none" stroke="#000000" points="650.2243,-1368.2427 650.2243,-1390.2427 753.2243,-1390.2427 753.2243,-1368.2427 650.2243,-1368.2427"/>
<text text-anchor="start" x="655.2243" y="-1376.2427" font-family="Times,serif" font-size="10.00" fill="#000000">id: NUMBER</text>
<polygon fill="none" stroke="#000000" points="650.2243,-1346.2427 650.2243,-1368.2427 753.2243,-1368.2427 753.2243,-1346.2427 650.2243,-1346.2427"/>
<text text-anchor="start" x="655.2243" y="-1354.2427" font-family="Times,serif" font-size="10.00" fill="#000000">createdAt: DATE</text>
<polygon fill="none" stroke="#000000" points="650.2243,-1324.2427 650.2243,-1346.2427 753.2243,-1346.2427 753.2243,-1324.2427 650.2243,-1324.2427"/>
<text text-anchor="start" x="655.2243" y="-1332.2427" font-family="Times,serif" font-size="10.00" fill="#000000">updatedAt: DATE</text>
<polygon fill="none" stroke="#000000" points="650.2243,-1302.2427 650.2243,-1324.2427 753.2243,-1324.2427 753.2243,-1302.2427 650.2243,-1302.2427"/>
<text text-anchor="start" x="655.2243" y="-1310.2427" font-family="Times,serif" font-size="10.00" fill="#000000">name: STRING</text>
<polygon fill="none" stroke="#000000" points="650.2243,-1280.2427 650.2243,-1302.2427 753.2243,-1302.2427 753.2243,-1280.2427 650.2243,-1280.2427"/>
<text text-anchor="start" x="655.2243" y="-1288.2427" font-family="Times,serif" font-size="10.00" fill="#000000">destination: STRING</text>
<polygon fill="none" stroke="#000000" points="650.2243,-1258.2427 650.2243,-1280.2427 753.2243,-1280.2427 753.2243,-1258.2427 650.2243,-1258.2427"/>
<text text-anchor="start" x="655.2243" y="-1266.2427" font-family="Times,serif" font-size="10.00" fill="#000000">code: STRING</text>
<polygon fill="none" stroke="#000000" points="650.2243,-1236.2427 650.2243,-1258.2427 753.2243,-1258.2427 753.2243,-1236.2427 650.2243,-1236.2427"/>
<text text-anchor="start" x="655.2243" y="-1244.2427" font-family="Times,serif" font-size="10.00" fill="#000000">type: NUMBER</text>
<polygon fill="none" stroke="#000000" points="650.2243,-1214.2427 650.2243,-1236.2427 753.2243,-1236.2427 753.2243,-1214.2427 650.2243,-1214.2427"/>
<text text-anchor="start" x="655.2243" y="-1222.2427" font-family="Times,serif" font-size="10.00" fill="#000000">typeDesc: VIRTUAL</text>
<polygon fill="none" stroke="#000000" points="650.2243,-1192.2427 650.2243,-1214.2427 753.2243,-1214.2427 753.2243,-1192.2427 650.2243,-1192.2427"/>
<text text-anchor="start" x="655.2243" y="-1200.2427" font-family="Times,serif" font-size="10.00" fill="#000000">order: NUMBER</text>
<polygon fill="none" stroke="#000000" points="650.2243,-1170.2427 650.2243,-1192.2427 753.2243,-1192.2427 753.2243,-1170.2427 650.2243,-1170.2427"/>
<text text-anchor="start" x="655.2123" y="-1178.2427" font-family="Times,serif" font-size="10.00" fill="#000000">defaultValue: STRING</text>
</g>
<!-- gl_field_item -->
<g id="node11" class="node">
<title>gl_field_item</title>
<polygon fill="#add8e6" stroke="transparent" points="738.6629,-1621.6512 738.6629,-1643.6512 835.6629,-1643.6512 835.6629,-1621.6512 738.6629,-1621.6512"/>
<polygon fill="none" stroke="#000000" points="738.6629,-1621.6512 738.6629,-1643.6512 835.6629,-1643.6512 835.6629,-1621.6512 738.6629,-1621.6512"/>
<text text-anchor="start" x="760.2224" y="-1629.6512" font-family="Times,serif" font-size="10.00" fill="#000000">gl_field_item</text>
<polygon fill="none" stroke="#000000" points="738.6629,-1599.6512 738.6629,-1621.6512 835.6629,-1621.6512 835.6629,-1599.6512 738.6629,-1599.6512"/>
<text text-anchor="start" x="743.6629" y="-1607.6512" font-family="Times,serif" font-size="10.00" fill="#000000">id: NUMBER</text>
<polygon fill="none" stroke="#000000" points="738.6629,-1577.6512 738.6629,-1599.6512 835.6629,-1599.6512 835.6629,-1577.6512 738.6629,-1577.6512"/>
<text text-anchor="start" x="743.6629" y="-1585.6512" font-family="Times,serif" font-size="10.00" fill="#000000">createdAt: DATE</text>
<polygon fill="none" stroke="#000000" points="738.6629,-1555.6512 738.6629,-1577.6512 835.6629,-1577.6512 835.6629,-1555.6512 738.6629,-1555.6512"/>
<text text-anchor="start" x="743.6629" y="-1563.6512" font-family="Times,serif" font-size="10.00" fill="#000000">updatedAt: DATE</text>
<polygon fill="none" stroke="#000000" points="738.6629,-1533.6512 738.6629,-1555.6512 835.6629,-1555.6512 835.6629,-1533.6512 738.6629,-1533.6512"/>
<text text-anchor="start" x="743.6629" y="-1541.6512" font-family="Times,serif" font-size="10.00" fill="#000000">name: STRING</text>
<polygon fill="none" stroke="#000000" points="738.6629,-1511.6512 738.6629,-1533.6512 835.6629,-1533.6512 835.6629,-1511.6512 738.6629,-1511.6512"/>
<text text-anchor="start" x="743.6629" y="-1519.6512" font-family="Times,serif" font-size="10.00" fill="#000000">order: NUMBER</text>
<polygon fill="none" stroke="#000000" points="738.6629,-1489.6512 738.6629,-1511.6512 835.6629,-1511.6512 835.6629,-1489.6512 738.6629,-1489.6512"/>
<text text-anchor="start" x="743.4199" y="-1497.6512" font-family="Times,serif" font-size="10.00" fill="#000000">valueString: STRING</text>
<polygon fill="none" stroke="#000000" points="738.6629,-1467.6512 738.6629,-1489.6512 835.6629,-1489.6512 835.6629,-1467.6512 738.6629,-1467.6512"/>
<text text-anchor="start" x="743.6629" y="-1475.6512" font-family="Times,serif" font-size="10.00" fill="#000000">fieldId: NUMBER</text>
</g>
<!-- gl_field_item&#45;&gt;gl_field -->
<g id="edge10" class="edge">
<title>gl_field_item&#45;&gt;gl_field</title>
<path fill="none" stroke="#000000" stroke-width=".75" d="M756.3203,-1461.7494C751.1485,-1445.7441 745.7119,-1428.9191 740.3512,-1412.3293"/>
<polygon fill="#000000" stroke="#000000" stroke-width=".75" points="756.3682,-1461.8976 755.6439,-1468.4372 757.2906,-1464.7523 758.2131,-1467.607 758.2131,-1467.607 758.2131,-1467.607 757.2906,-1464.7523 760.7823,-1466.7768 756.3682,-1461.8976 756.3682,-1461.8976"/>
</g>
<!-- gl_person_field -->
<g id="node12" class="node">
<title>gl_person_field</title>
<polygon fill="#add8e6" stroke="transparent" points="913.9281,-1459.4549 913.9281,-1481.4549 1031.9281,-1481.4549 1031.9281,-1459.4549 913.9281,-1459.4549"/>
<polygon fill="none" stroke="#000000" points="913.9281,-1459.4549 913.9281,-1481.4549 1031.9281,-1481.4549 1031.9281,-1459.4549 913.9281,-1459.4549"/>
<text text-anchor="start" x="941.5471" y="-1467.4549" font-family="Times,serif" font-size="10.00" fill="#000000">gl_person_field</text>
<polygon fill="none" stroke="#000000" points="913.9281,-1437.4549 913.9281,-1459.4549 1031.9281,-1459.4549 1031.9281,-1437.4549 913.9281,-1437.4549"/>
<text text-anchor="start" x="918.9281" y="-1445.4549" font-family="Times,serif" font-size="10.00" fill="#000000">id: NUMBER</text>
<polygon fill="none" stroke="#000000" points="913.9281,-1415.4549 913.9281,-1437.4549 1031.9281,-1437.4549 1031.9281,-1415.4549 913.9281,-1415.4549"/>
<text text-anchor="start" x="918.9281" y="-1423.4549" font-family="Times,serif" font-size="10.00" fill="#000000">createdAt: DATE</text>
<polygon fill="none" stroke="#000000" points="913.9281,-1393.4549 913.9281,-1415.4549 1031.9281,-1415.4549 1031.9281,-1393.4549 913.9281,-1393.4549"/>
<text text-anchor="start" x="918.9281" y="-1401.4549" font-family="Times,serif" font-size="10.00" fill="#000000">updatedAt: DATE</text>
<polygon fill="none" stroke="#000000" points="913.9281,-1371.4549 913.9281,-1393.4549 1031.9281,-1393.4549 1031.9281,-1371.4549 913.9281,-1371.4549"/>
<text text-anchor="start" x="918.9281" y="-1379.4549" font-family="Times,serif" font-size="10.00" fill="#000000">valueString: STRING</text>
<polygon fill="none" stroke="#000000" points="913.9281,-1349.4549 913.9281,-1371.4549 1031.9281,-1371.4549 1031.9281,-1349.4549 913.9281,-1349.4549"/>
<text text-anchor="start" x="918.9281" y="-1357.4549" font-family="Times,serif" font-size="10.00" fill="#000000">valueInt: NUMBER</text>
<polygon fill="none" stroke="#000000" points="913.9281,-1327.4549 913.9281,-1349.4549 1031.9281,-1349.4549 1031.9281,-1327.4549 913.9281,-1327.4549"/>
<text text-anchor="start" x="918.9281" y="-1335.4549" font-family="Times,serif" font-size="10.00" fill="#000000">valueDouble: NUMBER</text>
<polygon fill="none" stroke="#000000" points="913.9281,-1305.4549 913.9281,-1327.4549 1031.9281,-1327.4549 1031.9281,-1305.4549 913.9281,-1305.4549"/>
<text text-anchor="start" x="918.9156" y="-1313.4549" font-family="Times,serif" font-size="10.00" fill="#000000">valueBoolean: BOOLEAN</text>
<polygon fill="none" stroke="#000000" points="913.9281,-1283.4549 913.9281,-1305.4549 1031.9281,-1305.4549 1031.9281,-1283.4549 913.9281,-1283.4549"/>
<text text-anchor="start" x="918.9281" y="-1291.4549" font-family="Times,serif" font-size="10.00" fill="#000000">valueSearch: STRING</text>
<polygon fill="none" stroke="#000000" points="913.9281,-1261.4549 913.9281,-1283.4549 1031.9281,-1283.4549 1031.9281,-1261.4549 913.9281,-1261.4549"/>
<text text-anchor="start" x="918.9281" y="-1269.4549" font-family="Times,serif" font-size="10.00" fill="#000000">fieldId: NUMBER</text>
<polygon fill="none" stroke="#000000" points="913.9281,-1239.4549 913.9281,-1261.4549 1031.9281,-1261.4549 1031.9281,-1239.4549 913.9281,-1239.4549"/>
<text text-anchor="start" x="918.9281" y="-1247.4549" font-family="Times,serif" font-size="10.00" fill="#000000">fieldItemId: NUMBER</text>
<polygon fill="none" stroke="#000000" points="913.9281,-1217.4549 913.9281,-1239.4549 1031.9281,-1239.4549 1031.9281,-1217.4549 913.9281,-1217.4549"/>
<text text-anchor="start" x="918.9281" y="-1225.4549" font-family="Times,serif" font-size="10.00" fill="#000000">personId: NUMBER</text>
</g>
<!-- gl_person_field&#45;&gt;gl_person -->
<g id="edge13" class="edge">
<title>gl_person_field&#45;&gt;gl_person</title>
<path fill="none" stroke="#000000" stroke-width=".75" d="M1032.3311,-1330.2599C1032.3747,-1330.2459 1032.4181,-1330.2318 1032.4613,-1330.2179"/>
<polygon fill="#000000" stroke="#000000" stroke-width=".75" points="1037.9098,-1328.4543 1031.3687,-1327.7329 1035.055,-1329.3783 1032.2002,-1330.3022 1032.2002,-1330.3022 1032.2002,-1330.3022 1035.055,-1329.3783 1033.0318,-1332.8715 1037.9098,-1328.4543 1037.9098,-1328.4543"/>
</g>
<!-- gl_person_field&#45;&gt;gl_field -->
<g id="edge11" class="edge">
<title>gl_person_field&#45;&gt;gl_field</title>
<path fill="none" stroke="#000000" stroke-width=".75" d="M907.6463,-1335.4684C860.255,-1325.3148 797.0022,-1311.763 753.0588,-1302.3482"/>
<polygon fill="#000000" stroke="#000000" stroke-width=".75" points="907.7704,-1335.4949 913.0716,-1339.392 910.7038,-1336.1234 913.6373,-1336.7519 913.6373,-1336.7519 913.6373,-1336.7519 910.7038,-1336.1234 914.2029,-1334.1118 907.7704,-1335.4949 907.7704,-1335.4949"/>
</g>
<!-- gl_person_field&#45;&gt;gl_field_item -->
<g id="edge12" class="edge">
<title>gl_person_field&#45;&gt;gl_field_item</title>
<path fill="none" stroke="#000000" stroke-width=".75" d="M909.5616,-1419.6019C885.3225,-1446.4347 858.0772,-1476.5953 835.4104,-1501.6876"/>
<polygon fill="#000000" stroke="#000000" stroke-width=".75" points="909.7147,-1419.4324 915.7403,-1416.7899 911.7257,-1417.2062 913.7367,-1414.98 913.7367,-1414.98 913.7367,-1414.98 911.7257,-1417.2062 911.7331,-1413.1701 909.7147,-1419.4324 909.7147,-1419.4324"/>
</g>
<!-- gl_unit -->
<g id="node13" class="node">
<title>gl_unit</title>
<polygon fill="#add8e6" stroke="transparent" points="2443.996,-1705.1677 2443.996,-1727.1677 2549.996,-1727.1677 2549.996,-1705.1677 2443.996,-1705.1677"/>
<polygon fill="none" stroke="#000000" points="2443.996,-1705.1677 2443.996,-1727.1677 2549.996,-1727.1677 2549.996,-1705.1677 2443.996,-1705.1677"/>
<text text-anchor="start" x="2482.8275" y="-1713.1677" font-family="Times,serif" font-size="10.00" fill="#000000">gl_unit</text>
<polygon fill="none" stroke="#000000" points="2443.996,-1683.1677 2443.996,-1705.1677 2549.996,-1705.1677 2549.996,-1683.1677 2443.996,-1683.1677"/>
<text text-anchor="start" x="2448.996" y="-1691.1677" font-family="Times,serif" font-size="10.00" fill="#000000">id: NUMBER</text>
<polygon fill="none" stroke="#000000" points="2443.996,-1661.1677 2443.996,-1683.1677 2549.996,-1683.1677 2549.996,-1661.1677 2443.996,-1661.1677"/>
<text text-anchor="start" x="2448.996" y="-1669.1677" font-family="Times,serif" font-size="10.00" fill="#000000">createdAt: DATE</text>
<polygon fill="none" stroke="#000000" points="2443.996,-1639.1677 2443.996,-1661.1677 2549.996,-1661.1677 2549.996,-1639.1677 2443.996,-1639.1677"/>
<text text-anchor="start" x="2448.996" y="-1647.1677" font-family="Times,serif" font-size="10.00" fill="#000000">updatedAt: DATE</text>
<polygon fill="none" stroke="#000000" points="2443.996,-1617.1677 2443.996,-1639.1677 2549.996,-1639.1677 2549.996,-1617.1677 2443.996,-1617.1677"/>
<text text-anchor="start" x="2448.996" y="-1625.1677" font-family="Times,serif" font-size="10.00" fill="#000000">name: STRING</text>
<polygon fill="none" stroke="#000000" points="2443.996,-1595.1677 2443.996,-1617.1677 2549.996,-1617.1677 2549.996,-1595.1677 2443.996,-1595.1677"/>
<text text-anchor="start" x="2448.5335" y="-1603.1677" font-family="Times,serif" font-size="10.00" fill="#000000">nameSingular: STRING</text>
<polygon fill="none" stroke="#000000" points="2443.996,-1573.1677 2443.996,-1595.1677 2549.996,-1595.1677 2549.996,-1573.1677 2443.996,-1573.1677"/>
<text text-anchor="start" x="2448.996" y="-1581.1677" font-family="Times,serif" font-size="10.00" fill="#000000">namePlural: STRING</text>
<polygon fill="none" stroke="#000000" points="2443.996,-1551.1677 2443.996,-1573.1677 2549.996,-1573.1677 2549.996,-1551.1677 2443.996,-1551.1677"/>
<text text-anchor="start" x="2448.996" y="-1559.1677" font-family="Times,serif" font-size="10.00" fill="#000000">unit: STRING</text>
</g>
<!-- gl_product -->
<g id="node14" class="node">
<title>gl_product</title>
<polygon fill="#add8e6" stroke="transparent" points="1907.4745,-2024.3245 1907.4745,-2046.3245 2047.4745,-2046.3245 2047.4745,-2024.3245 1907.4745,-2024.3245"/>
<polygon fill="none" stroke="#000000" points="1907.4745,-2024.3245 1907.4745,-2046.3245 2047.4745,-2046.3245 2047.4745,-2024.3245 1907.4745,-2024.3245"/>
<text text-anchor="start" x="1955.8115" y="-2032.3245" font-family="Times,serif" font-size="10.00" fill="#000000">gl_product</text>
<polygon fill="none" stroke="#000000" points="1907.4745,-2002.3245 1907.4745,-2024.3245 2047.4745,-2024.3245 2047.4745,-2002.3245 1907.4745,-2002.3245"/>
<text text-anchor="start" x="1912.4745" y="-2010.3245" font-family="Times,serif" font-size="10.00" fill="#000000">id: NUMBER</text>
<polygon fill="none" stroke="#000000" points="1907.4745,-1980.3245 1907.4745,-2002.3245 2047.4745,-2002.3245 2047.4745,-1980.3245 1907.4745,-1980.3245"/>
<text text-anchor="start" x="1912.4745" y="-1988.3245" font-family="Times,serif" font-size="10.00" fill="#000000">createdAt: DATE</text>
<polygon fill="none" stroke="#000000" points="1907.4745,-1958.3245 1907.4745,-1980.3245 2047.4745,-1980.3245 2047.4745,-1958.3245 1907.4745,-1958.3245"/>
<text text-anchor="start" x="1912.4745" y="-1966.3245" font-family="Times,serif" font-size="10.00" fill="#000000">updatedAt: DATE</text>
<polygon fill="none" stroke="#000000" points="1907.4745,-1936.3245 1907.4745,-1958.3245 2047.4745,-1958.3245 2047.4745,-1936.3245 1907.4745,-1936.3245"/>
<text text-anchor="start" x="1912.4745" y="-1944.3245" font-family="Times,serif" font-size="10.00" fill="#000000">name: STRING</text>
<polygon fill="none" stroke="#000000" points="1907.4745,-1914.3245 1907.4745,-1936.3245 2047.4745,-1936.3245 2047.4745,-1914.3245 1907.4745,-1914.3245"/>
<text text-anchor="start" x="1912.4745" y="-1922.3245" font-family="Times,serif" font-size="10.00" fill="#000000">description: STRING</text>
<polygon fill="none" stroke="#000000" points="1907.4745,-1892.3245 1907.4745,-1914.3245 2047.4745,-1914.3245 2047.4745,-1892.3245 1907.4745,-1892.3245"/>
<text text-anchor="start" x="1912.4745" y="-1900.3245" font-family="Times,serif" font-size="10.00" fill="#000000">eanCode: STRING</text>
<polygon fill="none" stroke="#000000" points="1907.4745,-1870.3245 1907.4745,-1892.3245 2047.4745,-1892.3245 2047.4745,-1870.3245 1907.4745,-1870.3245"/>
<text text-anchor="start" x="1912.4745" y="-1878.3245" font-family="Times,serif" font-size="10.00" fill="#000000">healthCode: STRING</text>
<polygon fill="none" stroke="#000000" points="1907.4745,-1848.3245 1907.4745,-1870.3245 2047.4745,-1870.3245 2047.4745,-1848.3245 1907.4745,-1848.3245"/>
<text text-anchor="start" x="1912.355" y="-1856.3245" font-family="Times,serif" font-size="10.00" fill="#000000">requestFormActive: BOOLEAN</text>
<polygon fill="none" stroke="#000000" points="1907.4745,-1826.3245 1907.4745,-1848.3245 2047.4745,-1848.3245 2047.4745,-1826.3245 1907.4745,-1826.3245"/>
<text text-anchor="start" x="1912.4745" y="-1834.3245" font-family="Times,serif" font-size="10.00" fill="#000000">priority: NUMBER</text>
<polygon fill="none" stroke="#000000" points="1907.4745,-1804.3245 1907.4745,-1826.3245 2047.4745,-1826.3245 2047.4745,-1804.3245 1907.4745,-1804.3245"/>
<text text-anchor="start" x="1912.4745" y="-1812.3245" font-family="Times,serif" font-size="10.00" fill="#000000">consumable: BOOLEAN</text>
<polygon fill="none" stroke="#000000" points="1907.4745,-1782.3245 1907.4745,-1804.3245 2047.4745,-1804.3245 2047.4745,-1782.3245 1907.4745,-1782.3245"/>
<text text-anchor="start" x="1912.4745" y="-1790.3245" font-family="Times,serif" font-size="10.00" fill="#000000">unitId: NUMBER</text>
</g>
<!-- gl_product&#45;&gt;gl_unit -->
<g id="edge14" class="edge">
<title>gl_product&#45;&gt;gl_unit</title>
<path fill="none" stroke="#000000" stroke-width=".75" d="M2052.856,-1874.3998C2159.2866,-1818.0304 2350.9542,-1716.5165 2443.764,-1667.3612"/>
<polygon fill="#000000" stroke="#000000" stroke-width=".75" points="2052.8418,-1874.4073 2046.2758,-1874.8296 2050.1906,-1875.8115 2047.5395,-1877.2156 2047.5395,-1877.2156 2047.5395,-1877.2156 2050.1906,-1875.8115 2048.8033,-1879.6016 2052.8418,-1874.4073 2052.8418,-1874.4073"/>
</g>
<!-- sy_session -->
<g id="node15" class="node">
<title>sy_session</title>
<polygon fill="#add8e6" stroke="transparent" points="1464.1804,-1185.5525 1464.1804,-1207.5525 1540.1804,-1207.5525 1540.1804,-1185.5525 1464.1804,-1185.5525"/>
<polygon fill="none" stroke="#000000" points="1464.1804,-1185.5525 1464.1804,-1207.5525 1540.1804,-1207.5525 1540.1804,-1185.5525 1464.1804,-1185.5525"/>
<text text-anchor="start" x="1480.7934" y="-1193.5525" font-family="Times,serif" font-size="10.00" fill="#000000">sy_session</text>
<polygon fill="none" stroke="#000000" points="1464.1804,-1163.5525 1464.1804,-1185.5525 1540.1804,-1185.5525 1540.1804,-1163.5525 1464.1804,-1163.5525"/>
<text text-anchor="start" x="1469.1804" y="-1171.5525" font-family="Times,serif" font-size="10.00" fill="#000000">sid: STRING</text>
<polygon fill="none" stroke="#000000" points="1464.1804,-1141.5525 1464.1804,-1163.5525 1540.1804,-1163.5525 1540.1804,-1141.5525 1464.1804,-1141.5525"/>
<text text-anchor="start" x="1468.9959" y="-1149.5525" font-family="Times,serif" font-size="10.00" fill="#000000">userId: STRING</text>
<polygon fill="none" stroke="#000000" points="1464.1804,-1119.5525 1464.1804,-1141.5525 1540.1804,-1141.5525 1540.1804,-1119.5525 1464.1804,-1119.5525"/>
<text text-anchor="start" x="1469.1804" y="-1127.5525" font-family="Times,serif" font-size="10.00" fill="#000000">expires: DATE</text>
<polygon fill="none" stroke="#000000" points="1464.1804,-1097.5525 1464.1804,-1119.5525 1540.1804,-1119.5525 1540.1804,-1097.5525 1464.1804,-1097.5525"/>
<text text-anchor="start" x="1469.1804" y="-1105.5525" font-family="Times,serif" font-size="10.00" fill="#000000">data: STRING</text>
</g>
<!-- or_order -->
<g id="node16" class="node">
<title>or_order</title>
<polygon fill="#add8e6" stroke="transparent" points="1367.9894,-468.5697 1367.9894,-490.5697 1545.9894,-490.5697 1545.9894,-468.5697 1367.9894,-468.5697"/>
<polygon fill="none" stroke="#000000" points="1367.9894,-468.5697 1367.9894,-490.5697 1545.9894,-490.5697 1545.9894,-468.5697 1367.9894,-468.5697"/>
<text text-anchor="start" x="1439.7764" y="-476.5697" font-family="Times,serif" font-size="10.00" fill="#000000">or_order</text>
<polygon fill="none" stroke="#000000" points="1367.9894,-446.5697 1367.9894,-468.5697 1545.9894,-468.5697 1545.9894,-446.5697 1367.9894,-446.5697"/>
<text text-anchor="start" x="1372.9894" y="-454.5697" font-family="Times,serif" font-size="10.00" fill="#000000">id: NUMBER</text>
<polygon fill="none" stroke="#000000" points="1367.9894,-424.5697 1367.9894,-446.5697 1545.9894,-446.5697 1545.9894,-424.5697 1367.9894,-424.5697"/>
<text text-anchor="start" x="1372.9894" y="-432.5697" font-family="Times,serif" font-size="10.00" fill="#000000">createdAt: DATE</text>
<polygon fill="none" stroke="#000000" points="1367.9894,-402.5697 1367.9894,-424.5697 1545.9894,-424.5697 1545.9894,-402.5697 1367.9894,-402.5697"/>
<text text-anchor="start" x="1372.9894" y="-410.5697" font-family="Times,serif" font-size="10.00" fill="#000000">updatedAt: DATE</text>
<polygon fill="none" stroke="#000000" points="1367.9894,-380.5697 1367.9894,-402.5697 1545.9894,-402.5697 1545.9894,-380.5697 1367.9894,-380.5697"/>
<text text-anchor="start" x="1372.9894" y="-388.5697" font-family="Times,serif" font-size="10.00" fill="#000000">type: NUMBER</text>
<polygon fill="none" stroke="#000000" points="1367.9894,-358.5697 1367.9894,-380.5697 1545.9894,-380.5697 1545.9894,-358.5697 1367.9894,-358.5697"/>
<text text-anchor="start" x="1372.9894" y="-366.5697" font-family="Times,serif" font-size="10.00" fill="#000000">typeDesc: VIRTUAL</text>
<polygon fill="none" stroke="#000000" points="1367.9894,-336.5697 1367.9894,-358.5697 1545.9894,-358.5697 1545.9894,-336.5697 1367.9894,-336.5697"/>
<text text-anchor="start" x="1372.9894" y="-344.5697" font-family="Times,serif" font-size="10.00" fill="#000000">notes: TEXT</text>
<polygon fill="none" stroke="#000000" points="1367.9894,-314.5697 1367.9894,-336.5697 1545.9894,-336.5697 1545.9894,-314.5697 1367.9894,-314.5697"/>
<text text-anchor="start" x="1372.9894" y="-322.5697" font-family="Times,serif" font-size="10.00" fill="#000000">internalNotes: TEXT</text>
<polygon fill="none" stroke="#000000" points="1367.9894,-292.5697 1367.9894,-314.5697 1545.9894,-314.5697 1545.9894,-292.5697 1367.9894,-292.5697"/>
<text text-anchor="start" x="1372.9894" y="-300.5697" font-family="Times,serif" font-size="10.00" fill="#000000">needsReview: BOOLEAN</text>
<polygon fill="none" stroke="#000000" points="1367.9894,-270.5697 1367.9894,-292.5697 1545.9894,-292.5697 1545.9894,-270.5697 1367.9894,-270.5697"/>
<text text-anchor="start" x="1372.9894" y="-278.5697" font-family="Times,serif" font-size="10.00" fill="#000000">status: NUMBER</text>
<polygon fill="none" stroke="#000000" points="1367.9894,-248.5697 1367.9894,-270.5697 1545.9894,-270.5697 1545.9894,-248.5697 1367.9894,-248.5697"/>
<text text-anchor="start" x="1372.9894" y="-256.5697" font-family="Times,serif" font-size="10.00" fill="#000000">statusDesc: VIRTUAL</text>
<polygon fill="none" stroke="#000000" points="1367.9894,-226.5697 1367.9894,-248.5697 1545.9894,-248.5697 1545.9894,-226.5697 1367.9894,-226.5697"/>
<text text-anchor="start" x="1372.9894" y="-234.5697" font-family="Times,serif" font-size="10.00" fill="#000000">expiresIn: DATE</text>
<polygon fill="none" stroke="#000000" points="1367.9894,-204.5697 1367.9894,-226.5697 1545.9894,-226.5697 1545.9894,-204.5697 1367.9894,-204.5697"/>
<text text-anchor="start" x="1372.9894" y="-212.5697" font-family="Times,serif" font-size="10.00" fill="#000000">glUserId: NUMBER</text>
<polygon fill="none" stroke="#000000" points="1367.9894,-182.5697 1367.9894,-204.5697 1545.9894,-204.5697 1545.9894,-182.5697 1367.9894,-182.5697"/>
<text text-anchor="start" x="1372.9894" y="-190.5697" font-family="Times,serif" font-size="10.00" fill="#000000">glPersonOriginId: NUMBER</text>
<polygon fill="none" stroke="#000000" points="1367.9894,-160.5697 1367.9894,-182.5697 1545.9894,-182.5697 1545.9894,-160.5697 1367.9894,-160.5697"/>
<text text-anchor="start" x="1372.9894" y="-168.5697" font-family="Times,serif" font-size="10.00" fill="#000000">glPersonContactOriginId: NUMBER</text>
<polygon fill="none" stroke="#000000" points="1367.9894,-138.5697 1367.9894,-160.5697 1545.9894,-160.5697 1545.9894,-138.5697 1367.9894,-138.5697"/>
<text text-anchor="start" x="1372.9894" y="-146.5697" font-family="Times,serif" font-size="10.00" fill="#000000">glPersonDestinationId: NUMBER</text>
<polygon fill="none" stroke="#000000" points="1367.9894,-116.5697 1367.9894,-138.5697 1545.9894,-138.5697 1545.9894,-116.5697 1367.9894,-116.5697"/>
<text text-anchor="start" x="1372.6974" y="-124.5697" font-family="Times,serif" font-size="10.00" fill="#000000">glPersonContactDestinationId: NUMBER</text>
</g>
<!-- or_order&#45;&gt;gl_user -->
<g id="edge15" class="edge">
<title>or_order&#45;&gt;gl_user</title>
<path fill="none" stroke="#000000" stroke-width=".75" d="M1552.118,-290.3572C1673.1359,-273.5489 1878.5239,-245.0224 1979.5514,-230.9907"/>
<polygon fill="#000000" stroke="#000000" stroke-width=".75" points="1552.005,-290.3728 1545.6905,-288.524 1549.0335,-290.7856 1546.062,-291.1983 1546.062,-291.1983 1546.062,-291.1983 1549.0335,-290.7856 1546.4335,-293.8726 1552.005,-290.3728 1552.005,-290.3728"/>
</g>
<!-- or_order&#45;&gt;gl_person -->
<g id="edge16" class="edge">
<title>or_order&#45;&gt;gl_person</title>
<path fill="none" stroke="#000000" stroke-width=".75" d="M1378.7438,-496.3353C1301.6547,-686.2521 1184.9909,-973.6649 1111.0408,-1155.8483"/>
<polygon fill="#000000" stroke="#000000" stroke-width=".75" points="1378.7562,-496.3046 1383.5147,-491.7606 1379.8846,-493.5248 1381.0129,-490.7451 1381.0129,-490.7451 1381.0129,-490.7451 1379.8846,-493.5248 1378.5112,-489.7296 1378.7562,-496.3046 1378.7562,-496.3046"/>
</g>
<!-- or_order&#45;&gt;gl_person_contact -->
<g id="edge17" class="edge">
<title>or_order&#45;&gt;gl_person_contact</title>
<path fill="none" stroke="#000000" stroke-width=".75" d="M1363.5436,-407.0145C1291.5904,-486.667 1193.8829,-594.8296 1129.6529,-665.9324"/>
<polygon fill="#000000" stroke="#000000" stroke-width=".75" points="1363.7904,-406.7413 1369.816,-404.0988 1365.8014,-404.5151 1367.8124,-402.2889 1367.8124,-402.2889 1367.8124,-402.2889 1365.8014,-404.5151 1365.8089,-400.479 1363.7904,-406.7413 1363.7904,-406.7413"/>
</g>
<!-- or_order_product -->
<g id="node17" class="node">
<title>or_order_product</title>
<polygon fill="#add8e6" stroke="transparent" points="2666.1052,-1171.4433 2666.1052,-1193.4433 2771.1052,-1193.4433 2771.1052,-1171.4433 2666.1052,-1171.4433"/>
<polygon fill="none" stroke="#000000" points="2666.1052,-1171.4433 2666.1052,-1193.4433 2771.1052,-1193.4433 2771.1052,-1171.4433 2666.1052,-1171.4433"/>
<text text-anchor="start" x="2683.6187" y="-1179.4433" font-family="Times,serif" font-size="10.00" fill="#000000">or_order_product</text>
<polygon fill="none" stroke="#000000" points="2666.1052,-1149.4433 2666.1052,-1171.4433 2771.1052,-1171.4433 2771.1052,-1149.4433 2666.1052,-1149.4433"/>
<text text-anchor="start" x="2671.1052" y="-1157.4433" font-family="Times,serif" font-size="10.00" fill="#000000">id: NUMBER</text>
<polygon fill="none" stroke="#000000" points="2666.1052,-1127.4433 2666.1052,-1149.4433 2771.1052,-1149.4433 2771.1052,-1127.4433 2666.1052,-1127.4433"/>
<text text-anchor="start" x="2671.1052" y="-1135.4433" font-family="Times,serif" font-size="10.00" fill="#000000">createdAt: DATE</text>
<polygon fill="none" stroke="#000000" points="2666.1052,-1105.4433 2666.1052,-1127.4433 2771.1052,-1127.4433 2771.1052,-1105.4433 2666.1052,-1105.4433"/>
<text text-anchor="start" x="2671.1052" y="-1113.4433" font-family="Times,serif" font-size="10.00" fill="#000000">updatedAt: DATE</text>
<polygon fill="none" stroke="#000000" points="2666.1052,-1083.4433 2666.1052,-1105.4433 2771.1052,-1105.4433 2771.1052,-1083.4433 2666.1052,-1083.4433"/>
<text text-anchor="start" x="2671.1052" y="-1091.4433" font-family="Times,serif" font-size="10.00" fill="#000000">quantity: NUMBER</text>
<polygon fill="none" stroke="#000000" points="2666.1052,-1061.4433 2666.1052,-1083.4433 2771.1052,-1083.4433 2771.1052,-1061.4433 2666.1052,-1061.4433"/>
<text text-anchor="start" x="2671.1052" y="-1069.4433" font-family="Times,serif" font-size="10.00" fill="#000000">notes: STRING</text>
<polygon fill="none" stroke="#000000" points="2666.1052,-1039.4433 2666.1052,-1061.4433 2771.1052,-1061.4433 2771.1052,-1039.4433 2666.1052,-1039.4433"/>
<text text-anchor="start" x="2670.9717" y="-1047.4433" font-family="Times,serif" font-size="10.00" fill="#000000">glProductId: NUMBER</text>
<polygon fill="none" stroke="#000000" points="2666.1052,-1017.4433 2666.1052,-1039.4433 2771.1052,-1039.4433 2771.1052,-1017.4433 2666.1052,-1017.4433"/>
<text text-anchor="start" x="2671.1052" y="-1025.4433" font-family="Times,serif" font-size="10.00" fill="#000000">glUnitId: NUMBER</text>
<polygon fill="none" stroke="#000000" points="2666.1052,-995.4433 2666.1052,-1017.4433 2771.1052,-1017.4433 2771.1052,-995.4433 2666.1052,-995.4433"/>
<text text-anchor="start" x="2671.1052" y="-1003.4433" font-family="Times,serif" font-size="10.00" fill="#000000">orderId: NUMBER</text>
</g>
<!-- or_order_product&#45;&gt;gl_unit -->
<g id="edge19" class="edge">
<title>or_order_product&#45;&gt;gl_unit</title>
<path fill="none" stroke="#000000" stroke-width=".75" d="M2675.4791,-1199.4568C2634.0286,-1301.5743 2571.7755,-1454.9411 2532.8127,-1550.9298"/>
<polygon fill="#000000" stroke="#000000" stroke-width=".75" points="2675.5508,-1199.2802 2680.3092,-1194.7363 2676.6791,-1196.5005 2677.8075,-1193.7208 2677.8075,-1193.7208 2677.8075,-1193.7208 2676.6791,-1196.5005 2675.3057,-1192.7053 2675.5508,-1199.2802 2675.5508,-1199.2802"/>
</g>
<!-- or_order_product&#45;&gt;gl_product -->
<g id="edge18" class="edge">
<title>or_order_product&#45;&gt;gl_product</title>
<path fill="none" stroke="#000000" stroke-width=".75" d="M2661.148,-1157.4952C2527.3742,-1305.5833 2193.4382,-1675.2519 2047.5399,-1836.7618"/>
<polygon fill="#000000" stroke="#000000" stroke-width=".75" points="2661.4126,-1157.2023 2667.4382,-1154.5598 2663.4236,-1154.9761 2665.4346,-1152.7499 2665.4346,-1152.7499 2665.4346,-1152.7499 2663.4236,-1154.9761 2663.431,-1150.94 2661.4126,-1157.2023 2661.4126,-1157.2023"/>
</g>
<!-- or_order_product&#45;&gt;or_order -->
<g id="edge20" class="edge">
<title>or_order_product&#45;&gt;or_order</title>
<path fill="none" stroke="#000000" stroke-width=".75" d="M2660.2849,-1058.1829C2459.2228,-932.0924 1789.5673,-512.1367 1546.2929,-359.5739"/>
<polygon fill="#000000" stroke="#000000" stroke-width=".75" points="2660.439,-1058.2796 2664.0877,-1063.7548 2662.9806,-1059.8735 2665.5222,-1061.4674 2665.5222,-1061.4674 2665.5222,-1061.4674 2662.9806,-1059.8735 2666.9567,-1059.18 2660.439,-1058.2796 2660.439,-1058.2796"/>
</g>
<!-- or_order_history -->
<g id="node18" class="node">
<title>or_order_history</title>
<polygon fill="#add8e6" stroke="transparent" points="2490.3426,-612.0341 2490.3426,-634.0341 2585.3426,-634.0341 2585.3426,-612.0341 2490.3426,-612.0341"/>
<polygon fill="none" stroke="#000000" points="2490.3426,-612.0341 2490.3426,-634.0341 2585.3426,-634.0341 2585.3426,-612.0341 2490.3426,-612.0341"/>
<text text-anchor="start" x="2504.2416" y="-620.0341" font-family="Times,serif" font-size="10.00" fill="#000000">or_order_history</text>
<polygon fill="none" stroke="#000000" points="2490.3426,-590.0341 2490.3426,-612.0341 2585.3426,-612.0341 2585.3426,-590.0341 2490.3426,-590.0341"/>
<text text-anchor="start" x="2495.3426" y="-598.0341" font-family="Times,serif" font-size="10.00" fill="#000000">id: NUMBER</text>
<polygon fill="none" stroke="#000000" points="2490.3426,-568.0341 2490.3426,-590.0341 2585.3426,-590.0341 2585.3426,-568.0341 2490.3426,-568.0341"/>
<text text-anchor="start" x="2495.3426" y="-576.0341" font-family="Times,serif" font-size="10.00" fill="#000000">createdAt: DATE</text>
<polygon fill="none" stroke="#000000" points="2490.3426,-546.0341 2490.3426,-568.0341 2585.3426,-568.0341 2585.3426,-546.0341 2490.3426,-546.0341"/>
<text text-anchor="start" x="2495.3426" y="-554.0341" font-family="Times,serif" font-size="10.00" fill="#000000">updatedAt: DATE</text>
<polygon fill="none" stroke="#000000" points="2490.3426,-524.0341 2490.3426,-546.0341 2585.3426,-546.0341 2585.3426,-524.0341 2490.3426,-524.0341"/>
<text text-anchor="start" x="2495.2041" y="-532.0341" font-family="Times,serif" font-size="10.00" fill="#000000">oldStatus: NUMBER</text>
<polygon fill="none" stroke="#000000" points="2490.3426,-502.0341 2490.3426,-524.0341 2585.3426,-524.0341 2585.3426,-502.0341 2490.3426,-502.0341"/>
<text text-anchor="start" x="2495.3426" y="-510.0341" font-family="Times,serif" font-size="10.00" fill="#000000">oldType: NUMBER</text>
<polygon fill="none" stroke="#000000" points="2490.3426,-480.0341 2490.3426,-502.0341 2585.3426,-502.0341 2585.3426,-480.0341 2490.3426,-480.0341"/>
<text text-anchor="start" x="2495.3426" y="-488.0341" font-family="Times,serif" font-size="10.00" fill="#000000">changes: STRING</text>
<polygon fill="none" stroke="#000000" points="2490.3426,-458.0341 2490.3426,-480.0341 2585.3426,-480.0341 2585.3426,-458.0341 2490.3426,-458.0341"/>
<text text-anchor="start" x="2495.3426" y="-466.0341" font-family="Times,serif" font-size="10.00" fill="#000000">glUserId: NUMBER</text>
<polygon fill="none" stroke="#000000" points="2490.3426,-436.0341 2490.3426,-458.0341 2585.3426,-458.0341 2585.3426,-436.0341 2490.3426,-436.0341"/>
<text text-anchor="start" x="2495.3426" y="-444.0341" font-family="Times,serif" font-size="10.00" fill="#000000">orderId: NUMBER</text>
</g>
<!-- or_order_history&#45;&gt;gl_user -->
<g id="edge21" class="edge">
<title>or_order_history&#45;&gt;gl_user</title>
<path fill="none" stroke="#000000" stroke-width=".75" d="M2484.3948,-501.8293C2390.9293,-443.215 2197.3113,-321.7929 2099.1454,-260.2309"/>
<polygon fill="#000000" stroke="#000000" stroke-width=".75" points="2484.504,-501.8978 2488.1526,-507.373 2487.0455,-503.4917 2489.5871,-505.0856 2489.5871,-505.0856 2489.5871,-505.0856 2487.0455,-503.4917 2491.0216,-502.7981 2484.504,-501.8978 2484.504,-501.8978"/>
</g>
<!-- or_order_history&#45;&gt;or_order -->
<g id="edge22" class="edge">
<title>or_order_history&#45;&gt;or_order</title>
<path fill="none" stroke="#000000" stroke-width=".75" d="M2483.5026,-523.4989C2309.6823,-486.2581 1762.2412,-368.9695 1546.0612,-322.6532"/>
<polygon fill="#000000" stroke="#000000" stroke-width=".75" points="2483.6603,-523.5326 2488.9615,-527.4298 2486.5937,-524.1611 2489.5272,-524.7897 2489.5272,-524.7897 2489.5272,-524.7897 2486.5937,-524.1611 2490.0928,-522.1496 2483.6603,-523.5326 2483.6603,-523.5326"/>
</g>
<!-- or_order_consolidated -->
<g id="node19" class="node">
<title>or_order_consolidated</title>
<polygon fill="#add8e6" stroke="transparent" points="1329.6306,-1879.1649 1329.6306,-1901.1649 1476.6306,-1901.1649 1476.6306,-1879.1649 1329.6306,-1879.1649"/>
<polygon fill="none" stroke="#000000" points="1329.6306,-1879.1649 1329.6306,-1901.1649 1476.6306,-1901.1649 1476.6306,-1879.1649 1329.6306,-1879.1649"/>
<text text-anchor="start" x="1358.1461" y="-1887.1649" font-family="Times,serif" font-size="10.00" fill="#000000">or_order_consolidated</text>
<polygon fill="none" stroke="#000000" points="1329.6306,-1857.1649 1329.6306,-1879.1649 1476.6306,-1879.1649 1476.6306,-1857.1649 1329.6306,-1857.1649"/>
<text text-anchor="start" x="1334.6306" y="-1865.1649" font-family="Times,serif" font-size="10.00" fill="#000000">id: NUMBER</text>
<polygon fill="none" stroke="#000000" points="1329.6306,-1835.1649 1329.6306,-1857.1649 1476.6306,-1857.1649 1476.6306,-1835.1649 1329.6306,-1835.1649"/>
<text text-anchor="start" x="1334.6306" y="-1843.1649" font-family="Times,serif" font-size="10.00" fill="#000000">createdAt: DATE</text>
<polygon fill="none" stroke="#000000" points="1329.6306,-1813.1649 1329.6306,-1835.1649 1476.6306,-1835.1649 1476.6306,-1813.1649 1329.6306,-1813.1649"/>
<text text-anchor="start" x="1334.6306" y="-1821.1649" font-family="Times,serif" font-size="10.00" fill="#000000">updatedAt: DATE</text>
<polygon fill="none" stroke="#000000" points="1329.6306,-1791.1649 1329.6306,-1813.1649 1476.6306,-1813.1649 1476.6306,-1791.1649 1329.6306,-1791.1649"/>
<text text-anchor="start" x="1334.6306" y="-1799.1649" font-family="Times,serif" font-size="10.00" fill="#000000">remainingQuantity: NUMBER</text>
<polygon fill="none" stroke="#000000" points="1329.6306,-1769.1649 1329.6306,-1791.1649 1476.6306,-1791.1649 1476.6306,-1769.1649 1329.6306,-1769.1649"/>
<text text-anchor="start" x="1334.6306" y="-1777.1649" font-family="Times,serif" font-size="10.00" fill="#000000">reserveQuantity: NUMBER</text>
<polygon fill="none" stroke="#000000" points="1329.6306,-1747.1649 1329.6306,-1769.1649 1476.6306,-1769.1649 1476.6306,-1747.1649 1329.6306,-1747.1649"/>
<text text-anchor="start" x="1334.6306" y="-1755.1649" font-family="Times,serif" font-size="10.00" fill="#000000">transportQuantity: NUMBER</text>
<polygon fill="none" stroke="#000000" points="1329.6306,-1725.1649 1329.6306,-1747.1649 1476.6306,-1747.1649 1476.6306,-1725.1649 1329.6306,-1725.1649"/>
<text text-anchor="start" x="1334.6306" y="-1733.1649" font-family="Times,serif" font-size="10.00" fill="#000000">glProductId: NUMBER</text>
<polygon fill="none" stroke="#000000" points="1329.6306,-1703.1649 1329.6306,-1725.1649 1476.6306,-1725.1649 1476.6306,-1703.1649 1329.6306,-1703.1649"/>
<text text-anchor="start" x="1334.6306" y="-1711.1649" font-family="Times,serif" font-size="10.00" fill="#000000">glUnitId: NUMBER</text>
<polygon fill="none" stroke="#000000" points="1329.6306,-1681.1649 1329.6306,-1703.1649 1476.6306,-1703.1649 1476.6306,-1681.1649 1329.6306,-1681.1649"/>
<text text-anchor="start" x="1334.3911" y="-1689.1649" font-family="Times,serif" font-size="10.00" fill="#000000">glPersonDestinationId: NUMBER</text>
</g>
<!-- or_order_consolidated&#45;&gt;gl_person -->
<g id="edge25" class="edge">
<title>or_order_consolidated&#45;&gt;gl_person</title>
<path fill="none" stroke="#000000" stroke-width=".75" d="M1325.337,-1691.9028C1261.8013,-1610.309 1172.5644,-1495.7091 1111.1857,-1416.8853"/>
<polygon fill="#000000" stroke="#000000" stroke-width=".75" points="1325.4166,-1692.0051 1326.9726,-1698.398 1327.2598,-1694.3721 1329.1029,-1696.7391 1329.1029,-1696.7391 1329.1029,-1696.7391 1327.2598,-1694.3721 1331.2333,-1695.0803 1325.4166,-1692.0051 1325.4166,-1692.0051"/>
</g>
<!-- or_order_consolidated&#45;&gt;gl_unit -->
<g id="edge24" class="edge">
<title>or_order_consolidated&#45;&gt;gl_unit</title>
<path fill="none" stroke="#000000" stroke-width=".75" d="M1482.2924,-1780.1006C1694.0191,-1750.6937 2266.6422,-1671.1617 2443.9381,-1646.5369"/>
<polygon fill="#000000" stroke="#000000" stroke-width=".75" points="1482.0773,-1780.1304 1475.7628,-1778.2815 1479.1058,-1780.5431 1476.1343,-1780.9559 1476.1343,-1780.9559 1476.1343,-1780.9559 1479.1058,-1780.5431 1476.5058,-1783.6302 1482.0773,-1780.1304 1482.0773,-1780.1304"/>
</g>
<!-- or_order_consolidated&#45;&gt;gl_product -->
<g id="edge23" class="edge">
<title>or_order_consolidated&#45;&gt;gl_product</title>
<path fill="none" stroke="#000000" stroke-width=".75" d="M1482.2811,-1808.2299C1595.1557,-1832.4131 1799.8478,-1876.2682 1907.3019,-1899.2901"/>
<polygon fill="#000000" stroke="#000000" stroke-width=".75" points="1482.1784,-1808.2079 1476.8772,-1804.3108 1479.2449,-1807.5794 1476.3115,-1806.9509 1476.3115,-1806.9509 1476.3115,-1806.9509 1479.2449,-1807.5794 1475.7458,-1809.591 1482.1784,-1808.2079 1482.1784,-1808.2079"/>
</g>
</g>
</svg>
